# Blender v3.6.2 OBJ File: ''
# www.blender.org
mtllib stickman.mtl
o cube
v 0.031250 1.500000 0.031250
v 0.031250 1.500000 -0.031250
v 0.031250 0.625000 0.031250
v 0.031250 0.625000 -0.031250
v -0.031250 1.500000 0.031250
v -0.031250 1.500000 -0.031250
v -0.031250 0.625000 0.031250
v -0.031250 0.625000 -0.031250
vt 0.125000 0.437500
vt 0.125000 0.656250
vt 0.109375 0.656250
vt 0.109375 0.437500
vt 0.156250 0.390625
vt 0.156250 0.609375
vt 0.140625 0.609375
vt 0.140625 0.390625
vt 0.093750 0.812500
vt 0.093750 0.828125
vt 0.078125 0.828125
vt 0.078125 0.812500
vt 0.203125 0.937500
vt 0.203125 0.953125
vt 0.187500 0.953125
vt 0.187500 0.937500
vt 0.265625 0.390625
vt 0.265625 0.609375
vt 0.250000 0.609375
vt 0.250000 0.390625
vt 0.296875 0.390625
vt 0.296875 0.609375
vt 0.281250 0.609375
vt 0.281250 0.390625
vn 0.5774 -0.5774 -0.5774
vn 0.5774 0.5774 -0.5774
vn 0.5774 0.5774 0.5774
vn 0.5774 -0.5774 0.5774
vn -0.5774 -0.5774 0.5774
vn -0.5774 0.5774 0.5774
vn -0.5774 0.5774 -0.5774
vn -0.5774 -0.5774 -0.5774
usemtl m_0353a6df-d48f-bd92-f39f-7b4ee9071c99
s 1
f 4/1/1 2/2/2 1/3/3 3/4/4
f 7/5/5 5/6/6 6/7/7 8/8/8
f 1/9/3 2/10/2 6/11/7 5/12/6
f 4/13/1 3/14/4 7/15/5 8/16/8
f 3/17/4 1/18/3 5/19/6 7/20/5
f 8/21/8 6/22/7 2/23/2 4/24/1
o cube.001
v 0.073938 1.390625 0.031250
v 0.073938 1.390625 -0.031250
v 0.417688 0.795233 0.031250
v 0.417688 0.795233 -0.031250
v 0.019812 1.359375 0.031250
v 0.019812 1.359375 -0.031250
v 0.363562 0.763983 0.031250
v 0.363562 0.763983 -0.031250
vt 0.046875 0.390625
vt 0.046875 0.562500
vt 0.031250 0.562500
vt 0.031250 0.390625
vt 0.078125 0.390625
vt 0.078125 0.562500
vt 0.062500 0.562500
vt 0.062500 0.390625
vt 0.218750 0.984375
vt 0.218750 1.000000
vt 0.203125 1.000000
vt 0.203125 0.984375
vt 0.093750 0.781250
vt 0.093750 0.796875
vt 0.078125 0.796875
vt 0.078125 0.781250
vt 0.453125 0.765625
vt 0.453125 0.937500
vt 0.437500 0.937500
vt 0.437500 0.765625
vt 0.453125 0.437500
vt 0.453125 0.609375
vt 0.437500 0.609375
vt 0.437500 0.437500
vn 0.7887 -0.2113 -0.5774
vn 0.2113 0.7887 -0.5774
vn 0.2113 0.7887 0.5774
vn 0.7887 -0.2113 0.5774
vn -0.2113 -0.7887 0.5774
vn -0.7887 0.2113 0.5774
vn -0.7887 0.2113 -0.5774
vn -0.2113 -0.7887 -0.5774
usemtl m_0353a6df-d48f-bd92-f39f-7b4ee9071c99
s 1
f 12/25/9 10/26/10 9/27/11 11/28/12
f 15/29/13 13/30/14 14/31/15 16/32/16
f 9/33/11 10/34/10 14/35/15 13/36/14
f 12/37/9 11/38/12 15/39/13 16/40/16
f 11/41/12 9/42/11 13/43/14 15/44/13
f 16/45/16 14/46/15 10/47/10 12/48/9
o cube.002
v 0.042688 0.694752 0.031250
v 0.042688 0.694752 -0.031250
v 0.448938 -0.008894 0.031250
v 0.448938 -0.008894 -0.031250
v -0.011438 0.663502 0.031250
v -0.011438 0.663502 -0.031250
v 0.394812 -0.040144 0.031250
v 0.394812 -0.040144 -0.031250
vt 0.187500 0.390625
vt 0.187500 0.593750
vt 0.171875 0.593750
vt 0.171875 0.390625
vt 0.218750 0.390625
vt 0.218750 0.593750
vt 0.203125 0.593750
vt 0.203125 0.390625
vt 0.218750 0.687500
vt 0.218750 0.703125
vt 0.203125 0.703125
vt 0.203125 0.687500
vt 0.453125 0.734375
vt 0.453125 0.750000
vt 0.437500 0.750000
vt 0.437500 0.734375
vt 0.421875 0.406250
vt 0.421875 0.609375
vt 0.406250 0.609375
vt 0.406250 0.406250
vt 0.015625 0.359375
vt 0.015625 0.562500
vt 0.000000 0.562500
vt 0.000000 0.359375
vn 0.7887 -0.2113 -0.5774
vn 0.2113 0.7887 -0.5774
vn 0.2113 0.7887 0.5774
vn 0.7887 -0.2113 0.5774
vn -0.2113 -0.7887 0.5774
vn -0.7887 0.2113 0.5774
vn -0.7887 0.2113 -0.5774
vn -0.2113 -0.7887 -0.5774
usemtl m_0353a6df-d48f-bd92-f39f-7b4ee9071c99
s 1
f 20/49/17 18/50/18 17/51/19 19/52/20
f 23/53/21 21/54/22 22/55/23 24/56/24
f 17/57/19 18/58/18 22/59/23 21/60/22
f 20/61/17 19/62/20 23/63/21 24/64/24
f 19/65/20 17/66/19 21/67/22 23/68/21
f 24/69/24 22/70/23 18/71/18 20/72/17
o cube.003
v -0.042688 0.694752 0.031250
v -0.042688 0.694752 -0.031250
v -0.448938 -0.008894 0.031250
v -0.448938 -0.008894 -0.031250
v 0.011438 0.663502 0.031250
v 0.011438 0.663502 -0.031250
v -0.394812 -0.040144 0.031250
v -0.394812 -0.040144 -0.031250
vt 0.328125 0.609375
vt 0.312500 0.609375
vt 0.312500 0.406250
vt 0.328125 0.406250
vt 0.359375 0.609375
vt 0.343750 0.609375
vt 0.343750 0.406250
vt 0.359375 0.406250
vt 0.015625 0.859375
vt 0.000000 0.859375
vt 0.000000 0.843750
vt 0.015625 0.843750
vt 0.171875 0.953125
vt 0.156250 0.953125
vt 0.156250 0.937500
vt 0.171875 0.937500
vt 0.390625 0.609375
vt 0.375000 0.609375
vt 0.375000 0.406250
vt 0.390625 0.406250
vt 0.421875 0.937500
vt 0.406250 0.937500
vt 0.406250 0.734375
vt 0.421875 0.734375
vn -0.2113 0.7887 0.5774
vn -0.2113 0.7887 -0.5774
vn -0.7887 -0.2113 -0.5774
vn -0.7887 -0.2113 0.5774
vn 0.7887 0.2113 -0.5774
vn 0.7887 0.2113 0.5774
vn 0.2113 -0.7887 0.5774
vn 0.2113 -0.7887 -0.5774
usemtl m_0353a6df-d48f-bd92-f39f-7b4ee9071c99
s 1
f 25/73/25 26/74/26 28/75/27 27/76/28
f 30/77/29 29/78/30 31/79/31 32/80/32
f 30/81/29 26/82/26 25/83/25 29/84/30
f 31/85/31 27/86/28 28/87/27 32/88/32
f 29/89/30 25/90/25 27/91/28 31/92/31
f 26/93/26 30/94/29 32/95/32 28/96/27
o cube.004
v -0.073938 1.390625 0.031250
v -0.073938 1.390625 -0.031250
v -0.417688 0.795233 0.031250
v -0.417688 0.795233 -0.031250
v -0.019812 1.359375 0.031250
v -0.019812 1.359375 -0.031250
v -0.363562 0.763983 0.031250
v -0.363562 0.763983 -0.031250
vt 0.484375 0.937500
vt 0.468750 0.937500
vt 0.468750 0.765625
vt 0.484375 0.765625
vt 0.484375 0.750000
vt 0.468750 0.750000
vt 0.468750 0.578125
vt 0.484375 0.578125
vt 0.015625 0.765625
vt 0.000000 0.765625
vt 0.000000 0.750000
vt 0.015625 0.750000
vt 0.187500 0.703125
vt 0.171875 0.703125
vt 0.171875 0.687500
vt 0.187500 0.687500
vt 0.484375 0.562500
vt 0.468750 0.562500
vt 0.468750 0.390625
vt 0.484375 0.390625
vt 0.515625 0.937500
vt 0.500000 0.937500
vt 0.500000 0.765625
vt 0.515625 0.765625
vn -0.2113 0.7887 0.5774
vn -0.2113 0.7887 -0.5774
vn -0.7887 -0.2113 -0.5774
vn -0.7887 -0.2113 0.5774
vn 0.7887 0.2113 -0.5774
vn 0.7887 0.2113 0.5774
vn 0.2113 -0.7887 0.5774
vn 0.2113 -0.7887 -0.5774
usemtl m_0353a6df-d48f-bd92-f39f-7b4ee9071c99
s 1
f 33/97/33 34/98/34 36/99/35 35/100/36
f 38/101/37 37/102/38 39/103/39 40/104/40
f 38/105/37 34/106/34 33/107/33 37/108/38
f 39/109/39 35/110/36 36/111/35 40/112/40
f 37/113/38 33/114/33 35/115/36 39/116/39
f 34/117/34 38/118/37 40/119/40 36/120/35
o sphere
v 0.000000 1.437500 -0.000000
v 0.000000 2.062500 -0.000000
v 0.023788 2.038712 0.119588
v 0.043954 1.970971 0.220971
v 0.057428 1.869589 0.288712
v 0.062160 1.750000 0.312500
v 0.057428 1.630411 0.288712
v 0.043954 1.529029 0.220971
v 0.023788 1.461288 0.119588
v 0.067741 2.038712 0.101382
v 0.125170 1.970971 0.187330
v 0.163542 1.869589 0.244758
v 0.177017 1.750000 0.264925
v 0.163542 1.630411 0.244758
v 0.125170 1.529029 0.187330
v 0.067741 1.461288 0.101382
v 0.101382 2.038712 0.067741
v 0.187330 1.970971 0.125170
v 0.244759 1.869589 0.163542
v 0.264925 1.750000 0.177017
v 0.244759 1.630411 0.163542
v 0.187330 1.529029 0.125170
v 0.101382 1.461288 0.067741
v 0.119589 2.038712 0.023787
v 0.220971 1.970971 0.043954
v 0.288712 1.869589 0.057428
v 0.312500 1.750000 0.062160
v 0.288712 1.630411 0.057428
v 0.220971 1.529029 0.043954
v 0.119589 1.461288 0.023788
v 0.119589 2.038712 -0.023788
v 0.220971 1.970971 -0.043954
v 0.288712 1.869589 -0.057429
v 0.312500 1.750000 -0.062160
v 0.288712 1.630411 -0.057429
v 0.220971 1.529029 -0.043954
v 0.119589 1.461288 -0.023788
v 0.101382 2.038712 -0.067742
v 0.187330 1.970971 -0.125170
v 0.244759 1.869589 -0.163543
v 0.264925 1.750000 -0.177017
v 0.244759 1.630411 -0.163543
v 0.187330 1.529029 -0.125170
v 0.101382 1.461288 -0.067742
v 0.067741 2.038712 -0.101382
v 0.125170 1.970971 -0.187330
v 0.163542 1.869589 -0.244759
v 0.177017 1.750000 -0.264925
v 0.163542 1.630411 -0.244759
v 0.125170 1.529029 -0.187330
v 0.067741 1.461288 -0.101382
v 0.023788 2.038712 -0.119589
v 0.043954 1.970971 -0.220971
v 0.057428 1.869589 -0.288713
v 0.062160 1.750000 -0.312500
v 0.057428 1.630411 -0.288712
v 0.043954 1.529029 -0.220971
v 0.023788 1.461288 -0.119589
v -0.023788 2.038712 -0.119589
v -0.043954 1.970971 -0.220971
v -0.057428 1.869589 -0.288713
v -0.062160 1.750000 -0.312500
v -0.057428 1.630411 -0.288712
v -0.043954 1.529029 -0.220971
v -0.023788 1.461288 -0.119589
v -0.067741 2.038712 -0.101382
v -0.125170 1.970971 -0.187330
v -0.163542 1.869589 -0.244759
v -0.177017 1.750000 -0.264925
v -0.163542 1.630411 -0.244759
v -0.125170 1.529029 -0.187330
v -0.067741 1.461288 -0.101382
v -0.101382 2.038712 -0.067742
v -0.187330 1.970971 -0.125170
v -0.244759 1.869589 -0.163543
v -0.264925 1.750000 -0.177017
v -0.244759 1.630411 -0.163543
v -0.187330 1.529029 -0.125170
v -0.101382 1.461288 -0.067742
v -0.119589 2.038712 -0.023788
v -0.220971 1.970971 -0.043954
v -0.288712 1.869589 -0.057429
v -0.312500 1.750000 -0.062160
v -0.288712 1.630411 -0.057429
v -0.220971 1.529029 -0.043954
v -0.119589 1.461288 -0.023788
v -0.119589 2.038712 0.023787
v -0.220971 1.970971 0.043954
v -0.288712 1.869589 0.057428
v -0.312500 1.750000 0.062160
v -0.288712 1.630411 0.057428
v -0.220971 1.529029 0.043954
v -0.119589 1.461288 0.023788
v -0.101382 2.038712 0.067741
v -0.187330 1.970971 0.125170
v -0.244759 1.869589 0.163542
v -0.264925 1.750000 0.177017
v -0.244759 1.630411 0.163542
v -0.187330 1.529029 0.125170
v -0.101382 1.461288 0.067741
v -0.067741 2.038712 0.101382
v -0.125170 1.970971 0.187330
v -0.163542 1.869589 0.244758
v -0.177017 1.750000 0.264925
v -0.163542 1.630411 0.244758
v -0.125170 1.529029 0.187330
v -0.067741 1.461288 0.101382
v -0.023788 2.038712 0.119588
v -0.043954 1.970971 0.220971
v -0.057428 1.869589 0.288712
v -0.062160 1.750000 0.312500
v -0.057428 1.630411 0.288712
v -0.043954 1.529029 0.220971
v -0.023788 1.461288 0.119588
vt 0.059698 0.968573
vt 0.048958 0.963462
vt 0.067428 0.938493
vt 0.051151 0.998265
vt 0.031306 0.988819
vt 0.378177 0.657710
vt 0.381545 0.627226
vt 0.409568 0.633496
vt 0.399624 0.662509
vt 0.331582 0.754944
vt 0.328041 0.724645
vt 0.359028 0.722236
vt 0.360211 0.752719
vt 0.326858 0.694162
vt 0.355487 0.691937
vt 0.225295 0.670342
vt 0.221927 0.639858
vt 0.243374 0.635059
vt 0.253318 0.664072
vt 0.140089 0.767681
vt 0.159582 0.791654
vt 0.151702 0.800562
vt 0.125528 0.784144
vt 0.167163 0.798431
vt 0.178429 0.794616
vt 0.182572 0.825396
vt 0.040928 0.954689
vt 0.029878 0.987763
vt 0.015038 0.971551
vt 0.435546 0.645733
vt 0.419507 0.671875
vt 0.006767 0.722886
vt 0.000889 0.692952
vt 0.031597 0.688149
vt 0.035138 0.718449
vt 0.383858 0.687500
vt 0.389736 0.717434
vt 0.263257 0.625693
vt 0.279296 0.651835
vt 0.147111 0.811534
vt 0.117044 0.804418
vt 0.177526 0.817816
vt 0.036784 0.943540
vt 0.014112 0.970036
vt 0.006454 0.949435
vt 0.040859 0.748581
vt 0.063767 0.716224
vt 0.062771 0.746877
vt 0.062584 0.685741
vt 0.000347 0.639976
vt 0.003888 0.609676
vt 0.032517 0.611901
vt 0.031334 0.642384
vt 0.009609 0.579544
vt 0.031521 0.581248
vt 0.146297 0.823400
vt 0.115541 0.826345
vt 0.177115 0.819553
vt 0.037134 0.931652
vt 0.006166 0.947683
vt 0.006813 0.925714
vt 0.071724 0.750000
vt 0.064058 0.720303
vt 0.092483 0.716224
vt 0.093479 0.746877
vt 0.093666 0.685741
vt 0.061233 0.611901
vt 0.062416 0.642384
vt 0.032808 0.607822
vt 0.040474 0.578125
vt 0.062229 0.581248
vt 0.149348 0.834896
vt 0.121178 0.847588
vt 0.177285 0.821330
vt 0.041927 0.920767
vt 0.007204 0.923982
vt 0.016061 0.903868
vt 0.121112 0.718449
vt 0.115391 0.748581
vt 0.124653 0.688149
vt 0.089862 0.609676
vt 0.093403 0.639976
vt 0.084141 0.579544
vt 0.155937 0.844797
vt 0.133355 0.865884
vt 0.178019 0.822957
vt 0.050460 0.912481
vt 0.017074 0.902409
vt 0.032842 0.887099
vt 0.009944 0.828125
vt 0.000000 0.799112
vt 0.028023 0.792842
vt 0.031391 0.823326
vt 0.155361 0.692952
vt 0.149483 0.722886
vt 0.219639 0.951809
vt 0.225517 0.921875
vt 0.253888 0.926312
vt 0.250347 0.956611
vt 0.500000 0.669638
vt 0.509944 0.640625
vt 0.531392 0.645424
vt 0.528023 0.675908
vt 0.165365 0.852049
vt 0.150775 0.879285
vt 0.179237 0.824262
vt 0.061481 0.908011
vt 0.034330 0.886129
vt 0.054696 0.877868
vt 0.056738 0.792842
vt 0.053370 0.823326
vt 0.249164 0.987094
vt 0.281334 0.959020
vt 0.277793 0.989319
vt 0.282517 0.928537
vt 0.553370 0.645424
vt 0.556738 0.675908
vt 0.176625 0.855879
vt 0.171583 0.886362
vt 0.180811 0.825105
vt 0.073375 0.908011
vt 0.056439 0.877528
vt 0.078417 0.877528
vt 0.053070 0.847043
vt 0.081786 0.847043
vt 0.287586 0.993756
vt 0.281708 0.963822
vt 0.312416 0.959020
vt 0.315957 0.989319
vt 0.311233 0.928537
vt 0.168214 0.916846
vt 0.193561 0.886362
vt 0.196930 0.916846
vt 0.188519 0.855879
vt 0.084635 0.911840
vt 0.069189 0.938785
vt 0.099225 0.884605
vt 0.412153 0.718750
vt 0.408784 0.687500
vt 0.437500 0.687500
vt 0.434131 0.718750
vt 0.343403 0.956611
vt 0.344586 0.987094
vt 0.339862 0.926312
vt 0.505762 0.738408
vt 0.509130 0.707924
vt 0.531108 0.707924
vt 0.534477 0.738408
vt 0.195304 0.886022
vt 0.199540 0.851409
vt 0.215670 0.877761
vt 0.094063 0.919092
vt 0.070763 0.939628
vt 0.116645 0.898005
vt 0.413794 1.000000
vt 0.397756 0.973858
vt 0.423733 0.961621
vt 0.433677 0.990634
vt 0.173227 0.750000
vt 0.172044 0.718750
vt 0.203125 0.718750
vt 0.201942 0.750000
vt 0.368233 0.921875
vt 0.374111 0.951809
vt 0.552556 0.703125
vt 0.562500 0.732138
vt 0.217158 0.876791
vt 0.208073 0.843123
vt 0.232926 0.861480
vt 0.100652 0.928994
vt 0.071981 0.940932
vt 0.128822 0.916302
vt 0.451756 0.955351
vt 0.455125 0.985835
vt 0.272601 0.889208
vt 0.273784 0.858726
vt 0.304772 0.861134
vt 0.301231 0.891434
vt 0.277325 0.828426
vt 0.305955 0.830651
vt 0.283046 0.798294
vt 0.304958 0.799998
vt 0.233939 0.860022
vt 0.212866 0.832238
vt 0.242796 0.839907
vt 0.103703 0.940489
vt 0.072715 0.942560
vt 0.134459 0.937545
vt 0.480472 0.955351
vt 0.477103 0.985835
vt 0.311024 0.895870
vt 0.305145 0.865936
vt 0.335853 0.861134
vt 0.339394 0.891434
vt 0.334670 0.830651
vt 0.306246 0.826572
vt 0.313912 0.796875
vt 0.335667 0.799998
vt 0.243187 0.838175
vt 0.213216 0.820349
vt 0.243834 0.816207
vt 0.102889 0.952355
vt 0.072885 0.944337
vt 0.132956 0.959471
vt 0.508494 0.961621
vt 0.498551 0.990634
vt 0.366841 0.858726
vt 0.368024 0.889208
vt 0.363300 0.828426
vt 0.357579 0.798294
vt 0.243546 0.814454
vt 0.209072 0.809201
vt 0.235888 0.793853
vt 0.098298 0.963327
vt 0.072474 0.946074
vt 0.124472 0.979746
vt 0.314868 0.671875
vt 0.298829 0.645733
vt 0.324807 0.633496
vt 0.334751 0.662509
vt 0.157433 1.000000
vt 0.156250 0.968750
vt 0.187331 0.968750
vt 0.186148 1.000000
vt 0.235264 0.717434
vt 0.241142 0.687500
vt 0.269513 0.691937
vt 0.265972 0.722236
vt 0.142579 0.651835
vt 0.158618 0.625693
vt 0.178501 0.635059
vt 0.168557 0.664072
vt 0.234962 0.792338
vt 0.201042 0.800428
vt 0.220122 0.776126
vt 0.082837 0.965459
vt 0.071571 0.969273
vt 0.109911 0.996208
vt 0.090418 0.972236
vt 0.352830 0.627226
vt 0.356198 0.657710
vt 0.264789 0.752719
vt 0.296959 0.724645
vt 0.293418 0.754944
vt 0.298142 0.694162
vt 0.199948 0.639858
vt 0.196580 0.670342
vt 0.218694 0.775070
vt 0.190302 0.795316
vt 0.198849 0.765625
vt 0.074811 1.000000
vt 0.052871 0.998707
vt 0.303211 0.759381
vt 0.297333 0.729447
vt 0.204991 0.609375
vt 0.216884 0.609375
vn 0.0775 0.9178 0.3895
vn 0.2206 0.9178 0.3302
vn 0.0000 1.0000 0.0000
vn 0.1390 0.7015 0.6990
vn 0.3960 0.7015 0.5926
vn 0.1805 0.3800 0.9072
vn 0.5139 0.3800 0.7691
vn 0.1951 0.0000 0.9808
vn 0.5556 0.0000 0.8315
vn 0.1805 -0.3800 0.9072
vn 0.5139 -0.3800 0.7691
vn 0.1390 -0.7015 0.6990
vn 0.3960 -0.7015 0.5926
vn 0.0775 -0.9178 0.3895
vn 0.2206 -0.9178 0.3302
vn 0.0000 -1.0000 0.0000
vn 0.3302 0.9178 0.2206
vn 0.5926 0.7015 0.3960
vn 0.7691 0.3800 0.5139
vn 0.8315 0.0000 0.5556
vn 0.7691 -0.3800 0.5139
vn 0.5926 -0.7015 0.3960
vn 0.3302 -0.9178 0.2206
vn 0.3895 0.9178 0.0775
vn 0.6990 0.7015 0.1390
vn 0.9072 0.3800 0.1805
vn 0.9808 0.0000 0.1951
vn 0.9072 -0.3800 0.1805
vn 0.6990 -0.7015 0.1390
vn 0.3895 -0.9178 0.0775
vn 0.3895 0.9178 -0.0775
vn 0.6990 0.7015 -0.1390
vn 0.9072 0.3800 -0.1805
vn 0.9808 -0.0000 -0.1951
vn 0.9072 -0.3800 -0.1805
vn 0.6990 -0.7015 -0.1390
vn 0.3895 -0.9178 -0.0775
vn 0.3302 0.9178 -0.2206
vn 0.5926 0.7015 -0.3960
vn 0.7691 0.3800 -0.5139
vn 0.8315 -0.0000 -0.5556
vn 0.7691 -0.3800 -0.5139
vn 0.5926 -0.7015 -0.3960
vn 0.3302 -0.9178 -0.2206
vn 0.2206 0.9178 -0.3302
vn 0.3960 0.7015 -0.5926
vn 0.5139 0.3800 -0.7691
vn 0.5556 -0.0000 -0.8315
vn 0.5139 -0.3800 -0.7691
vn 0.3960 -0.7015 -0.5926
vn 0.2206 -0.9178 -0.3302
vn 0.0775 0.9178 -0.3895
vn 0.1390 0.7015 -0.6990
vn 0.1805 0.3800 -0.9072
vn 0.1951 -0.0000 -0.9808
vn 0.1805 -0.3800 -0.9072
vn 0.1390 -0.7015 -0.6990
vn 0.0775 -0.9178 -0.3895
vn -0.0775 0.9178 -0.3895
vn -0.1390 0.7015 -0.6990
vn -0.1805 0.3800 -0.9072
vn -0.1951 -0.0000 -0.9808
vn -0.1805 -0.3800 -0.9072
vn -0.1390 -0.7015 -0.6990
vn -0.0775 -0.9178 -0.3895
vn -0.2206 0.9178 -0.3302
vn -0.3960 0.7015 -0.5926
vn -0.5139 0.3800 -0.7691
vn -0.5556 -0.0000 -0.8315
vn -0.5139 -0.3800 -0.7691
vn -0.3960 -0.7015 -0.5926
vn -0.2206 -0.9178 -0.3302
vn -0.3302 0.9178 -0.2206
vn -0.5926 0.7015 -0.3960
vn -0.7691 0.3800 -0.5139
vn -0.8315 -0.0000 -0.5556
vn -0.7691 -0.3800 -0.5139
vn -0.5926 -0.7015 -0.3960
vn -0.3302 -0.9178 -0.2206
vn -0.3895 0.9178 -0.0775
vn -0.6990 0.7015 -0.1390
vn -0.9072 0.3800 -0.1805
vn -0.9808 -0.0000 -0.1951
vn -0.9072 -0.3800 -0.1805
vn -0.6990 -0.7015 -0.1390
vn -0.3895 -0.9178 -0.0775
vn -0.3895 0.9178 0.0775
vn -0.6990 0.7015 0.1390
vn -0.9072 0.3800 0.1805
vn -0.9808 -0.0000 0.1951
vn -0.9072 -0.3800 0.1805
vn -0.6990 -0.7015 0.1390
vn -0.3895 -0.9178 0.0775
vn -0.3302 0.9178 0.2206
vn -0.5926 0.7015 0.3960
vn -0.7691 0.3800 0.5139
vn -0.8315 0.0000 0.5556
vn -0.7691 -0.3800 0.5139
vn -0.5926 -0.7015 0.3960
vn -0.3302 -0.9178 0.2206
vn -0.2206 0.9178 0.3302
vn -0.3960 0.7015 0.5926
vn -0.5139 0.3800 0.7691
vn -0.5556 0.0000 0.8315
vn -0.5139 -0.3800 0.7691
vn -0.3960 -0.7015 0.5926
vn -0.2206 -0.9178 0.3302
vn -0.0775 0.9178 0.3895
vn -0.1390 0.7015 0.6990
vn -0.1805 0.3800 0.9072
vn -0.1951 0.0000 0.9808
vn -0.1805 -0.3800 0.9072
vn -0.1390 -0.7015 0.6990
vn -0.0775 -0.9178 0.3895
usemtl m_0353a6df-d48f-bd92-f39f-7b4ee9071c99
s 1
f 43/121/41 50/122/42 42/123/43
f 43/121/41 44/124/44 51/125/45 50/122/42
f 44/126/44 45/127/46 52/128/47 51/129/45
f 45/130/46 46/131/48 53/132/49 52/133/47
f 46/131/48 47/134/50 54/135/51 53/132/49
f 47/136/50 48/137/52 55/138/53 54/139/51
f 48/140/52 49/141/54 56/142/55 55/143/53
f 56/144/55 49/145/54 41/146/56
f 50/122/42 57/147/57 42/123/43
f 50/122/42 51/148/45 58/149/58 57/147/57
f 51/129/45 52/128/47 59/150/59 58/151/58
f 52/152/47 53/153/49 60/154/60 59/155/59
f 53/132/49 54/135/51 61/156/61 60/157/60
f 54/139/51 55/138/53 62/158/62 61/159/61
f 55/143/53 56/142/55 63/160/63 62/161/62
f 63/160/63 56/142/55 41/162/56
f 57/147/57 64/163/64 42/123/43
f 57/147/57 58/164/58 65/165/65 64/163/64
f 58/166/58 59/155/59 66/167/66 65/168/65
f 59/155/59 60/154/60 67/169/67 66/167/66
f 60/170/60 61/171/61 68/172/68 67/173/67
f 61/171/61 62/174/62 69/175/69 68/172/68
f 62/161/62 63/160/63 70/176/70 69/177/69
f 70/176/70 63/160/63 41/178/56
f 64/163/64 71/179/71 42/123/43
f 64/163/64 65/180/65 72/181/72 71/179/71
f 65/182/65 66/183/66 73/184/73 72/185/72
f 66/167/66 67/169/67 74/186/74 73/184/73
f 67/173/67 68/172/68 75/187/75 74/188/74
f 68/189/68 69/190/69 76/191/76 75/187/75
f 69/177/69 70/176/70 77/192/77 76/193/76
f 77/192/77 70/176/70 41/194/56
f 71/179/71 78/195/78 42/123/43
f 71/179/71 72/196/72 79/197/79 78/195/78
f 72/185/72 73/184/73 80/198/80 79/199/79
f 73/184/73 74/186/74 81/200/81 80/198/80
f 74/188/74 75/187/75 82/201/82 81/202/81
f 75/187/75 76/191/76 83/203/83 82/201/82
f 76/193/76 77/192/77 84/204/84 83/205/83
f 84/204/84 77/192/77 41/206/56
f 78/195/78 85/207/85 42/123/43
f 78/195/78 79/208/79 86/209/86 85/207/85
f 79/210/79 80/211/80 87/212/87 86/213/86
f 80/198/80 81/200/81 88/214/88 87/215/87
f 81/216/81 82/217/82 89/218/89 88/219/88
f 82/220/82 83/221/83 90/222/90 89/223/89
f 83/205/83 84/204/84 91/224/91 90/225/90
f 91/224/91 84/204/84 41/226/56
f 85/207/85 92/227/92 42/123/43
f 85/207/85 86/228/86 93/229/93 92/227/92
f 86/213/86 87/212/87 94/230/94 93/231/93
f 87/232/87 88/219/88 95/233/95 94/234/94
f 88/219/88 89/218/89 96/235/96 95/233/95
f 89/223/89 90/222/90 97/236/97 96/237/96
f 90/225/90 91/224/91 98/238/98 97/239/97
f 98/238/98 91/224/91 41/240/56
f 92/227/92 99/241/99 42/123/43
f 92/227/92 93/242/93 100/243/100 99/241/99
f 93/242/93 94/244/94 101/245/101 100/243/100
f 94/246/94 95/247/95 102/248/102 101/249/101
f 95/233/95 96/235/96 103/250/103 102/248/102
f 96/251/96 97/239/97 104/252/104 103/253/103
f 97/239/97 98/238/98 105/254/105 104/252/104
f 105/254/105 98/238/98 41/146/56
f 99/241/99 106/255/106 42/256/43
f 99/241/99 100/243/100 107/257/107 106/255/106
f 100/258/100 101/259/101 108/260/108 107/261/107
f 101/249/101 102/248/102 109/262/109 108/263/108
f 102/248/102 103/250/103 110/264/110 109/262/109
f 103/265/103 104/266/104 111/267/111 110/268/110
f 104/269/104 105/254/105 112/270/112 111/271/111
f 112/270/112 105/254/105 41/146/56
f 106/255/106 113/272/113 42/273/43
f 106/255/106 107/257/107 114/274/114 113/272/113
f 107/275/107 108/276/108 115/277/115 114/278/114
f 108/279/108 109/280/109 116/281/116 115/282/115
f 109/262/109 110/264/110 117/283/117 116/284/116
f 110/268/110 111/267/111 118/285/118 117/286/117
f 111/287/111 112/270/112 119/288/119 118/289/118
f 119/288/119 112/270/112 41/146/56
f 113/272/113 120/290/120 42/291/43
f 113/272/113 114/274/114 121/292/121 120/290/120
f 114/278/114 115/277/115 122/293/122 121/294/121
f 115/295/115 116/296/116 123/297/123 122/298/122
f 116/296/116 117/299/117 124/300/124 123/297/123
f 117/299/117 118/301/118 125/302/125 124/300/124
f 118/303/118 119/288/119 126/304/126 125/305/125
f 126/304/126 119/288/119 41/146/56
f 120/290/120 127/306/127 42/307/43
f 120/290/120 121/292/121 128/308/128 127/306/127
f 121/294/121 122/293/122 129/309/129 128/310/128
f 122/311/122 123/312/123 130/313/130 129/314/129
f 123/297/123 124/300/124 131/315/131 130/313/130
f 124/316/124 125/317/125 132/318/132 131/315/131
f 125/319/125 126/304/126 133/320/133 132/321/132
f 133/320/133 126/304/126 41/146/56
f 127/306/127 134/322/134 42/323/43
f 127/306/127 128/308/128 135/324/135 134/322/134
f 128/310/128 129/309/129 136/325/136 135/326/135
f 129/314/129 130/313/130 137/327/137 136/328/136
f 130/313/130 131/315/131 138/329/138 137/327/137
f 131/315/131 132/318/132 139/330/139 138/329/138
f 132/331/132 133/320/133 140/332/140 139/333/139
f 140/332/140 133/320/133 41/146/56
f 134/322/134 141/334/141 42/335/43
f 134/322/134 135/324/135 142/336/142 141/334/141
f 135/337/135 136/338/136 143/339/143 142/340/142
f 136/341/136 137/342/137 144/343/144 143/344/143
f 137/345/137 138/346/138 145/347/145 144/348/144
f 138/349/138 139/350/139 146/351/146 145/352/145
f 139/353/139 140/332/140 147/354/147 146/355/146
f 147/354/147 140/332/140 41/146/56
f 141/356/141 148/357/148 42/123/43
f 141/334/141 142/336/142 149/358/149 148/359/148
f 142/340/142 143/339/143 150/360/150 149/361/149
f 143/362/143 144/348/144 151/363/151 150/364/150
f 144/348/144 145/347/145 152/365/152 151/363/151
f 145/352/145 146/351/146 153/366/153 152/367/152
f 146/368/146 147/354/147 154/369/154 153/370/153
f 154/369/154 147/354/147 41/146/56
f 148/357/148 43/121/41 42/123/43
f 148/357/148 149/371/149 44/372/44 43/121/41
f 149/361/149 150/360/150 45/127/46 44/126/44
f 150/373/150 151/374/151 46/131/48 45/130/46
f 151/363/151 152/365/152 47/134/50 46/131/48
f 152/367/152 153/366/153 48/137/52 47/136/50
f 153/366/153 154/375/154 49/376/54 48/137/52
f 49/145/54 154/369/154 41/146/56
