# Made in Blockbench 4.8.1
mtllib cavewall.mtl

o cuboid
v 0.5 2 0.5
v 0.5 2 -0.5
v 0.5 0 0.5
v 0.5 0 -0.5
v -0.5 2 0.5
v -0.5 2 -0.5
v -0.5 0 0.5
v -0.5 0 -0.5
vt 0.125 1
vt 0 1
vt 0 0.75
vt 0.125 0.75
vt 0.2578125 0.75
vt 0.2578125 1
vt 0.1328125 1
vt 0.1328125 0.75
vt 0.265625 0.875
vt 0.390625 0.875
vt 0.390625 1
vt 0.265625 1
vt 0.390625 0.7421875
vt 0.390625 0.8671875
vt 0.265625 0.8671875
vt 0.265625 0.7421875
vt 0.125 0.4921875
vt 0.125 0.7421875
vt 0 0.7421875
vt 0 0.4921875
vt 0.2578125 0.7421875
vt 0.1328125 0.7421875
vt 0.1328125 0.4921875
vt 0.2578125 0.4921875
vn 1 0 0
vn -1 0 0
vn 0 1 0
vn 0 -1 0
vn 0 0 1
vn 0 0 -1
usemtl m_64a7f2e0-b0a5-2609-9ba5-6ab14bfd4037
f 2/1/1 1/2/1 3/3/1 4/4/1
f 7/5/2 5/6/2 6/7/2 8/8/2
f 5/9/3 1/10/3 2/11/3 6/12/3
f 4/13/4 3/14/4 7/15/4 8/16/4
f 3/17/5 1/18/5 5/19/5 7/20/5
f 6/21/6 2/22/6 4/23/6 8/24/6