# Made in Blockbench 4.8.1
mtllib entrance.mtl

o cuboid
v 0.5 0.125 0.5
v 0.5 0.125 -0.5
v 0.5 0 0.5
v 0.5 0 -0.5
v -0.5 0.125 0.5
v -0.5 0.125 -0.5
v -0.5 0 0.5
v -0.5 0 -0.5
vt 0.78125 0.859375
vt 0.53125 0.859375
vt 0.53125 0.828125
vt 0.78125 0.828125
vt 0.78125 0.78125
vt 0.78125 0.8125
vt 0.53125 0.8125
vt 0.53125 0.78125
vt 0.265625 0.75
vt 0.515625 0.75
vt 0.515625 1
vt 0.265625 1
vt 0.515625 0.484375
vt 0.515625 0.734375
vt 0.265625 0.734375
vt 0.265625 0.484375
vt 0.78125 0.734375
vt 0.78125 0.765625
vt 0.53125 0.765625
vt 0.53125 0.734375
vt 0.515625 0.46875
vt 0.265625 0.46875
vt 0.265625 0.4375
vt 0.515625 0.4375
vn 1 0 0
vn -1 0 0
vn 0 1 0
vn 0 -1 0
vn 0 0 1
vn 0 0 -1
usemtl m_8b6eaae0-229b-b849-260e-f7ab28bb65e6
f 2/1/1 1/2/1 3/3/1 4/4/1
f 7/5/2 5/6/2 6/7/2 8/8/2
f 5/9/3 1/10/3 2/11/3 6/12/3
f 4/13/4 3/14/4 7/15/4 8/16/4
f 3/17/5 1/18/5 5/19/5 7/20/5
f 6/21/6 2/22/6 4/23/6 8/24/6
o cuboid
v 0.5991691675364045 0.048904821373909946 0.5
v 0.5991691675364045 0.048904821373909946 -0.5
v 0.5 0.125 0.5
v 0.5 0.125 -0.5
v 1.207930596545125 0.8422581616651454 0.5
v 1.207930596545125 0.8422581616651454 -0.5
v 1.1087614290087204 0.9183533402912355 0.5
v 1.1087614290087204 0.9183533402912355 -0.5
vt 0.25 0.46875
vt 0 0.46875
vt 0 0.4375
vt 0.25 0.4375
vt 0.78125 0.96875
vt 0.78125 1
vt 0.53125 1
vt 0.53125 0.96875
vt 0 0.75
vt 0.25 0.75
vt 0.25 1
vt 0 1
vt 0.25 0.484375
vt 0.25 0.734375
vt 0 0.734375
vt 0 0.484375
vt 0.78125 0.921875
vt 0.78125 0.953125
vt 0.53125 0.953125
vt 0.53125 0.921875
vt 0.78125 0.90625
vt 0.53125 0.90625
vt 0.53125 0.875
vt 0.78125 0.875
vn -0.6087614290087204 -0.7933533402912355 0
vn 0.6087614290087204 0.7933533402912355 0
vn 0.7933533402912355 -0.6087614290087204 0
vn -0.7933533402912355 0.6087614290087204 0
vn 0 0 1
vn 0 0 -1
usemtl m_8b6eaae0-229b-b849-260e-f7ab28bb65e6
f 10/25/7 9/26/7 11/27/7 12/28/7
f 15/29/8 13/30/8 14/31/8 16/32/8
f 13/33/9 9/34/9 10/35/9 14/36/9
f 12/37/10 11/38/10 15/39/10 16/40/10
f 11/41/11 9/42/11 13/43/11 15/44/11
f 14/45/12 10/46/12 12/47/12 16/48/12