# Made in Blockbench 4.8.2
mtllib fertilizer.mtl

o cuboid
v 0.37499999999999717 0.7857864955912826 0.38750701613800603
v 0.37499999999999717 0.7857864955912826 0.38750701613800603
v 0.37499999999999717 0.17702506658256628 -0.405846324153223
v 0.37499999999999717 0.17702506658256628 -0.405846324153223
v -0.37499999999999717 0.7857864955912826 0.38750701613800603
v -0.37499999999999717 0.7857864955912826 0.38750701613800603
v -0.37499999999999717 0.17702506658256628 -0.405846324153223
v -0.37499999999999717 0.17702506658256628 -0.405846324153223
v -0.37499999999999717 0.7979897446978692 0.198075646041741
v -0.37499999999999717 0.6492359933932639 0.31221841398087585
v -0.37499999999999717 0.7606084100362553 0.046691865258520766
v -0.37499999999999717 0.5126854911952454 0.23692981182374503
v -0.37499999999999717 0.673642491606438 -0.06664432621165467
v -0.37499999999999717 0.42571957276542904 0.12359362035356877
v -0.37499999999999717 0.5866765731766219 -0.1799805176818306
v -0.37499999999999717 0.33875365433561244 0.01025742888339342
v -0.37499999999999717 0.4997106547468052 -0.29331670915200597
v -0.37499999999999717 0.25178773590579606 -0.103078762586782
v -0.37499999999999717 0.36316015254878636 -0.36860531130913704
v -0.37499999999999717 0.21440640124418142 -0.254462543370003
v 0.37499999999999717 0.6492359933932639 0.31221841398087585
v 0.37499999999999717 0.5126854911952454 0.23692981182374503
v 0.37499999999999717 0.42571957276542904 0.12359362035356877
v 0.37499999999999717 0.33875365433561244 0.01025742888339342
v 0.37499999999999717 0.25178773590579606 -0.103078762586782
v 0.37499999999999717 0.21440640124418142 -0.254462543370003
v 0.37499999999999717 0.7979897446978692 0.198075646041741
v 0.37499999999999717 0.7606084100362553 0.046691865258520766
v 0.37499999999999717 0.673642491606438 -0.06664432621165467
v 0.37499999999999717 0.5866765731766219 -0.1799805176818306
v 0.37499999999999717 0.4997106547468052 -0.29331670915200597
v 0.37499999999999717 0.36316015254878636 -0.36860531130913704
vt 0.09954903152156236 0.65625
vt 0.13482596847843764 0.6722574872407794
vt 0.09954903152156236 0.703125
vt 0.09954903152156236 0.65625
vt 0.28125 0.46875
vt 0.296875 0.5044640625
vt 0.25 0.5044640625
vt 0.28125 0.46875
vt 0.25 1
vt 0.25 1
vt 0 1
vt 0 1
vt 0.25 1
vt 0 1
vt 0.25 1
vt 0 1
vt 0.515625 0.736925
vt 0.515625 0.7759078125000001
vt 0.265625 0.7759078125000001
vt 0.265625 0.736925
vt 0.25 0.7199781249999999
vt 0.25 0.7674343749999999
vt 0 0.7674343749999999
vt 0 0.7199781249999999
vt 0.28125 0.71875
vt 0.25 0.6830359375
vt 0.296875 0.6830359375
vt 0.28125 0.71875
vt 0.25 0.6830359375
vt 0.234375 0.647321875
vt 0.3125 0.647321875
vt 0.296875 0.6830359375
vt 0.234375 0.647321875
vt 0.234375 0.6116078125
vt 0.3125 0.6116078125
vt 0.3125 0.647321875
vt 0.234375 0.6116078125
vt 0.234375 0.5758921875
vt 0.3125 0.5758921875
vt 0.3125 0.6116078125
vt 0.234375 0.5758921875
vt 0.234375 0.540178125
vt 0.3125 0.540178125
vt 0.3125 0.5758921875
vt 0.234375 0.540178125
vt 0.25 0.5044640625
vt 0.296875 0.5044640625
vt 0.3125 0.540178125
vt 0.265625 1
vt 0.265625 0.9610171875
vt 0.515625 0.9610171875
vt 0.515625 1
vt 0.265625 0.9610171875
vt 0.265625 0.922034375
vt 0.515625 0.922034375
vt 0.515625 0.9610171875
vt 0.265625 0.922034375
vt 0.265625 0.8863203125
vt 0.515625 0.8863203125
vt 0.515625 0.922034375
vt 0.265625 0.8863203125
vt 0.265625 0.8506046875
vt 0.515625 0.8506046875
vt 0.515625 0.8863203125
vt 0.265625 0.8506046875
vt 0.265625 0.8148906250000001
vt 0.515625 0.8148906250000001
vt 0.515625 0.8506046875
vt 0.265625 0.8148906250000001
vt 0.265625 0.7759078125000001
vt 0.515625 0.7759078125000001
vt 0.515625 0.8148906250000001
vt 0.03125 0.703125
vt 0.0625 0.6674109375
vt 0.015625 0.6674109375
vt 0.03125 0.703125
vt 0.015625 0.6674109375
vt 0 0.631696875
vt 0.078125 0.631696875
vt 0.0625 0.6674109375
vt 0 0.631696875
vt 0 0.5959828125
vt 0.078125 0.5959828125
vt 0.078125 0.631696875
vt 0 0.5959828125
vt 0 0.5602671875
vt 0.078125 0.5602671875
vt 0.078125 0.5959828125
vt 0 0.5602671875
vt 0 0.524553125
vt 0.078125 0.524553125
vt 0.078125 0.5602671875
vt 0 0.524553125
vt 0.015625 0.4888390625
vt 0.0625 0.4888390625
vt 0.078125 0.524553125
vt 0 1
vt 0 0.95254375
vt 0.25 0.95254375
vt 0.25 1
vt 0 0.95254375
vt 0 0.9135609375
vt 0.25 0.9135609375
vt 0.25 0.95254375
vt 0 0.9135609375
vt 0 0.8778468749999999
vt 0.25 0.8778468749999999
vt 0.25 0.9135609375
vt 0 0.8778468749999999
vt 0 0.84213125
vt 0.25 0.84213125
vt 0.25 0.8778468749999999
vt 0 0.84213125
vt 0 0.8064171874999999
vt 0.25 0.8064171874999999
vt 0.25 0.84213125
vt 0 0.8064171874999999
vt 0 0.7674343749999999
vt 0.25 0.7674343749999999
vt 0.25 0.8064171874999999
vn -1 0 0
vn -1 0 0
vn 0 0 0
vn 0 0 0
vn 0 -0.9708395280484134 0.23973028757070727
vn 0 0.196187028476172 -0.9805664943580777
vn -1 0 0
vn -1 0 0
vn -1 0 0
vn -1 0 0
vn -1 0 0
vn -1 0 0
vn 0 -0.4828334357055171 0.8757122092130533
vn 0 -0.48283343570552084 0.8757122092130512
vn 0 -0.7933533402912377 0.6087614290087177
vn 0 -0.7933533402912344 0.6087614290087217
vn 0 -0.7933533402912354 0.6087614290087203
vn 0 -0.9708395280484146 0.23973028757070275
vn -1 0 0
vn 1 0 0
vn 1 0 0
vn 1 0 0
vn 1 0 0
vn 1 0 0
vn 0 0.9979314406659051 0.06428716614123803
vn 0 0.9708395280484153 -0.2397302875706992
vn 0 0.7933533402912321 -0.6087614290087248
vn 0 0.7933533402912378 -0.6087614290087172
vn 0 0.7933533402912342 -0.608761429008722
vn 0 0.48283343570552106 -0.8757122092130512
usemtl m_27e28367-c981-b14d-5140-0b7c6d707c37
f 4/1/1 26/2/1 32/3/1 3/4/1
f 7/5/2 20/6/2 19/7/2 8/8/2
f 1/9/3 2/10/3 5/11/3 6/12/3
f 3/13/4 7/14/4 4/15/4 8/16/4
f 3/17/5 26/18/5 20/19/5 7/20/5
f 8/21/6 19/22/6 32/23/6 4/24/6
f 6/25/7 9/26/7 10/27/7 5/28/7
f 9/29/8 11/30/8 12/31/8 10/32/8
f 11/33/9 13/34/9 14/35/9 12/36/9
f 13/37/10 15/38/10 16/39/10 14/40/10
f 15/41/11 17/42/11 18/43/11 16/44/11
f 17/45/12 19/46/12 20/47/12 18/48/12
f 5/49/13 10/50/13 21/51/13 1/52/13
f 10/53/14 12/54/14 22/55/14 21/56/14
f 12/57/15 14/58/15 23/59/15 22/60/15
f 14/61/16 16/62/16 24/63/16 23/64/16
f 16/65/17 18/66/17 25/67/17 24/68/17
f 18/69/18 20/70/18 26/71/18 25/72/18
f 1/73/19 27/74/19 21/75/19 2/76/19
f 21/77/20 22/78/20 28/79/20 27/80/20
f 22/81/21 23/82/21 29/83/21 28/84/21
f 23/85/22 24/86/22 30/87/22 29/88/22
f 24/89/23 25/90/23 31/91/23 30/92/23
f 25/93/24 26/94/24 32/95/24 31/96/24
f 2/97/25 27/98/25 9/99/25 6/100/25
f 27/101/26 28/102/26 11/103/26 9/104/26
f 28/105/27 29/106/27 13/107/27 11/108/27
f 29/109/28 30/110/28 15/111/28 13/112/28
f 30/113/29 31/114/29 17/115/29 15/116/29
f 31/117/30 32/118/30 19/119/30 17/120/30