# Made in Blockbench 4.8.1
mtllib fire.mtl

o cuboid
v 0.27777777777777773 0.27777777777777796 -0.9027777777777777
v 0.27777777777777773 -0.2777777777777775 -0.9027777777777779
v 0.27777777777777773 0.2777777777777778 -0.22222222222222215
v 0.27777777777777773 -0.2777777777777777 -0.22222222222222227
v -0.27777777777777773 0.2777777777777779 -0.8402777777777777
v -0.27777777777777773 -0.2777777777777775 -0.9027777777777779
v -0.27777777777777773 0.2777777777777778 -0.22222222222222215
v -0.27777777777777773 -0.2777777777777777 -0.22222222222222227
v 0.5 1.1102230246251565e-16 -0.5
v -0.5 1.1102230246251565e-16 -0.5
v 0 3.608224830031759e-16 -1.625
v 0 0 0
v 0 0.5000000000000001 -0.4999999999999999
v 0 -0.4999999999999999 -0.5000000000000001
v 0.375 2.498001805406602e-16 -1.125
v 0.375 0.3750000000000001 -0.4999999999999999
v 0.375 2.7755575615628914e-17 -0.125
v 0.375 -0.3749999999999999 -0.5000000000000001
v -0.375 0.3750000000000001 -0.4999999999999999
v -0.375 2.3592239273284576e-16 -1.0625
v -0.375 -0.3749999999999999 -0.5000000000000001
v -0.375 2.7755575615628914e-17 -0.125
v 0 0.3750000000000002 -1.125
v 0 -0.3749999999999998 -1.0625
v 0 0.375 -0.12499999999999992
v 0 -0.375 -0.12500000000000008
vt 0.0952234375 0.6898279908616332
vt 0.08863125 0.7960233033616331
vt 0.017448437499999997 0.8546139283616331
vt 0 0.6982217408616331
vt 0.5294265625 0.510011132105761
vt 0.45824375 0.45142050710576087
vt 0.4516515625 0.34522519460576095
vt 0.546875 0.35361894460576093
vt 0.621390625 0.6553911968830727
vt 0.6312671875 0.5785365093830727
vt 0.703934375 0.5516380718830727
vt 0.71875 0.6481365093830727
vt 0.327315625 0.8953882623187616
vt 0.3999828125 0.9222866998187615
vt 0.409859375 0.9991413873187616
vt 0.3125 0.9918866998187615
vt 0.483565625 0.7391382623187616
vt 0.5562328125 0.7660366998187615
vt 0.566109375 0.8428913873187616
vt 0.46875 0.8356366998187615
vt 0.09375 0.3612633750227766
vt 0.0888890625 0.4528868125227766
vt 0.018749999999999996 0.5127211875227766
vt 0 0.37286962502277665
vt 0.359575 0.6851604034009682
vt 0.2871828125 0.6431229034009681
vt 0.2780421875 0.5371166534009681
vt 0.375 0.5430869659009682
vt 0.668265625 0.4522661968830727
vt 0.6781421875 0.37541150938307266
vt 0.750809375 0.3485130718830727
vt 0.765625 0.44501150938307266
vt 0.018750037311314367 0.5127211556931641
vt 0.0888890625 0.4528868125227766
vt 0.1504294258152148 0.5346967887982139
vt 0.07562240303904483 0.671875
vt 0.3972662904639446 0.5205681367433626
vt 0.4582445958572434 0.4514212033314763
vt 0.5294265625 0.510011132105761
vt 0.4746063853952829 0.65625
vt 0.017448594227313263 0.854613799359267
vt 0.08863125 0.7960233033616331
vt 0.15092247479800913 0.8519492008374572
vt 0.07156784902551505 1
vt 0.22812606050636824 0.7024509834248438
vt 0.28718387989655003 0.6431235232286597
vt 0.359575 0.6851604034009682
vt 0.31357396082748934 0.84375
vt 0.45751821761985106 0.8703868078284404
vt 0.3999822980304918 0.9222865093830727
vt 0.327315625 0.8953882623187616
vt 0.3789011324195573 0.8125
vt 0.7039338605304918 0.5516382623187616
vt 0.6312671875 0.5785365093830727
vt 0.5737312679106408 0.5266368078284404
vt 0.6523483531109344 0.46875
vt 0.6137682176198511 0.7141368078284404
vt 0.5562322980304918 0.7660365093830727
vt 0.483565625 0.7391382623187616
vt 0.5351511324195573 0.65625
vt 0.7508088605304918 0.34851326231876156
vt 0.6781421875 0.37541150938307266
vt 0.6206062679106408 0.32351180782844036
vt 0.6992233531109344 0.265625
vt 0.5677622558775905 0.5341386520165886
vt 0.6312671875 0.5785365093830728
vt 0.621390625 0.6553911968830727
vt 0.5290290299811489 0.6237555499529558
vt 0.4516515625 0.34522519460576095
vt 0.45824375 0.45142050710576087
vt 0.39485365719538623 0.5183648890024013
vt 0.3581972849324484 0.3653313153829256
vt 0.15102235580163897 0.5342447933079948
vt 0.08888915765910697 0.4528850188760797
vt 0.09375 0.3612633750227766
vt 0.1828563242715049 0.38257027170914215
vt 0.566109375 0.8428913873187616
vt 0.5562328125 0.7660366998187615
vt 0.6197377441224095 0.7216388424522775
vt 0.6584709700188511 0.8112557403886447
vt 0.2780421875 0.5371166534009681
vt 0.2871828125 0.6431229034009681
vt 0.2230552220630413 0.6969321253060917
vt 0.18353753123067976 0.5595962436897265
vt 0.15403261550248437 0.8482768217531697
vt 0.08863125735697354 0.7960231848461775
vt 0.0952234375 0.6898279908616332
vt 0.19024069887601625 0.7100315073064161
vt 0.409859375 0.9991413873187616
vt 0.3999828125 0.9222866998187615
vt 0.46348774412240945 0.8778888424522775
vt 0.5022209700188511 0.9675057403886447
vt 0.6146372558775905 0.3310136520165886
vt 0.6781421875 0.37541150938307266
vt 0.668265625 0.4522661968830727
vt 0.5759040299811489 0.4206305499529558
vn 0.7866157270608671 -0.5294528932140453 -0.31767173592842735
vn 0.786615727060867 0.5294528932140457 -0.3176717359284272
vn 0.795587079770736 0.42839304295347336 0.4283930429534736
vn 0.795587079770736 -0.4283930429534735 0.4283930429534733
vn -0.795587079770736 0.4283930429534733 0.4283930429534735
vn -0.7427813527082072 0.5570860145311559 -0.3713906763541037
vn -0.8261069192748469 -0.46887149472356204 -0.3125809964823748
vn -0.795587079770736 -0.4283930429534736 0.42839304295347336
vn -0.6680693283014582 0.5931994897849155 -0.44921903109925615
vn 0.6131213321914779 0.613121332191478 -0.49816108240557555
vn 0.540367811046145 -0.6327991471461432 -0.5545880165999908
vn -0.5523359223922854 -0.5523359223922852 -0.6243797383564965
vn 0.4283930429534733 -0.42839304295347347 0.795587079770736
vn 0.4283930429534733 0.42839304295347314 0.7955870797707362
vn -0.4283930429534733 0.42839304295347314 0.7955870797707362
vn -0.4283930429534733 -0.42839304295347347 0.795587079770736
vn 0.42839304295347336 0.7955870797707357 0.4283930429534735
vn 0.5294528932140454 0.7866157270608672 -0.31767173592842707
vn -0.6237828615518056 0.6861611477069857 -0.37426971693108324
vn -0.42839304295347336 0.7955870797707356 0.4283930429534735
vn -0.46887149472356204 -0.8261069192748468 -0.31258099648237486
vn 0.4688714947235621 -0.8261069192748468 -0.31258099648237486
vn 0.42839304295347336 -0.7955870797707358 0.4283930429534732
vn -0.42839304295347336 -0.795587079770736 0.4283930429534732
usemtl m_ad149f6f-83d2-1e57-e914-fc83e2d0bd37
f 18/1/1 2/2/1 15/3/1 9/4/1
f 15/5/2 1/6/2 16/7/2 9/8/2
f 16/9/3 3/10/3 17/11/3 9/12/3
f 17/13/4 4/14/4 18/15/4 9/16/4
f 22/17/5 7/18/5 19/19/5 10/20/5
f 19/21/6 5/22/6 20/23/6 10/24/6
f 20/25/7 6/26/7 21/27/7 10/28/7
f 21/29/8 8/30/8 22/31/8 10/32/8
f 20/33/9 5/34/9 23/35/9 11/36/9
f 23/37/10 1/38/10 15/39/10 11/40/10
f 15/41/11 2/42/11 24/43/11 11/44/11
f 24/45/12 6/46/12 20/47/12 11/48/12
f 26/49/13 4/50/13 17/51/13 12/52/13
f 17/53/14 3/54/14 25/55/14 12/56/14
f 25/57/15 7/58/15 22/59/15 12/60/15
f 22/61/16 8/62/16 26/63/16 12/64/16
f 25/65/17 3/66/17 16/67/17 13/68/17
f 16/69/18 1/70/18 23/71/18 13/72/18
f 23/73/19 5/74/19 19/75/19 13/76/19
f 19/77/20 7/78/20 25/79/20 13/80/20
f 21/81/21 6/82/21 24/83/21 14/84/21
f 24/85/22 2/86/22 18/87/22 14/88/22
f 18/89/23 4/90/23 26/91/23 14/92/23
f 26/93/24 8/94/24 21/95/24 14/96/24