# Made in Blockbench 4.8.1
mtllib glass.mtl

o cylinder
v -0.25 0.25 -0.24999999999999994
v -0.25 0.25 -0.31249999999999994
v -0.3002404735808355 0.0625 -0.25
v -0.3002404735808355 0.06250000000000001 -0.3125
v -0.3872595264191645 0.1127404735808355 -0.24999999999999997
v -0.3872595264191645 0.11274047358083551 -0.3125
v -0.4375 0.1997595264191645 -0.24999999999999994
v -0.4375 0.1997595264191645 -0.31249999999999994
v -0.4375 0.3002404735808355 -0.24999999999999994
v -0.4375 0.3002404735808355 -0.31249999999999994
v -0.3872595264191645 0.3872595264191645 -0.24999999999999992
v -0.3872595264191645 0.3872595264191645 -0.3124999999999999
v -0.30024047358083555 0.43749999999999994 -0.24999999999999992
v -0.30024047358083555 0.43749999999999994 -0.3124999999999999
v -0.19975952641916458 0.4375 -0.2499999999999999
v -0.19975952641916458 0.4375 -0.3124999999999999
v -0.11274047358083553 0.3872595264191645 -0.24999999999999992
v -0.11274047358083553 0.3872595264191645 -0.3124999999999999
v -0.06250000000000006 0.3002404735808355 -0.24999999999999994
v -0.06250000000000006 0.3002404735808355 -0.31249999999999994
v -0.0625 0.19975952641916458 -0.24999999999999994
v -0.0625 0.1997595264191646 -0.31249999999999994
v -0.1127404735808355 0.11274047358083553 -0.24999999999999997
v -0.1127404735808355 0.11274047358083554 -0.3125
v -0.19975952641916453 0.0625 -0.25
v -0.19975952641916453 0.06250000000000001 -0.3125
vt 0.16238125 0.97488125
vt 0.11886875 1
vt 0.09375 0.90625
vt 0.60324375 0.84375
vt 0.65348125 0.84375
vt 0.65348125 0.875
vt 0.60324375 0.875
vt 0.11886875 0.59375
vt 0.16238125 0.61886875
vt 0.09375 0.6875
vt 0.1875 0.93136875
vt 0.16238125 0.97488125
vt 0.09375 0.90625
vt 0.50276875 0.90625
vt 0.55300625 0.90625
vt 0.55300625 0.9375
vt 0.50276875 0.9375
vt 0.16238125 0.61886875
vt 0.1875 0.66238125
vt 0.09375 0.6875
vt 0.1875 0.88113125
vt 0.1875 0.93136875
vt 0.09375 0.90625
vt 0.55300625 0.90625
vt 0.60324375 0.90625
vt 0.60324375 0.9375
vt 0.55300625 0.9375
vt 0.1875 0.66238125
vt 0.1875 0.71261875
vt 0.09375 0.6875
vt 0.16238125 0.83761875
vt 0.1875 0.88113125
vt 0.09375 0.90625
vt 0.60324375 0.90625
vt 0.65348125 0.90625
vt 0.65348125 0.9375
vt 0.60324375 0.9375
vt 0.1875 0.71261875
vt 0.16238125 0.75613125
vt 0.09375 0.6875
vt 0.11886875 0.8125
vt 0.16238125 0.83761875
vt 0.09375 0.90625
vt 0.50276875 0.71875
vt 0.55300625 0.71875
vt 0.55300625 0.75
vt 0.50276875 0.75
vt 0.16238125 0.75613125
vt 0.11886875 0.78125
vt 0.09375 0.6875
vt 0.06863125 0.8125
vt 0.11886875 0.8125
vt 0.09375 0.90625
vt 0.55300625 0.71875
vt 0.60324375 0.71875
vt 0.60324375 0.75
vt 0.55300625 0.75
vt 0.11886875 0.78125
vt 0.06863125 0.78125
vt 0.09375 0.6875
vt 0.025118750000000002 0.83761875
vt 0.06863125 0.8125
vt 0.09375 0.90625
vt 0.60324375 0.71875
vt 0.65348125 0.71875
vt 0.65348125 0.75
vt 0.60324375 0.75
vt 0.06863125 0.78125
vt 0.025118750000000002 0.75613125
vt 0.09375 0.6875
vt 0 0.88113125
vt 0.025118750000000002 0.83761875
vt 0.09375 0.90625
vt 0.50276875 0.78125
vt 0.55300625 0.78125
vt 0.55300625 0.8125
vt 0.50276875 0.8125
vt 0.025118750000000002 0.75613125
vt 0 0.71261875
vt 0.09375 0.6875
vt 0 0.93136875
vt 0 0.88113125
vt 0.09375 0.90625
vt 0.55300625 0.78125
vt 0.60324375 0.78125
vt 0.60324375 0.8125
vt 0.55300625 0.8125
vt 0 0.71261875
vt 0 0.66238125
vt 0.09375 0.6875
vt 0.025118750000000002 0.97488125
vt 0 0.93136875
vt 0.09375 0.90625
vt 0.60324375 0.78125
vt 0.65348125 0.78125
vt 0.65348125 0.8125
vt 0.60324375 0.8125
vt 0 0.66238125
vt 0.025118750000000002 0.61886875
vt 0.09375 0.6875
vt 0.06863125 1
vt 0.025118750000000002 0.97488125
vt 0.09375 0.90625
vt 0.50276875 0.84375
vt 0.55300625 0.84375
vt 0.55300625 0.875
vt 0.50276875 0.875
vt 0.025118750000000002 0.61886875
vt 0.06863125 0.59375
vt 0.09375 0.6875
vt 0.11886875 1
vt 0.06863125 1
vt 0.09375 0.90625
vt 0.55300625 0.84375
vt 0.60324375 0.84375
vt 0.60324375 0.875
vt 0.55300625 0.875
vt 0.06863125 0.59375
vt 0.11886875 0.59375
vt 0.09375 0.6875
vn 0 -2.220446049250313e-16 1
vn -0.4999999999999999 -0.8660254037844387 -1.922962686383564e-16
vn 0 2.220446049250313e-16 -1
vn 0 -2.220446049250313e-16 1
vn -0.8660254037844387 -0.4999999999999999 -1.1102230246251563e-16
vn 0 2.220446049250313e-16 -1
vn 0 -2.220446049250313e-16 1
vn -1 0 0
vn 0 2.220446049250313e-16 -1
vn 0 -2.220446049250313e-16 1
vn -0.8660254037844387 0.4999999999999999 1.1102230246251563e-16
vn 0 2.220446049250313e-16 -1
vn 0 -2.220446049250313e-16 1
vn -0.49999999999999967 0.8660254037844388 1.9229626863835643e-16
vn 0 2.220446049250313e-16 -1
vn 0 -2.220446049250313e-16 1
vn -5.5245449808451715e-16 1 2.220446049250313e-16
vn 0 2.220446049250313e-16 -1
vn 0 -2.220446049250313e-16 1
vn 0.49999999999999967 0.8660254037844389 1.9229626863835646e-16
vn 0 2.220446049250313e-16 -1
vn 0 -2.220446049250313e-16 1
vn 0.8660254037844388 0.49999999999999967 1.1102230246251558e-16
vn 0 2.220446049250313e-16 -1
vn 0 -2.220446049250313e-16 1
vn 1 5.524544980845174e-16 1.2266954076623314e-31
vn 0 2.220446049250313e-16 -1
vn 0 -2.220446049250313e-16 1
vn 0.8660254037844389 -0.49999999999999967 -1.1102230246251558e-16
vn 0 2.220446049250313e-16 -1
vn 0 -2.220446049250313e-16 1
vn 0.49999999999999994 -0.8660254037844387 -1.922962686383564e-16
vn 0 2.220446049250313e-16 -1
vn 0 -2.220446049250313e-16 1
vn 0 -1 -2.220446049250313e-16
vn 0 2.220446049250313e-16 -1
usemtl m_023e0f78-2021-972d-6d1f-3f300f005d15
f 5/1/1 3/2/1 1/3/1
f 3/4/2 5/5/2 6/6/2 4/7/2
f 4/8/3 6/9/3 2/10/3
f 7/11/4 5/12/4 1/13/4
f 5/14/5 7/15/5 8/16/5 6/17/5
f 6/18/6 8/19/6 2/20/6
f 9/21/7 7/22/7 1/23/7
f 7/24/8 9/25/8 10/26/8 8/27/8
f 8/28/9 10/29/9 2/30/9
f 11/31/10 9/32/10 1/33/10
f 9/34/11 11/35/11 12/36/11 10/37/11
f 10/38/12 12/39/12 2/40/12
f 13/41/13 11/42/13 1/43/13
f 11/44/14 13/45/14 14/46/14 12/47/14
f 12/48/15 14/49/15 2/50/15
f 15/51/16 13/52/16 1/53/16
f 13/54/17 15/55/17 16/56/17 14/57/17
f 14/58/18 16/59/18 2/60/18
f 17/61/19 15/62/19 1/63/19
f 15/64/20 17/65/20 18/66/20 16/67/20
f 16/68/21 18/69/21 2/70/21
f 19/71/22 17/72/22 1/73/22
f 17/74/23 19/75/23 20/76/23 18/77/23
f 18/78/24 20/79/24 2/80/24
f 21/81/25 19/82/25 1/83/25
f 19/84/26 21/85/26 22/86/26 20/87/26
f 20/88/27 22/89/27 2/90/27
f 23/91/28 21/92/28 1/93/28
f 21/94/29 23/95/29 24/96/29 22/97/29
f 22/98/30 24/99/30 2/100/30
f 25/101/31 23/102/31 1/103/31
f 23/104/32 25/105/32 26/106/32 24/107/32
f 24/108/33 26/109/33 2/110/33
f 3/111/34 25/112/34 1/113/34
f 25/114/35 3/115/35 4/116/35 26/117/35
f 26/118/36 4/119/36 2/120/36
o cylinder
v 0.25 0.25 -0.24999999999999994
v 0.25 0.25 -0.31249999999999994
v 0.1997595264191645 0.0625 -0.25
v 0.1997595264191645 0.06250000000000001 -0.3125
v 0.1127404735808355 0.1127404735808355 -0.24999999999999997
v 0.1127404735808355 0.11274047358083551 -0.3125
v 0.0625 0.1997595264191645 -0.24999999999999994
v 0.0625 0.1997595264191645 -0.31249999999999994
v 0.0625 0.3002404735808355 -0.24999999999999994
v 0.0625 0.3002404735808355 -0.31249999999999994
v 0.1127404735808355 0.3872595264191645 -0.24999999999999992
v 0.1127404735808355 0.3872595264191645 -0.3124999999999999
v 0.19975952641916445 0.43749999999999994 -0.24999999999999992
v 0.19975952641916445 0.43749999999999994 -0.3124999999999999
v 0.3002404735808354 0.4375 -0.2499999999999999
v 0.3002404735808354 0.4375 -0.3124999999999999
v 0.3872595264191645 0.3872595264191645 -0.24999999999999992
v 0.3872595264191645 0.3872595264191645 -0.3124999999999999
v 0.43749999999999994 0.3002404735808355 -0.24999999999999994
v 0.43749999999999994 0.3002404735808355 -0.31249999999999994
v 0.4375 0.19975952641916458 -0.24999999999999994
v 0.4375 0.1997595264191646 -0.31249999999999994
v 0.3872595264191645 0.11274047358083553 -0.24999999999999997
v 0.3872595264191645 0.11274047358083554 -0.3125
v 0.3002404735808355 0.0625 -0.25
v 0.3002404735808355 0.06250000000000001 -0.3125
vt 0.38113125000000003 0.97488125
vt 0.33761874999999997 1
vt 0.3125 0.90625
vt 0.63449375 0.46875
vt 0.68473125 0.46875
vt 0.68473125 0.5
vt 0.63449375 0.5
vt 0.33761874999999997 0.59375
vt 0.38113125000000003 0.61886875
vt 0.3125 0.6875
vt 0.40625 0.93136875
vt 0.38113125000000003 0.97488125
vt 0.3125 0.90625
vt 0.34651875 0.46875
vt 0.39675625000000003 0.46875
vt 0.39675625000000003 0.5
vt 0.34651875 0.5
vt 0.38113125000000003 0.61886875
vt 0.40625 0.66238125
vt 0.3125 0.6875
vt 0.40625 0.88113125
vt 0.40625 0.93136875
vt 0.3125 0.90625
vt 0.39675625000000003 0.46875
vt 0.44699375 0.46875
vt 0.44699375 0.5
vt 0.39675625000000003 0.5
vt 0.40625 0.66238125
vt 0.40625 0.71261875
vt 0.3125 0.6875
vt 0.38113125000000003 0.83761875
vt 0.40625 0.88113125
vt 0.3125 0.90625
vt 0.44699375 0.46875
vt 0.49723125 0.46875
vt 0.49723125 0.5
vt 0.44699375 0.5
vt 0.40625 0.71261875
vt 0.38113125000000003 0.75613125
vt 0.3125 0.6875
vt 0.33761874999999997 0.8125
vt 0.38113125000000003 0.83761875
vt 0.3125 0.90625
vt 0.53401875 0.40625
vt 0.58425625 0.40625
vt 0.58425625 0.4375
vt 0.53401875 0.4375
vt 0.38113125000000003 0.75613125
vt 0.33761874999999997 0.78125
vt 0.3125 0.6875
vt 0.28738125000000003 0.8125
vt 0.33761874999999997 0.8125
vt 0.3125 0.90625
vt 0.58425625 0.40625
vt 0.63449375 0.40625
vt 0.63449375 0.4375
vt 0.58425625 0.4375
vt 0.33761874999999997 0.78125
vt 0.28738125000000003 0.78125
vt 0.3125 0.6875
vt 0.24386875 0.83761875
vt 0.28738125000000003 0.8125
vt 0.3125 0.90625
vt 0.63449375 0.40625
vt 0.68473125 0.40625
vt 0.68473125 0.4375
vt 0.63449375 0.4375
vt 0.28738125000000003 0.78125
vt 0.24386875 0.75613125
vt 0.3125 0.6875
vt 0.21875 0.88113125
vt 0.24386875 0.83761875
vt 0.3125 0.90625
vt 0.34651875 0.40625
vt 0.39675625000000003 0.40625
vt 0.39675625000000003 0.4375
vt 0.34651875 0.4375
vt 0.24386875 0.75613125
vt 0.21875 0.71261875
vt 0.3125 0.6875
vt 0.21875 0.93136875
vt 0.21875 0.88113125
vt 0.3125 0.90625
vt 0.39675625000000003 0.40625
vt 0.44699374999999997 0.40625
vt 0.44699374999999997 0.4375
vt 0.39675625000000003 0.4375
vt 0.21875 0.71261875
vt 0.21875 0.66238125
vt 0.3125 0.6875
vt 0.24386875 0.97488125
vt 0.21875 0.93136875
vt 0.3125 0.90625
vt 0.44699374999999997 0.40625
vt 0.49723125 0.40625
vt 0.49723125 0.4375
vt 0.44699374999999997 0.4375
vt 0.21875 0.66238125
vt 0.24386875 0.61886875
vt 0.3125 0.6875
vt 0.28738125000000003 1
vt 0.24386875 0.97488125
vt 0.3125 0.90625
vt 0.53401875 0.46875
vt 0.58425625 0.46875
vt 0.58425625 0.5
vt 0.53401875 0.5
vt 0.24386875 0.61886875
vt 0.28738125000000003 0.59375
vt 0.3125 0.6875
vt 0.33761874999999997 1
vt 0.28738125000000003 1
vt 0.3125 0.90625
vt 0.58425625 0.46875
vt 0.63449375 0.46875
vt 0.63449375 0.5
vt 0.58425625 0.5
vt 0.28738125000000003 0.59375
vt 0.33761874999999997 0.59375
vt 0.3125 0.6875
vn 0 -2.220446049250313e-16 1
vn -0.4999999999999999 -0.8660254037844387 -1.922962686383564e-16
vn 0 2.220446049250313e-16 -1
vn 0 -2.220446049250313e-16 1
vn -0.8660254037844387 -0.4999999999999999 -1.1102230246251563e-16
vn 0 2.220446049250313e-16 -1
vn 0 -2.220446049250313e-16 1
vn -1 0 0
vn 0 2.220446049250313e-16 -1
vn 0 -2.220446049250313e-16 1
vn -0.8660254037844387 0.4999999999999999 1.1102230246251563e-16
vn 0 2.220446049250313e-16 -1
vn 0 -2.220446049250313e-16 1
vn -0.49999999999999967 0.8660254037844388 1.9229626863835643e-16
vn 0 2.220446049250313e-16 -1
vn 0 -2.220446049250313e-16 1
vn -5.524544980845173e-16 1 2.220446049250313e-16
vn 0 2.220446049250313e-16 -1
vn 0 -2.220446049250313e-16 1
vn 0.4999999999999994 0.866025403784439 1.9229626863835648e-16
vn 0 2.220446049250313e-16 -1
vn 0 -2.220446049250313e-16 1
vn 0.8660254037844392 0.49999999999999956 1.1102230246251556e-16
vn 0 2.220446049250313e-16 -1
vn 0 -2.220446049250313e-16 1
vn 1 5.524544980845174e-16 1.2266954076623314e-31
vn 0 2.220446049250313e-16 -1
vn 0 -2.220446049250313e-16 1
vn 0.8660254037844389 -0.49999999999999967 -1.1102230246251558e-16
vn 0 2.220446049250313e-16 -1
vn 0 -2.220446049250313e-16 1
vn 0.5000000000000001 -0.8660254037844386 -1.9229626863835638e-16
vn 0 2.220446049250313e-16 -1
vn 0 -2.220446049250313e-16 1
vn 0 -1 -2.220446049250313e-16
vn 0 2.220446049250313e-16 -1
usemtl m_023e0f78-2021-972d-6d1f-3f300f005d15
f 31/121/37 29/122/37 27/123/37
f 29/124/38 31/125/38 32/126/38 30/127/38
f 30/128/39 32/129/39 28/130/39
f 33/131/40 31/132/40 27/133/40
f 31/134/41 33/135/41 34/136/41 32/137/41
f 32/138/42 34/139/42 28/140/42
f 35/141/43 33/142/43 27/143/43
f 33/144/44 35/145/44 36/146/44 34/147/44
f 34/148/45 36/149/45 28/150/45
f 37/151/46 35/152/46 27/153/46
f 35/154/47 37/155/47 38/156/47 36/157/47
f 36/158/48 38/159/48 28/160/48
f 39/161/49 37/162/49 27/163/49
f 37/164/50 39/165/50 40/166/50 38/167/50
f 38/168/51 40/169/51 28/170/51
f 41/171/52 39/172/52 27/173/52
f 39/174/53 41/175/53 42/176/53 40/177/53
f 40/178/54 42/179/54 28/180/54
f 43/181/55 41/182/55 27/183/55
f 41/184/56 43/185/56 44/186/56 42/187/56
f 42/188/57 44/189/57 28/190/57
f 45/191/58 43/192/58 27/193/58
f 43/194/59 45/195/59 46/196/59 44/197/59
f 44/198/60 46/199/60 28/200/60
f 47/201/61 45/202/61 27/203/61
f 45/204/62 47/205/62 48/206/62 46/207/62
f 46/208/63 48/209/63 28/210/63
f 49/211/64 47/212/64 27/213/64
f 47/214/65 49/215/65 50/216/65 48/217/65
f 48/218/66 50/219/66 28/220/66
f 51/221/67 49/222/67 27/223/67
f 49/224/68 51/225/68 52/226/68 50/227/68
f 50/228/69 52/229/69 28/230/69
f 29/231/70 51/232/70 27/233/70
f 51/234/71 29/235/71 30/236/71 52/237/71
f 52/238/72 30/239/72 28/240/72
o cuboid
v -0.0625 0.3125 -0.328125
v -0.0625 0.3125 -0.265625
v -0.0625 0.25 -0.328125
v -0.0625 0.25 -0.265625
v 0.0625 0.3125 -0.328125
v 0.0625 0.3125 -0.265625
v 0.0625 0.25 -0.328125
v 0.0625 0.25 -0.265625
vt 0.25 0.5
vt 0.21875 0.5
vt 0.21875 0.46875
vt 0.25 0.46875
vt 0.25 0.40625
vt 0.25 0.4375
vt 0.21875 0.4375
vt 0.21875 0.40625
vt 0.125 0.46875
vt 0.1875 0.46875
vt 0.1875 0.5
vt 0.125 0.5
vt 0.1875 0.40625
vt 0.1875 0.4375
vt 0.125 0.4375
vt 0.125 0.40625
vt 0.1875 0.34375
vt 0.1875 0.375
vt 0.125 0.375
vt 0.125 0.34375
vt 0.40625 0.375
vt 0.34375 0.375
vt 0.34375 0.34375
vt 0.40625 0.34375
vn -1 0 0
vn 1 0 0
vn 0 1 0
vn 0 -1 0
vn 0 0 -1
vn 0 0 1
usemtl m_023e0f78-2021-972d-6d1f-3f300f005d15
f 54/241/73 53/242/73 55/243/73 56/244/73
f 59/245/74 57/246/74 58/247/74 60/248/74
f 57/249/75 53/250/75 54/251/75 58/252/75
f 56/253/76 55/254/76 59/255/76 60/256/76
f 55/257/77 53/258/77 57/259/77 59/260/77
f 58/261/78 54/262/78 56/263/78 60/264/78
o cuboid
v -0.46875 0.3125 -0.3125
v -0.46875 0.3125 0.1875
v -0.46875 0.25 -0.3125
v -0.46875 0.25 0.1875
v -0.40625 0.3125 -0.3125
v -0.40625 0.3125 0.1875
v -0.40625 0.25 -0.3125
v -0.40625 0.25 0.1875
vt 0.25 0.5625
vt 0 0.5625
vt 0 0.53125
vt 0.25 0.53125
vt 0.6875 0.96875
vt 0.6875 1
vt 0.4375 1
vt 0.4375 0.96875
vt 0.4375 0.6875
vt 0.46875 0.6875
vt 0.46875 0.9375
vt 0.4375 0.9375
vt 0.3125 0.3125
vt 0.3125 0.5625
vt 0.28125 0.5625
vt 0.28125 0.3125
vt 0.25 0.34375
vt 0.25 0.375
vt 0.21875 0.375
vt 0.21875 0.34375
vt 0.65625 0.59375
vt 0.625 0.59375
vt 0.625 0.5625
vt 0.65625 0.5625
vn -1 0 0
vn 1 0 0
vn 0 1 0
vn 0 -1 0
vn 0 0 -1
vn 0 0 1
usemtl m_023e0f78-2021-972d-6d1f-3f300f005d15
f 62/265/79 61/266/79 63/267/79 64/268/79
f 67/269/80 65/270/80 66/271/80 68/272/80
f 65/273/81 61/274/81 62/275/81 66/276/81
f 64/277/82 63/278/82 67/279/82 68/280/82
f 63/281/83 61/282/83 65/283/83 67/284/83
f 66/285/84 62/286/84 64/287/84 68/288/84
o cuboid
v 0.46875 0.3125 -0.3125
v 0.46875 0.3125 0.1875
v 0.46875 0.25 -0.3125
v 0.46875 0.25 0.1875
v 0.40625 0.3125 -0.3125
v 0.40625 0.3125 0.1875
v 0.40625 0.25 -0.3125
v 0.40625 0.25 0.1875
vt 0.59375 0.53125
vt 0.59375 0.5625
vt 0.34375 0.5625
vt 0.34375 0.53125
vt 0.6875 0.65625
vt 0.4375 0.65625
vt 0.4375 0.625
vt 0.6875 0.625
vt 0 0.5
vt 0 0.25
vt 0.03125 0.25
vt 0.03125 0.5
vt 0.09375 0.5
vt 0.0625 0.5
vt 0.0625 0.25
vt 0.09375 0.25
vt 0.46875 0.375
vt 0.4375 0.375
vt 0.4375 0.34375
vt 0.46875 0.34375
vt 0.53125 0.34375
vt 0.53125 0.375
vt 0.5 0.375
vt 0.5 0.34375
vn 1 0 0
vn -1 0 0
vn 0 1 0
vn 0 -1 0
vn 0 0 -1
vn 0 0 1
usemtl m_023e0f78-2021-972d-6d1f-3f300f005d15
f 71/289/85 69/290/85 70/291/85 72/292/85
f 74/293/86 73/294/86 75/295/86 76/296/86
f 70/297/87 69/298/87 73/299/87 74/300/87
f 75/301/88 71/302/88 72/303/88 76/304/88
f 73/305/89 69/306/89 71/307/89 75/308/89
f 72/309/90 70/310/90 74/311/90 76/312/90