# Made in Blockbench 4.8.1
mtllib ice.mtl

o cuboid
v 0.375 0.75 0.375
v 0.375 0.75 -0.375
v 0.375 0 0.375
v 0.375 0 -0.375
v -0.375 0.75 0.375
v -0.375 0.75 -0.375
v -0.375 0 0.375
v -0.375 0 -0.375
vt 0.1875 1
vt 0 1
vt 0 0.8125
vt 0.1875 0.8125
vt 0.1875 0.609375
vt 0.1875 0.796875
vt 0 0.796875
vt 0 0.609375
vt 0.203125 0.8125
vt 0.390625 0.8125
vt 0.390625 1
vt 0.203125 1
vt 0.390625 0.609375
vt 0.390625 0.796875
vt 0.203125 0.796875
vt 0.203125 0.609375
vt 0.1875 0.40625
vt 0.1875 0.59375
vt 0 0.59375
vt 0 0.40625
vt 0.59375 1
vt 0.40625 1
vt 0.40625 0.8125
vt 0.59375 0.8125
vn 1 0 0
vn -1 0 0
vn 0 1 0
vn 0 -1 0
vn 0 0 1
vn 0 0 -1
usemtl m_888b7b38-18d8-36f3-6cad-0bbdbe65a4ec
f 2/1/1 1/2/1 3/3/1 4/4/1
f 7/5/2 5/6/2 6/7/2 8/8/2
f 5/9/3 1/10/3 2/11/3 6/12/3
f 4/13/4 3/14/4 7/15/4 8/16/4
f 3/17/5 1/18/5 5/19/5 7/20/5
f 6/21/6 2/22/6 4/23/6 8/24/6