# Made in Blockbench 4.8.2
mtllib itembase.mtl

o cylinder
v 0 0 0
v -6.938893903907228e-18 0.1875 -6.938893903907228e-18
v 0.13397459621556132 0 0.49999999999999994
v 0.10048094716167098 0.1875 0.375
v 0.3660254037844386 0 0.36602540378443865
v 0.2745190528383289 0.1875 0.274519052838329
v 0.49999999999999994 0 0.13397459621556132
v 0.375 0.1875 0.10048094716167098
v 0.49999999999999994 0 -0.13397459621556138
v 0.375 0.1875 -0.10048094716167104
v 0.36602540378443865 0 -0.3660254037844386
v 0.274519052838329 0.1875 -0.274519052838329
v 0.1339745962155615 0 -0.4999999999999999
v 0.10048094716167111 0.1875 -0.3749999999999999
v -0.13397459621556113 0 -0.5
v -0.10048094716167086 0.1875 -0.375
v -0.3660254037844386 0 -0.3660254037844387
v -0.274519052838329 0.1875 -0.274519052838329
v -0.49999999999999994 0 -0.13397459621556126
v -0.3749999999999999 0.1875 -0.10048094716167096
v -0.5 0 0.1339745962155611
v -0.375 0.1875 0.10048094716167082
v -0.3660254037844387 0 0.36602540378443854
v -0.274519052838329 0.1875 0.2745190528383289
v -0.1339745962155613 0 0.49999999999999994
v -0.10048094716167097 0.1875 0.375
vt 0.4330125 0.9330125
vt 0.3169875 1
vt 0.25 0.75
vt 0.2701125 0.32685388263866655
vt 0.39829587739326455 0.3658195391204445
vt 0.34950315804494836 0.46875
vt 0.25336562500000004 0.4395257576386665
vt 0.675240625 0.1875
vt 0.762259375 0.23774062500000004
vt 0.625 0.375
vt 0.5 0.8169875
vt 0.4330125 0.9330125
vt 0.25 0.75
vt 0.5392041226067354 0.7095695391204445
vt 0.6673875 0.6706038826386665
vt 0.684134375 0.7832757576386665
vt 0.5879968419550516 0.8125
vt 0.762259375 0.23774062500000004
vt 0.8125 0.32475937499999996
vt 0.625 0.375
vt 0.5 0.6830125
vt 0.5 0.8169875
vt 0.25 0.75
vt 0.6673875 0.6706038826386665
vt 0.8013625 0.6706038826386665
vt 0.784615625 0.7832757576386665
vt 0.684134375 0.7832757576386665
vt 0.8125 0.32475937499999996
vt 0.8125 0.42524062500000004
vt 0.625 0.375
vt 0.4330125 0.5669875
vt 0.5 0.6830125
vt 0.25 0.75
vt 0.8013625 0.6706038826386665
vt 0.9295458773932646 0.7095695391204445
vt 0.8807531580449484 0.8125
vt 0.784615625 0.7832757576386665
vt 0.8125 0.42524062500000004
vt 0.762259375 0.512259375
vt 0.625 0.375
vt 0.3169875 0.5
vt 0.4330125 0.5669875
vt 0.25 0.75
vt 0.5392041226067354 0.8970695391204445
vt 0.6673875 0.8581038826386665
vt 0.684134375 0.9707757576386665
vt 0.5879968419550516 1
vt 0.762259375 0.512259375
vt 0.675240625 0.5625
vt 0.625 0.375
vt 0.1830125 0.5
vt 0.3169875 0.5
vt 0.25 0.75
vt 0.6673875 0.8581038826386665
vt 0.8013625 0.8581038826386665
vt 0.784615625 0.9707757576386665
vt 0.684134375 0.9707757576386665
vt 0.675240625 0.5625
vt 0.574759375 0.5625
vt 0.625 0.375
vt 0.0669875 0.5669875
vt 0.1830125 0.5
vt 0.25 0.75
vt 0.8013625 0.8581038826386665
vt 0.9295458773932646 0.8970695391204445
vt 0.8807531580449484 1
vt 0.784615625 0.9707757576386665
vt 0.574759375 0.5625
vt 0.48774062500000004 0.512259375
vt 0.625 0.375
vt 0 0.6830125
vt 0.0669875 0.5669875
vt 0.25 0.75
vt 0.007954122606735475 0.17831953912044451
vt 0.1361375 0.13935388263866655
vt 0.152884375 0.2520257576386665
vt 0.05674684195505164 0.28125
vt 0.48774062500000004 0.512259375
vt 0.4375 0.42524062500000004
vt 0.625 0.375
vt 0 0.8169875
vt 0 0.6830125
vt 0.25 0.75
vt 0.1361375 0.13935388263866655
vt 0.2701125 0.13935388263866655
vt 0.25336562500000004 0.2520257576386665
vt 0.152884375 0.2520257576386665
vt 0.4375 0.42524062500000004
vt 0.4375 0.32475937499999996
vt 0.625 0.375
vt 0.0669875 0.9330125
vt 0 0.8169875
vt 0.25 0.75
vt 0.2701125 0.13935388263866655
vt 0.39829587739326455 0.17831953912044451
vt 0.34950315804494836 0.28125
vt 0.25336562500000004 0.2520257576386665
vt 0.4375 0.32475937499999996
vt 0.48774062500000004 0.23774062500000004
vt 0.625 0.375
vt 0.1830125 1
vt 0.0669875 0.9330125
vt 0.25 0.75
vt 0.007954122606735475 0.3658195391204445
vt 0.1361375 0.32685388263866655
vt 0.152884375 0.4395257576386665
vt 0.05674684195505164 0.46875
vt 0.48774062500000004 0.23774062500000004
vt 0.574759375 0.1875
vt 0.625 0.375
vt 0.3169875 1
vt 0.1830125 1
vt 0.25 0.75
vt 0.1361375 0.32685388263866655
vt 0.2701125 0.32685388263866655
vt 0.25336562500000004 0.4395257576386665
vt 0.152884375 0.4395257576386665
vt 0.574759375 0.1875
vt 0.675240625 0.1875
vt 0.625 0.375
vn 0 -1 0
vn 0.41602514716892175 0.5547001962252293 0.7205766921228922
vn 0 1 0
vn 0 -1 0
vn 0.7205766921228922 0.554700196225229 0.4160251471689218
vn 0 1 0
vn 0 -1 0
vn 0.8320502943378438 0.554700196225229 0
vn 0 1 0
vn 0 -1 0
vn 0.7205766921228923 0.5547001962252289 -0.4160251471689219
vn 0 1 0
vn 0 -1 0
vn 0.41602514716892186 0.5547001962252293 -0.720576692122892
vn 0 1 0
vn 0 -1 0
vn 3.4475244580461617e-16 0.5547001962252291 -0.8320502943378437
vn 0 1 0
vn 0 -1 0
vn -0.41602514716892147 0.554700196225229 -0.7205766921228923
vn 0 1 0
vn 0 -1 0
vn -0.7205766921228922 0.5547001962252293 -0.4160251471689216
vn 0 1 0
vn 0 -1 0
vn -0.8320502943378438 0.5547001962252293 -1.7237622290230828e-16
vn 0 1 0
vn 0 -1 0
vn -0.7205766921228923 0.5547001962252291 0.4160251471689216
vn 0 1 0
vn 0 -1 0
vn -0.41602514716892186 0.5547001962252289 0.7205766921228922
vn 0 1 0
vn 0 -1 0
vn 0 0.5547001962252289 0.8320502943378438
vn 0 1 0
usemtl m_632455b0-c653-b5ac-5f68-384e74690adf
f 5/1/1 3/2/1 1/3/1
f 3/4/2 5/5/2 6/6/2 4/7/2
f 4/8/3 6/9/3 2/10/3
f 7/11/4 5/12/4 1/13/4
f 5/14/5 7/15/5 8/16/5 6/17/5
f 6/18/6 8/19/6 2/20/6
f 9/21/7 7/22/7 1/23/7
f 7/24/8 9/25/8 10/26/8 8/27/8
f 8/28/9 10/29/9 2/30/9
f 11/31/10 9/32/10 1/33/10
f 9/34/11 11/35/11 12/36/11 10/37/11
f 10/38/12 12/39/12 2/40/12
f 13/41/13 11/42/13 1/43/13
f 11/44/14 13/45/14 14/46/14 12/47/14
f 12/48/15 14/49/15 2/50/15
f 15/51/16 13/52/16 1/53/16
f 13/54/17 15/55/17 16/56/17 14/57/17
f 14/58/18 16/59/18 2/60/18
f 17/61/19 15/62/19 1/63/19
f 15/64/20 17/65/20 18/66/20 16/67/20
f 16/68/21 18/69/21 2/70/21
f 19/71/22 17/72/22 1/73/22
f 17/74/23 19/75/23 20/76/23 18/77/23
f 18/78/24 20/79/24 2/80/24
f 21/81/25 19/82/25 1/83/25
f 19/84/26 21/85/26 22/86/26 20/87/26
f 20/88/27 22/89/27 2/90/27
f 23/91/28 21/92/28 1/93/28
f 21/94/29 23/95/29 24/96/29 22/97/29
f 22/98/30 24/99/30 2/100/30
f 25/101/31 23/102/31 1/103/31
f 23/104/32 25/105/32 26/106/32 24/107/32
f 24/108/33 26/109/33 2/110/33
f 3/111/34 25/112/34 1/113/34
f 25/114/35 3/115/35 4/116/35 26/117/35
f 26/118/36 4/119/36 2/120/36