# Made in Blockbench 4.8.1
mtllib mushroom.mtl

o cylinder
v 0 0 0
v 0 0.5 0
v 0.03349364905389033 0 0.12499999999999999
v 0.03349364905389033 0.5 0.12499999999999999
v 0.09150635094610965 0 0.09150635094610966
v 0.09150635094610965 0.5 0.09150635094610966
v 0.12499999999999999 0 0.03349364905389033
v 0.12499999999999999 0.5 0.03349364905389033
v 0.12499999999999999 0 -0.033493649053890344
v 0.12499999999999999 0.5 -0.033493649053890344
v 0.09150635094610966 0 -0.09150635094610965
v 0.09150635094610966 0.5 -0.09150635094610965
v 0.03349364905389037 0 -0.12499999999999997
v 0.03349364905389037 0.5 -0.12499999999999997
v -0.03349364905389028 0 -0.125
v -0.03349364905389028 0.5 -0.125
v -0.09150635094610965 0 -0.09150635094610968
v -0.09150635094610965 0.5 -0.09150635094610968
v -0.12499999999999999 0 -0.033493649053890316
v -0.12499999999999999 0.5 -0.033493649053890316
v -0.125 0 0.033493649053890275
v -0.125 0.5 0.033493649053890275
v -0.09150635094610968 0 0.09150635094610964
v -0.09150635094610968 0.5 0.09150635094610964
v -0.03349364905389032 0 0.12499999999999999
v -0.03349364905389032 0.5 0.12499999999999999
vt 0.44475156250000003 0.9916265625
vt 0.43024843749999997 1
vt 0.421875 0.96875
vt 0.43024843749999997 0.515625
vt 0.4469953125 0.515625
vt 0.4469953125 0.640625
vt 0.43024843749999997 0.640625
vt 0.46149843749999997 0.6875
vt 0.47600156250000003 0.6958734375
vt 0.453125 0.71875
vt 0.453125 0.9771234375
vt 0.44475156250000003 0.9916265625
vt 0.421875 0.96875
vt 0.3811296875 0.765625
vt 0.3978765625 0.765625
vt 0.3978765625 0.890625
vt 0.3811296875 0.890625
vt 0.47600156250000003 0.6958734375
vt 0.484375 0.7103765625
vt 0.453125 0.71875
vt 0.453125 0.9603765625
vt 0.453125 0.9771234375
vt 0.421875 0.96875
vt 0.3978765625 0.765625
vt 0.41462343749999997 0.765625
vt 0.41462343749999997 0.890625
vt 0.3978765625 0.890625
vt 0.484375 0.7103765625
vt 0.484375 0.7271234375
vt 0.453125 0.71875
vt 0.44475156250000003 0.9458734375
vt 0.453125 0.9603765625
vt 0.421875 0.96875
vt 0.41462343749999997 0.765625
vt 0.4313703125 0.765625
vt 0.4313703125 0.890625
vt 0.41462343749999997 0.890625
vt 0.484375 0.7271234375
vt 0.47600156250000003 0.7416265625
vt 0.453125 0.71875
vt 0.43024843749999997 0.9375
vt 0.44475156250000003 0.9458734375
vt 0.421875 0.96875
vt 0.0842546875 0.46875
vt 0.1010015625 0.46875
vt 0.1010015625 0.59375
vt 0.0842546875 0.59375
vt 0.47600156250000003 0.7416265625
vt 0.46149843749999997 0.75
vt 0.453125 0.71875
vt 0.4135015625 0.9375
vt 0.43024843749999997 0.9375
vt 0.421875 0.96875
vt 0.1010015625 0.46875
vt 0.1177484375 0.46875
vt 0.1177484375 0.59375
vt 0.1010015625 0.59375
vt 0.46149843749999997 0.75
vt 0.4447515625 0.75
vt 0.453125 0.71875
vt 0.3989984375 0.9458734375
vt 0.4135015625 0.9375
vt 0.421875 0.96875
vt 0.1177484375 0.46875
vt 0.13449531250000002 0.46875
vt 0.13449531250000002 0.59375
vt 0.1177484375 0.59375
vt 0.4447515625 0.75
vt 0.4302484375 0.7416265625
vt 0.453125 0.71875
vt 0.390625 0.9603765625
vt 0.3989984375 0.9458734375
vt 0.421875 0.96875
vt 0.006129687499999998 0.46875
vt 0.0228765625 0.46875
vt 0.0228765625 0.59375
vt 0.006129687499999998 0.59375
vt 0.4302484375 0.7416265625
vt 0.421875 0.7271234375
vt 0.453125 0.71875
vt 0.390625 0.9771234375
vt 0.390625 0.9603765625
vt 0.421875 0.96875
vt 0.0228765625 0.46875
vt 0.0396234375 0.46875
vt 0.0396234375 0.59375
vt 0.0228765625 0.59375
vt 0.421875 0.7271234375
vt 0.421875 0.7103765625
vt 0.453125 0.71875
vt 0.3989984375 0.9916265625
vt 0.390625 0.9771234375
vt 0.421875 0.96875
vt 0.0396234375 0.46875
vt 0.056370312500000005 0.46875
vt 0.056370312500000005 0.59375
vt 0.0396234375 0.59375
vt 0.421875 0.7103765625
vt 0.4302484375 0.6958734375
vt 0.453125 0.71875
vt 0.4135015625 1
vt 0.3989984375 0.9916265625
vt 0.421875 0.96875
vt 0.3967546875 0.515625
vt 0.4135015625 0.515625
vt 0.4135015625 0.640625
vt 0.3967546875 0.640625
vt 0.4302484375 0.6958734375
vt 0.4447515625 0.6875
vt 0.453125 0.71875
vt 0.43024843749999997 1
vt 0.4135015625 1
vt 0.421875 0.96875
vt 0.4135015625 0.515625
vt 0.43024843749999997 0.515625
vt 0.43024843749999997 0.640625
vt 0.4135015625 0.640625
vt 0.4447515625 0.6875
vt 0.46149843749999997 0.6875
vt 0.453125 0.71875
vn 0 -1 0
vn 0.4999999999999999 0 0.8660254037844388
vn 0 1 0
vn 0 -1 0
vn 0.8660254037844388 0 0.5
vn 0 1 0
vn 0 -1 0
vn 1 0 0
vn 0 1 0
vn 0 -1 0
vn 0.8660254037844388 0 -0.5
vn 0 1 0
vn 0 -1 0
vn 0.5000000000000001 0 -0.8660254037844388
vn 0 1 0
vn 0 -1 0
vn 4.143408735633879e-16 0 -1
vn 0 1 0
vn 0 -1 0
vn -0.4999999999999996 0 -0.8660254037844389
vn 0 1 0
vn 0 -1 0
vn -0.8660254037844389 0 -0.4999999999999998
vn 0 1 0
vn 0 -1 0
vn -1 0 -2.0717043678169412e-16
vn 0 1 0
vn 0 -1 0
vn -0.8660254037844389 0 0.4999999999999996
vn 0 1 0
vn 0 -1 0
vn -0.4999999999999999 0 0.8660254037844386
vn 0 1 0
vn 0 -1 0
vn 0 0 1
vn 0 1 0
usemtl m_a6e60847-bd57-ced8-706f-3811d1bb598e
f 5/1/1 3/2/1 1/3/1
f 3/4/2 5/5/2 6/6/2 4/7/2
f 4/8/3 6/9/3 2/10/3
f 7/11/4 5/12/4 1/13/4
f 5/14/5 7/15/5 8/16/5 6/17/5
f 6/18/6 8/19/6 2/20/6
f 9/21/7 7/22/7 1/23/7
f 7/24/8 9/25/8 10/26/8 8/27/8
f 8/28/9 10/29/9 2/30/9
f 11/31/10 9/32/10 1/33/10
f 9/34/11 11/35/11 12/36/11 10/37/11
f 10/38/12 12/39/12 2/40/12
f 13/41/13 11/42/13 1/43/13
f 11/44/14 13/45/14 14/46/14 12/47/14
f 12/48/15 14/49/15 2/50/15
f 15/51/16 13/52/16 1/53/16
f 13/54/17 15/55/17 16/56/17 14/57/17
f 14/58/18 16/59/18 2/60/18
f 17/61/19 15/62/19 1/63/19
f 15/64/20 17/65/20 18/66/20 16/67/20
f 16/68/21 18/69/21 2/70/21
f 19/71/22 17/72/22 1/73/22
f 17/74/23 19/75/23 20/76/23 18/77/23
f 18/78/24 20/79/24 2/80/24
f 21/81/25 19/82/25 1/83/25
f 19/84/26 21/85/26 22/86/26 20/87/26
f 20/88/27 22/89/27 2/90/27
f 23/91/28 21/92/28 1/93/28
f 21/94/29 23/95/29 24/96/29 22/97/29
f 22/98/30 24/99/30 2/100/30
f 25/101/31 23/102/31 1/103/31
f 23/104/32 25/105/32 26/106/32 24/107/32
f 24/108/33 26/109/33 2/110/33
f 3/111/34 25/112/34 1/113/34
f 25/114/35 3/115/35 4/116/35 26/117/35
f 26/118/36 4/119/36 2/120/36
o cuboid
v 0.13888888888888887 0.7013888888888888 0.13888888888888887
v 0.13888888888888887 0.7013888888888888 -0.13888888888888887
v 0.32638888888888884 0.42361111111111116 0.26388888888888884
v 0.26388888888888884 0.42361111111111116 -0.26388888888888884
v -0.13888888888888887 0.7013888888888888 0.13888888888888887
v -0.13888888888888887 0.7013888888888888 -0.13888888888888887
v -0.26388888888888884 0.42361111111111116 0.26388888888888884
v -0.26388888888888884 0.42361111111111116 -0.26388888888888884
v 0.25 0.5625 0
v -0.25 0.5625 0
v 0 0.8125 0
v 0 0.3125 0
v 0 0.5625 0.25
v 0 0.5625 -0.25
v 0.1875 0.75 0
v 0.1875 0.5625 0.1875
v 0.375 0.375 0
v 0.1875 0.5625 -0.1875
v -0.1875 0.5625 0.1875
v -0.1875 0.75 0
v -0.1875 0.5625 -0.1875
v -0.375 0.375 0
v 0 0.75 0.1875
v 0 0.75 -0.1875
v 0 0.375 0.375
v 0 0.375 -0.375
vt 0.2006923063076847 0.5804806662473079
vt 0.20930881834062093 0.618253020745427
vt 0.17984323404748215 0.6434068092794728
vt 0.15625 0.6006733713835195
vt 0.0774145590708677 0.7183386461065404
vt 0.03871855266097409 0.716453752667368
vt 0.022438800450564386 0.6812974628757393
vt 0.06995145474829004 0.6700987302577655
vt 0.022438800450564386 0.6812974628757393
vt 0.003341925450564387 0.6321927753757394
vt 0.06931380045056439 0.6150068378757394
vt 0.06931380045056439 0.6702490253757394
vt 0.06931380045056439 0.6150068378757394
vt 0.1372830745494356 0.6405397522599039
vt 0.11792223936851642 0.6800383586505148
vt 0.06931380045056439 0.6713210672210639
vt 0.21944963737956927 0.6956289175554611
vt 0.2905511998795693 0.710336730055461
vt 0.27753557487956926 0.752355480055461
vt 0.22816369987956928 0.751264855055461
vt 0.27753557487956926 0.752355480055461
vt 0.26891906284663303 0.7901278345535802
vt 0.23146004706020673 0.8000149914585668
vt 0.22873289323609844 0.7512774285399493
vt 0.38265676595251785 0.721531623087626
vt 0.35319118165937907 0.6963778345535802
vt 0.3618076936923153 0.658605480055461
vt 0.40625 0.6787981851916727
vt 0.18148965181354493 0.7673988174031516
vt 0.15625 0.7313718577474417
vt 0.21944963737956927 0.6956289175554611
vt 0.22816369987956928 0.751264855055461
vt 0.23145934164373594 0.8000151776504136
vt 0.26891906284663303 0.7901278345535802
vt 0.29505406367515097 0.8187276946547528
vt 0.25314093455746556 0.84375
vt 0.019098487025587148 0.7498613792383656
vt 0.03871782394988272 0.7164537171716443
vt 0.0774145590708677 0.7183386461065404
vt 0.06529734434597909 0.765625
vt 0.1831731120956322 0.6468526946547528
vt 0.20930811292415014 0.61825283455358
vt 0.24676783412704725 0.6281401776504136
vt 0.22508624121331766 0.671875
vt 0.315731460456482 0.7062651776504136
vt 0.35319118165937907 0.6963778345535802
vt 0.379326182487897 0.7249776946547528
vt 0.33741305337021155 0.75
vt 0.17459605773109468 0.8125115143777435
vt 0.203125 0.8792770119048998
vt 0.17243059337204691 0.9450750788125919
vt 0.10665662003579154 0.8777011728764446
vt 0.17243059337204691 0.9450750788125919
vt 0.11718840587204689 0.9850250788125918
vt 0.03984934337204689 0.9450750788125919
vt 0.1061399683720469 0.8771719538125918
vt 0.03984934337204689 0.9450750788125919
vt 0.009154936744093789 0.8792770119048998
vt 0.037683879012999105 0.8125115143777435
vt 0.10562331670830225 0.8777011728764446
vt 0.03768387901299912 0.8125115143777434
vt 0.1032144056844779 0.78125
vt 0.17022379805348747 0.8092012708363567
vt 0.10562331670830223 0.8777011728764446
vt 0.2892953125 0.8953903729292383
vt 0.375 0.9106247479292383
vt 0.3453171875 0.9541559979292382
vt 0.29615625 0.9511669354292382
vt 0.3453171875 0.9541559979292382
vt 0.3352479313727935 0.9915672946855661
vt 0.2974349281010157 1
vt 0.2965925804788273 0.9511934650102063
vt 0.29838464713977186 0.815281623087626
vt 0.26891906284663303 0.7901278345535802
vt 0.27753557487956926 0.752355480055461
vt 0.321977881187254 0.7725481851916727
vt 0.24899002261106903 0.9658698921904361
vt 0.22495173831143195 0.9290304739861138
vt 0.2892953125 0.8953903729292383
vt 0.29617056811018944 0.9512833356978406
vt 0.3618076936923153 0.658605480055461
vt 0.35319118165937907 0.6963778345535802
vt 0.3157321658729528 0.7062649914585668
vt 0.31300501204884446 0.6575274285399493
vt 0.24676783412704725 0.6281401776504136
vt 0.20930881834062093 0.618253020745427
vt 0.2006923063076847 0.5804806662473079
vt 0.24949498795115554 0.5794026147317961
vt 0.2006923063076847 0.5804806662473079
vt 0.18767668130768472 0.5384619162473079
vt 0.2587782438076847 0.5237541037473079
vt 0.2500641813076847 0.5793900412473079
vt 0.3037217561923153 0.6018789175554611
vt 0.3748233186923153 0.616586730055461
vt 0.3618076936923153 0.658605480055461
vt 0.3124358186923153 0.657514855055461
vn 0.7955870797707357 0.4283930429534736 -0.4283930429534736
vn 0.7955870797707357 0.4283930429534736 0.4283930429534736
vn 0.7071067811865476 0.7071067811865476 0
vn 0.7935685118261637 0.5631776535540516 -0.23039085827211217
vn -0.7935685118261637 0.5631776535540516 0.23039085827211217
vn -0.7955870797707357 0.4283930429534736 0.4283930429534736
vn -0.7955870797707357 0.4283930429534736 -0.4283930429534736
vn -0.7935685118261637 0.5631776535540516 -0.23039085827211217
vn -0.4283930429534736 0.7955870797707356 0.4283930429534736
vn 0.4283930429534736 0.7955870797707356 0.4283930429534736
vn 0.4283930429534736 0.7955870797707356 -0.4283930429534736
vn -0.4283930429534736 0.7955870797707356 -0.4283930429534736
vn 0.2901593353013878 -0.9119293395186459 -0.2901593353013878
vn 0.21510477935205102 -0.9526068799876531 0.21510477935205102
vn -0.2901593353013878 -0.9119293395186459 0.2901593353013878
vn -0.2901593353013878 -0.9119293395186459 -0.2901593353013878
vn 0.1750959507692167 0.6031082748717461 0.7782042256409628
vn 0.4283930429534735 0.4283930429534735 0.7955870797707356
vn -0.4283930429534735 0.4283930429534735 0.7955870797707356
vn -0.23039085827211217 0.5631776535540516 0.7935685118261637
vn -0.4283930429534735 0.4283930429534735 -0.7955870797707356
vn 0.4283930429534735 0.4283930429534735 -0.7955870797707356
vn 0.23039085827211217 0.5631776535540516 -0.7935685118261637
vn -0.23039085827211217 0.5631776535540516 -0.7935685118261637
usemtl m_a6e60847-bd57-ced8-706f-3811d1bb598e
f 44/121/37 28/122/37 41/123/37 35/124/37
f 41/125/38 27/126/38 42/127/38 35/128/38
f 42/129/39 29/130/39 43/131/39 35/132/39
f 43/133/40 30/134/40 44/135/40 35/136/40
f 48/137/41 33/138/41 45/139/41 36/140/41
f 45/141/42 31/142/42 46/143/42 36/144/42
f 46/145/43 32/146/43 47/147/43 36/148/43
f 47/149/44 34/150/44 48/151/44 36/152/44
f 46/153/45 31/154/45 49/155/45 37/156/45
f 49/157/46 27/158/46 41/159/46 37/160/46
f 41/161/47 28/162/47 50/163/47 37/164/47
f 50/165/48 32/166/48 46/167/48 37/168/48
f 52/169/49 30/170/49 43/171/49 38/172/49
f 43/173/50 29/174/50 51/175/50 38/176/50
f 51/177/51 33/178/51 48/179/51 38/180/51
f 48/181/52 34/182/52 52/183/52 38/184/52
f 51/185/53 29/186/53 42/187/53 39/188/53
f 42/189/54 27/190/54 49/191/54 39/192/54
f 49/193/55 31/194/55 45/195/55 39/196/55
f 45/197/56 33/198/56 51/199/56 39/200/56
f 47/201/57 32/202/57 50/203/57 40/204/57
f 50/205/58 28/206/58 44/207/58 40/208/58
f 44/209/59 30/210/59 52/211/59 40/212/59
f 52/213/60 34/214/60 47/215/60 40/216/60