# Made in Blockbench 4.8.1
mtllib rock.mtl

o cuboid
v 0.27777777777777773 0.5555555555555555 0.27777777777777773
v 0.27777777777777773 0.8055555555555555 -0.27777777777777773
v 0.27777777777777773 0.06944444444444445 0.27777777777777773
v 0.27777777777777773 0.06944444444444445 -0.27777777777777773
v -0.27777777777777773 0.7430555555555555 0.27777777777777773
v -0.27777777777777773 0.49305555555555547 -0.27777777777777773
v -0.27777777777777773 0.06944444444444445 0.27777777777777773
v -0.27777777777777773 0.06944444444444445 -0.27777777777777773
v 0.5 0.3125 0
v -0.5 0.3125 0
v 0 1.125 0
v 0 0.0625 0
v 0 0.3125 0.5
v 0 0.5625 -0.5
v 0.375 0.828125 0
v 0.375 0.3125 0.375
v 0.375 -0.015625 0
v 0.375 0.5625 -0.375
v -0.375 0.3125 0.375
v -0.375 0.765625 0
v -0.375 0.375 -0.375
v -0.375 -0.015625 0
v 0 0.828125 0.375
v 0 0.890625 -0.375
v 0 -0.015625 0.375
v 0 -0.015625 -0.375
vt 0.2861734375 0.6814358460380852
vt 0.27250625 0.7498967835380851
vt 0.1989890625 0.7562545960380851
vt 0.1875 0.6284530335380851
vt 0.1532848834972612 0.904670468449793
vt 0.08699412110937299 0.8294234375
vt 0.08722716343740454 0.7596118650718802
vt 0.171875 0.781654308939981
vt 0.4062710038787727 0.6679966597500762
vt 0.40199876664641593 0.5983159580548614
vt 0.4682899672843982 0.5599609375
vt 0.5 0.6404507436618752
vt 0 0.7134379842120814
vt 0.029060211666684634 0.640625
vt 0.15702664228707294 0.640625
vt 0.08495195636596169 0.734375
vt 0.03171003271560184 0.5130856044451386
vt 0.09800123335358409 0.551440625
vt 0.09372899612122731 0.6211213266952147
vt 0 0.5935754106070138
vt 0.319341066656897 0.40147876708633856
vt 0.4375 0.42457769616060725
vt 0.4375 0.49836987573677616
vt 0.3125 0.5
vt 0.1875 0.484375
vt 0.125 0.4080076079622419
vt 0.13007551186170557 0.3629863716575359
vt 0.1875 0.3932395182291899
vt 0.277125 0.9762798022797784
vt 0.28810625 0.8932360522797784
vt 0.3611203125 0.8701157397797784
vt 0.375 0.9565563647797785
vt 0.46875 0.53125
vt 0.48351285451760395 0.4589504617816288
vt 0.5536740102988892 0.42824295250972233
vt 0.5887752585009616 0.53125
vt 0.020703496109372985 0.9046703125
vt 0.08699412110937299 0.8294234375
vt 0.15328474610937298 0.9046703125
vt 0.08699412110937299 1
vt 0.515625 1
vt 0.5319024329138435 0.9280260168533035
vt 0.602694799978444 0.8988002505456466
vt 0.6298881831857414 1
vt 0.3992652304302452 0.9713310845614328
vt 0.3992652304302452 0.8476695642964842
vt 0.4957114430264046 0.8751408501254132
vt 0.5 1
vt 0.6102050482250656 0.640625
vt 0.5764251953509233 0.713778226504908
vt 0.5 0.71875
vt 0.5304546731983955 0.640625
vt 0.4682899672843982 0.5599609375
vt 0.40199934228439815 0.598315625
vt 0.33570871728439816 0.5599609375
vt 0.40199934228439815 0.515625
vt 0.1642918583535841 0.5130859375
vt 0.09800123335358409 0.551440625
vt 0.03171060835358408 0.5130859375
vt 0.09800123335358409 0.46875
vt 0.36111985717698636 0.8701158839603651
vt 0.28810625 0.8932360522797784
vt 0.23167245329875505 0.8414600384703335
vt 0.3059788358556481 0.8125
vt 0.33570814164641594 0.5599606044451386
vt 0.40199934228439815 0.598315625
vt 0.3977271050520414 0.6679963266952147
vt 0.3039981089308141 0.6404504106070138
vt 0.08676121616922959 0.7596117091220871
vt 0.08699425849726115 0.829423281550207
vt 0.020703496109372985 0.9046703125
vt 0.002113379606634158 0.781654152990188
vt 0.296875 0.59375
vt 0.2261458806150979 0.5787687267998786
vt 0.203125 0.46814403321784204
vt 0.296875 0.4614559632091826
vt 0.1022728949479586 0.6211216597500762
vt 0.09800065771560185 0.5514409580548614
vt 0.1642918583535841 0.5130859375
vt 0.19600189106918592 0.5935757436618752
vt 0.007677591672359638 0.3124946797009447
vt 0.046875 0.34508938339897965
vt 0.046875 0.46875
vt 0 0.4089601799356223
vt 0.3329939714207042 0.796875
vt 0.272506002957385 0.7498980210106103
vt 0.2861734375 0.6814358460380852
vt 0.37530948416663 0.7214195001881893
vt 0.5477571995947212 0.828125
vt 0.421928096736964 0.8048345676353013
vt 0.40625 0.734375
vt 0.5538714663808275 0.734375
vt 0.2236112726424443 0.85193229859443
vt 0.28810625 0.8932360522797784
vt 0.277125 0.9762798022797784
vt 0.17279745556800022 0.9873088343972976
vn 0.8253982313016026 0.4606873849125229 -0.32632023097970375
vn 0.5518254055364686 0.49051147158797287 0.6744532734334627
vn 0.7741387344280377 -0.4763930673403312 0.4168439339227898
vn 0.8869993042896661 -0.25129153983248564 -0.387407790575082
vn -0.7741387344280376 -0.4763930673403312 0.4168439339227898
vn -0.8990308759457771 0.2791814919757683 0.33734430280405336
vn -0.11869904052467077 0.6876358209705116 -0.7162873135109495
vn -0.8241502184124858 -0.39223013227563086 -0.40857305445378217
vn -0.3494050670660426 0.9160872346605474 0.19672386128928476
vn 0.6403417800172959 0.4241754466356607 0.6403417800172959
vn 0.3494050670660426 0.9160872346605474 -0.19672386128928476
vn -0.7175858860623786 0.35481267266475763 -0.5993149951741261
vn 0.39208783751450715 -0.8321864306430352 -0.39208783751450715
vn 0.39208783751450715 -0.8321864306430352 0.39208783751450715
vn -0.39208783751450715 -0.8321864306430352 0.39208783751450715
vn -0.39208783751450715 -0.8321864306430352 -0.39208783751450715
vn 0.4168439339227898 -0.4763930673403312 0.7741387344280376
vn 0.6744532734334628 0.4905114715879729 0.5518254055364685
vn -0.39342080529259016 0.28612422203097465 0.8737007494160112
vn -0.4168439339227898 -0.4763930673403312 0.7741387344280377
vn -0.8051469028055132 0.5855613838585549 0.0941080795486972
vn 0.41684393392278996 0.4763930673403314 -0.7741387344280376
vn 0.387407790575082 -0.25129153983248564 -0.8869993042896661
vn -0.40857305445378217 -0.39223013227563086 -0.8241502184124858
usemtl m_45c8ab92-38da-3ab2-e78c-36d3e61490f0
f 18/1/1 2/2/1 15/3/1 9/4/1
f 15/5/2 1/6/2 16/7/2 9/8/2
f 16/9/3 3/10/3 17/11/3 9/12/3
f 17/13/4 4/14/4 18/15/4 9/16/4
f 22/17/5 7/18/5 19/19/5 10/20/5
f 19/21/6 5/22/6 20/23/6 10/24/6
f 20/25/7 6/26/7 21/27/7 10/28/7
f 21/29/8 8/30/8 22/31/8 10/32/8
f 20/33/9 5/34/9 23/35/9 11/36/9
f 23/37/10 1/38/10 15/39/10 11/40/10
f 15/41/11 2/42/11 24/43/11 11/44/11
f 24/45/12 6/46/12 20/47/12 11/48/12
f 26/49/13 4/50/13 17/51/13 12/52/13
f 17/53/14 3/54/14 25/55/14 12/56/14
f 25/57/15 7/58/15 22/59/15 12/60/15
f 22/61/16 8/62/16 26/63/16 12/64/16
f 25/65/17 3/66/17 16/67/17 13/68/17
f 16/69/18 1/70/18 23/71/18 13/72/18
f 23/73/19 5/74/19 19/75/19 13/76/19
f 19/77/20 7/78/20 25/79/20 13/80/20
f 21/81/21 6/82/21 24/83/21 14/84/21
f 24/85/22 2/86/22 18/87/22 14/88/22
f 18/89/23 4/90/23 26/91/23 14/92/23
f 26/93/24 8/94/24 21/95/24 14/96/24