# Made in Blockbench 4.8.1
mtllib slimeboss.mtl

o sphere
v -8.121321568056606e-18 -0.04832961001566183 6.4970572544452855e-18
v 0 0.375 0
v 0.03349364905389032 0.3415063509461097 0.12499999999999997
v 0.05801270189221931 0.25 0.21650635094610965
v 0.06698729810778066 0.125 0.24999999999999997
v 0.05801270189221932 5.551115123125783e-17 0.21650635094610968
v 0.0323459707132226 -0.03124943638367783 0.1207168061218817
v 0.09150635094610962 0.3415063509461097 0.09150635094610964
v 0.15849364905389032 0.25 0.15849364905389032
v 0.1830127018922193 0.125 0.18301270189221933
v 0.15849364905389032 5.551115123125783e-17 0.15849364905389035
v 0.08837083540865909 -0.03124943638367783 0.0883708354086591
v 0.12499999999999997 0.3415063509461097 0.03349364905389032
v 0.21650635094610965 0.25 0.05801270189221931
v 0.24999999999999997 0.125 0.06698729810778066
v 0.21650635094610968 5.551115123125783e-17 0.05801270189221932
v 0.1207168061218817 -0.03124943638367783 0.0323459707132226
v 0.12499999999999997 0.3415063509461097 -0.03349364905389034
v 0.21650635094610965 0.25 -0.05801270189221934
v 0.24999999999999997 0.125 -0.06698729810778069
v 0.21650635094610968 5.551115123125783e-17 -0.05801270189221935
v 0.1207168061218817 -0.03124943638367783 -0.032345970713222615
v 0.09150635094610964 0.3415063509461097 -0.09150635094610962
v 0.15849364905389032 0.25 -0.15849364905389032
v 0.18301270189221933 0.125 -0.1830127018922193
v 0.15849364905389035 5.551115123125783e-17 -0.15849364905389032
v 0.0883708354086591 -0.03124943638367783 -0.08837083540865909
v 0.03349364905389036 0.3415063509461097 -0.12499999999999994
v 0.058012701892219375 0.25 -0.21650635094610962
v 0.06698729810778074 0.125 -0.24999999999999994
v 0.05801270189221938 5.551115123125783e-17 -0.21650635094610965
v 0.03234597071322264 -0.03124943638367783 -0.1207168061218817
v -0.033493649053890275 0.3415063509461097 -0.12499999999999999
v -0.05801270189221923 0.25 -0.21650635094610968
v -0.06698729810778056 0.125 -0.25
v -0.058012701892219236 5.551115123125783e-17 -0.2165063509461097
v -0.03234597071322256 -0.03124943638367783 -0.12071680612188171
v -0.09150635094610962 0.3415063509461097 -0.09150635094610965
v -0.15849364905389032 0.25 -0.15849364905389035
v -0.1830127018922193 0.125 -0.18301270189221935
v -0.15849364905389032 5.551115123125783e-17 -0.15849364905389038
v -0.08837083540865909 -0.03124943638367783 -0.08837083540865912
v -0.12499999999999997 0.3415063509461097 -0.03349364905389031
v -0.21650635094610965 0.25 -0.05801270189221929
v -0.24999999999999997 0.125 -0.06698729810778063
v -0.21650635094610968 5.551115123125783e-17 -0.0580127018922193
v -0.1207168061218817 -0.03124943638367783 -0.03234597071322259
v -0.12499999999999999 0.3415063509461097 0.03349364905389027
v -0.21650635094610968 0.25 0.058012701892219215
v -0.25 0.125 0.06698729810778055
v -0.2165063509461097 5.551115123125783e-17 0.05801270189221922
v -0.12071680612188171 -0.03124943638367783 0.03234597071322255
v -0.09150635094610965 0.3415063509461097 0.09150635094610961
v -0.15849364905389035 0.25 0.1584936490538903
v -0.18301270189221935 0.125 0.18301270189221927
v -0.15849364905389038 5.551115123125783e-17 0.1584936490538903
v -0.08837083540865912 -0.03124943638367783 0.08837083540865907
v -0.033493649053890316 0.3415063509461097 0.12499999999999997
v -0.0580127018922193 0.25 0.21650635094610965
v -0.06698729810778065 0.125 0.24999999999999997
v -0.058012701892219305 5.551115123125783e-17 0.21650635094610968
v -0.032345970713222594 -0.03124943638367783 0.1207168061218817
vt 0.3759542197711953 0.6817210860416324
vt 0.4071267199926825 0.6939728826039281
vt 0.36787248631948954 0.748065926017676
vt 0.3759542197711953 0.6817210860416324
vt 0.3882135947711953 0.6170148360416323
vt 0.44220559832705353 0.6382354323639365
vt 0.4071267199926825 0.6939728826039281
vt 0.4374953211794702 0.9799257019427251
vt 0.42411875 0.9164615436760609
vt 0.4904648954746248 0.9072141582666642
vt 0.4949523954746248 0.971917283266664
vt 0.42411875 0.9164615436760609
vt 0.41963125 0.851758418676061
vt 0.47708832429515463 0.84375
vt 0.4904648954746248 0.9072141582666642
vt 0.15696421189225568 0.9732268913199309
vt 0.14313877301282082 0.9231116850453154
vt 0.17122925502072436 0.9070791249058321
vt 0.20734795179512724 0.9444705196842431
vt 0.17122925502072436 0.9070791249058321
vt 0.14313877301282085 0.9231116850453154
vt 0.12696689801282085 0.8621523100453155
vt 0.4071267199926826 0.693972882603928
vt 0.43165721451941486 0.7167782794944988
vt 0.3753365704824651 0.7527635162214463
vt 0.4071267199926826 0.693972882603928
vt 0.44220559832705353 0.6382354323639365
vt 0.4846933852643794 0.677735281951225
vt 0.43165721451941486 0.7167782794944988
vt 0.2550476045253752 0.5344172832666642
vt 0.2595351045253752 0.4697141582666642
vt 0.32588125 0.4789615436760609
vt 0.3125046788205298 0.5424257019427251
vt 0.2595351045253752 0.4697141582666642
vt 0.27291167570484537 0.40625
vt 0.33036875 0.41425841867606095
vt 0.32588125 0.4789615436760609
vt 0.20807836189900894 0.9437509121874605
vt 0.17122925502072434 0.9070791249058321
vt 0.18767855959456634 0.8792306322518395
vt 0.2375822160158015 0.8938012100011109
vt 0.18767855959456634 0.8792306322518395
vt 0.17122925502072436 0.9070791249058321
vt 0.12696689801282082 0.8621523100453155
vt 0.43165721451941486 0.7167782794944988
vt 0.4420433310066085 0.7486210160819365
vt 0.37533657048246516 0.7527635162214463
vt 0.014503124999999999 0.71875
vt 0.0022437499999999992 0.65625
vt 0.06025625 0.65625
vt 0.04799687500000001 0.71875
vt 0.35044388843880503 0.5582891902204976
vt 0.32843438713483636 0.49727924108622745
vt 0.39286875 0.4789615436760609
vt 0.4062453211794702 0.5424257019427251
vt 0.32588125 0.4789615436760609
vt 0.33036875 0.41425841867606095
vt 0.38838125 0.41425841867606095
vt 0.39286875 0.4789615436760609
vt 0.23785987155705723 0.8928141733910055
vt 0.18767855959456634 0.8792306322518395
vt 0.18816045365153064 0.8468904723545791
vt 0.23872420791198332 0.8348081126825283
vt 0.18816045365153064 0.8468904723545791
vt 0.18767855959456634 0.8792306322518395
vt 0.12696689801282082 0.8621523100453155
vt 0.44204333100660853 0.7486210160819365
vt 0.4356766980396687 0.7815041009999726
vt 0.37533657048246516 0.7527635162214463
vt 0.5681751302517806 0.8125
vt 0.5151389595068159 0.7734570024567261
vt 0.5576267464441418 0.7339571528694377
vt 0.5927056247785127 0.7896946031094292
vt 0.4062453211794702 0.5424257019427251
vt 0.39286875 0.4789615436760609
vt 0.4592148954746248 0.4697141582666642
vt 0.4637023954746248 0.534417283266664
vt 0.39286875 0.4789615436760609
vt 0.38838125 0.41425841867606095
vt 0.44583832429515463 0.40625
vt 0.4592148954746248 0.4697141582666642
vt 0.23847608436955714 0.8338132415466659
vt 0.1881604536515306 0.8468904723545791
vt 0.17254819712170769 0.8185642369868233
vt 0.2104735790343269 0.7830066489508186
vt 0.17254819712170769 0.8185642369868233
vt 0.18816045365153064 0.8468904723545791
vt 0.1269668980128208 0.8621523100453155
vt 0.40004954051745295 0.7993285327333016
vt 0.36925435032312565 0.8125
vt 0.3592073447711953 0.7464242110416324
vt 0.5927056247785127 0.7896946031094292
vt 0.5576267464441418 0.7339571528694377
vt 0.61161875 0.7127365565471335
vt 0.6238781250000001 0.7774428065471335
vt 0.005047604525375199 0.5969172832666642
vt 0.00953510452537519 0.5322141582666642
vt 0.07588124999999998 0.5414615436760609
vt 0.06250467882052982 0.6049257019427251
vt 0.00953510452537519 0.5322141582666642
vt 0.02291167570484537 0.46875
vt 0.08036875 0.47675841867606095
vt 0.07588125 0.541461543676061
vt 0.20976493389512654 0.7822655983884641
vt 0.17254819712170769 0.8185642369868233
vt 0.1449478760948487 0.8017018396698098
vt 0.16026035809390818 0.7520208115485568
vt 0.1449478760948487 0.8017018396698098
vt 0.17254819712170769 0.8185642369868233
vt 0.12696689801282082 0.8621523100453155
vt 0.36925435032312565 0.8125
vt 0.3359359531037044 0.8090771801403869
vt 0.3592073447711953 0.7464242110416324
vt 0.6238781250000001 0.7774428065471335
vt 0.61161875 0.7127365565471335
vt 0.66963125 0.7127365565471335
vt 0.6573718749999999 0.7774428065471335
vt 0.10044388843880506 0.6207891902204976
vt 0.07843438713483636 0.5597792410862275
vt 0.14286875000000002 0.541461543676061
vt 0.15624532117947018 0.6049257019427251
vt 0.07588125 0.541461543676061
vt 0.08036875 0.47675841867606095
vt 0.13838125 0.47675841867606095
vt 0.14286875000000002 0.541461543676061
vt 0.15927756787199385 0.7517284808300413
vt 0.1449478760948487 0.8017018396698098
vt 0.1126184857088166 0.8007381585347674
vt 0.10129082360858327 0.75
vt 0.1126184857088166 0.8007381585347674
vt 0.1449478760948487 0.8017018396698098
vt 0.12696689801282085 0.8621523100453155
vt 0.3359359531037044 0.8090771801403869
vt 0.308461937937784 0.7899196808326673
vt 0.3592073447711953 0.7464242110416324
vt 0.6573718749999999 0.7774428065471335
vt 0.66963125 0.7127365565471335
vt 0.7236232535558582 0.7339571528694377
vt 0.6885443752214873 0.7896946031094292
vt 0.15624532117947018 0.6049257019427251
vt 0.14286875000000002 0.541461543676061
vt 0.20921489547462477 0.5322141582666642
vt 0.2137023954746248 0.596917283266664
vt 0.14286875000000002 0.541461543676061
vt 0.13838125 0.47675841867606095
vt 0.19583832429515463 0.46875
vt 0.20921489547462482 0.5322141582666642
vt 0.08147329258087138 0.7513045641954892
vt 0.10160281612202808 0.7992365883772643
vt 0.07579681571373617 0.8187344987009306
vt 0.03518705184854956 0.7862764682774741
vt 0.07579681571373617 0.8187344987009306
vt 0.10160281612202808 0.7992365883772643
vt 0.1254481962738011 0.8576229976419525
vt 0.308461937937784 0.7899196808326673
vt 0.29373213460209524 0.7598387203633865
vt 0.3592073447711953 0.7464242110416324
vt 0.6885443752214873 0.7896946031094292
vt 0.7236232535558582 0.7339571528694377
vt 0.7661110404931841 0.7734570024567261
vt 0.7130748697482194 0.8125
vt 0.5050476045253752 0.5969172832666642
vt 0.5095351045253752 0.5322141582666642
vt 0.57588125 0.5414615436760609
vt 0.5625046788205298 0.6049257019427251
vt 0.5095351045253752 0.5322141582666642
vt 0.5229116757048453 0.46875
vt 0.58036875 0.47675841867606095
vt 0.57588125 0.541461543676061
vt 0.03518705184854956 0.7862764682774741
vt 0.07579681571373617 0.8187344987009306
vt 0.06246555421182305 0.8482030519540191
vt 0.011275792088016684 0.8391319487209846
vt 0.06246555421182305 0.8482030519540191
vt 0.07579681571373617 0.8187344987009306
vt 0.12467157803601595 0.8585946611359598
vt 0.29373213460209524 0.7598387203633865
vt 0.2954457889129919 0.7263888372848877
vt 0.3592073447711953 0.7464242110416324
vt 0.108253125 0.71875
vt 0.09599375 0.65625
vt 0.15400625 0.65625
vt 0.141746875 0.71875
vt 0.600443888438805 0.6207891902204976
vt 0.5784343871348363 0.5597792410862275
vt 0.64286875 0.541461543676061
vt 0.6562453211794702 0.6049257019427251
vt 0.57588125 0.541461543676061
vt 0.58036875 0.47675841867606095
vt 0.63838125 0.47675841867606095
vt 0.64286875 0.541461543676061
vt 0.011275792088016698 0.8391319487209846
vt 0.06246555421182305 0.8482030519540191
vt 0.06485905583077 0.8804581184407372
vt 0.015568832093246748 0.8969853839151327
vt 0.06485905583077 0.8804581184407372
vt 0.06246555421182305 0.8482030519540191
vt 0.12445453516201227 0.8598194706001996
vt 0.2954457889129919 0.7263888372848877
vt 0.3131725333770464 0.697970642061253
vt 0.3592073447711953 0.7464242110416324
vt 0.2954457889129919 0.7263888372848877
vt 0.23405661473562062 0.7025443335518784
vt 0.26476003741062604 0.653322895211558
vt 0.3131725333770464 0.697970642061253
vt 0.6562453211794702 0.6049257019427251
vt 0.64286875 0.541461543676061
vt 0.7092148954746248 0.5322141582666642
vt 0.7137023954746248 0.596917283266664
vt 0.64286875 0.541461543676061
vt 0.63838125 0.47675841867606095
vt 0.6958383242951547 0.46875
vt 0.7092148954746248 0.5322141582666642
vt 0.015568832093246734 0.8969853839151327
vt 0.06485905583077 0.8804581184407372
vt 0.08239380953391617 0.9076362452458078
vt 0.04701957293819413 0.9457327023701406
vt 0.08239380953391617 0.9076362452458078
vt 0.06485905583077 0.8804581184407372
vt 0.12484998046847967 0.8609988301053717
vt 0.3131725333770464 0.697970642061253
vt 0.3424604697711953 0.6817210860416324
vt 0.3592073447711953 0.7464242110416324
vt 0.3131725333770464 0.697970642061253
vt 0.27106021005025877 0.6473372213939386
vt 0.3217880745045395 0.6191923475417053
vt 0.3424604697711953 0.6817210860416324
vt 0.2862976045253752 0.9719172832666642
vt 0.2907851045253752 0.9072141582666642
vt 0.35713125 0.9164615436760609
vt 0.3437546788205298 0.9799257019427251
vt 0.2907851045253752 0.9072141582666642
vt 0.30416167570484537 0.84375
vt 0.36161875 0.851758418676061
vt 0.35713125 0.9164615436760609
vt 0.04701957293819413 0.9457327023701406
vt 0.08239380953391617 0.9076362452458078
vt 0.11079502301282085 0.9231116850453154
vt 0.09796064801282085 0.9734898100453153
vt 0.11079502301282086 0.9231116850453154
vt 0.08239380953391617 0.9076362452458078
vt 0.1257615084636095 0.861845223953968
vt 0.3424604697711953 0.6817210860416324
vt 0.3759542197711953 0.6817210860416324
vt 0.3592073447711953 0.7464242110416324
vt 0.3424604697711953 0.6817210860416324
vt 0.3302010947711953 0.6170148360416324
vt 0.3882135947711953 0.6170148360416323
vt 0.3759542197711953 0.6817210860416324
vt 0.38169388843880503 0.9957891902204976
vt 0.35968438713483636 0.9347792410862275
vt 0.42411875 0.9164615436760609
vt 0.4374953211794702 0.9799257019427251
vt 0.35713125 0.9164615436760609
vt 0.36161875 0.851758418676061
vt 0.41963125 0.851758418676061
vt 0.42411875 0.9164615436760609
vt 0.09796064801282085 0.9734898100453153
vt 0.11079502301282085 0.9231116850453154
vt 0.14313877301282085 0.9231116850453154
vt 0.15597314801282086 0.9734898100453153
vt 0.14313877301282085 0.9231116850453154
vt 0.11079502301282085 0.9231116850453154
vt 0.12696689801282085 0.8621523100453155
vn 0.12940952255126031 0.9659258262890685 0.2241438680420132
vn 0.35355339059327384 0.7071067811865475 0.6123724356957946
vn 0.48296291314453405 0.2588190451025207 0.836516303737808
vn 0.4829629131445343 -0.2588190451025206 0.836516303737808
vn 0.15507181751136015 -0.9506897105022719 0.26859226675172515
vn 0.07004713106664606 -0.9901381710232812 0.12132518993186739
vn 0.22414386804201314 0.9659258262890683 0.12940952255126031
vn 0.6123724356957946 0.7071067811865476 0.3535533905932738
vn 0.8365163037378079 0.2588190451025208 0.48296291314453405
vn 0.8365163037378078 -0.2588190451025208 0.48296291314453427
vn 0.26859226675172526 -0.950689710502272 0.15507181751136026
vn 0.1213251899318674 -0.9901381710232812 0.07004713106664608
vn 0.2588190451025205 0.9659258262890685 0
vn 0.7071067811865477 0.7071067811865475 0
vn 0.9659258262890683 0.25881904510252063 0
vn 0.9659258262890683 -0.2588190451025205 0
vn 0.3101436350227206 -0.9506897105022719 0
vn 0.1400942621332922 -0.9901381710232813 0
vn 0.22414386804201314 0.9659258262890683 -0.12940952255126031
vn 0.6123724356957946 0.7071067811865475 -0.3535533905932739
vn 0.836516303737808 0.25881904510252063 -0.48296291314453416
vn 0.8365163037378078 -0.2588190451025205 -0.4829629131445343
vn 0.26859226675172515 -0.9506897105022719 -0.15507181751136015
vn 0.12132518993186739 -0.9901381710232813 -0.07004713106664608
vn 0.12940952255126031 0.9659258262890685 -0.22414386804201322
vn 0.35355339059327384 0.7071067811865475 -0.6123724356957945
vn 0.48296291314453427 0.2588190451025208 -0.836516303737808
vn 0.4829629131445343 -0.2588190451025208 -0.8365163037378078
vn 0.15507181751136037 -0.9506897105022719 -0.2685922667517252
vn 0.0700471310666461 -0.9901381710232812 -0.12132518993186735
vn 1.608589638639304e-16 0.9659258262890685 -0.2588190451025205
vn 3.466028960407396e-16 0.7071067811865475 -0.7071067811865477
vn 4.0022255066204975e-16 0.2588190451025207 -0.9659258262890683
vn 4.621371947209864e-16 -0.25881904510252063 -0.9659258262890684
vn 6.653356030089473e-17 -0.9506897105022719 -0.31014363502272063
vn 3.005317818740563e-17 -0.9901381710232814 -0.14009426213329224
vn -0.12940952255126023 0.9659258262890685 -0.22414386804201328
vn -0.3535533905932736 0.7071067811865475 -0.6123724356957947
vn -0.48296291314453377 0.25881904510252063 -0.8365163037378082
vn -0.48296291314453405 -0.2588190451025206 -0.8365163037378083
vn -0.15507181751136012 -0.9506897105022719 -0.2685922667517252
vn -0.07004713106664603 -0.9901381710232812 -0.12132518993186743
vn -0.22414386804201325 0.9659258262890685 -0.1294095225512603
vn -0.6123724356957947 0.7071067811865475 -0.3535533905932736
vn -0.836516303737808 0.25881904510252074 -0.4829629131445339
vn -0.8365163037378079 -0.25881904510252074 -0.4829629131445341
vn -0.26859226675172526 -0.950689710502272 -0.1550718175113602
vn -0.12132518993186743 -0.9901381710232812 -0.07004713106664606
vn -0.2588190451025205 0.9659258262890683 -5.3619654621310167e-17
vn -0.7071067811865476 0.7071067811865475 -2.310685973604932e-16
vn -0.9659258262890683 0.2588190451025207 -2.0011127533102507e-16
vn -0.9659258262890684 -0.25881904510252063 -2.310685973604934e-16
vn -0.3101436350227206 -0.950689710502272 -6.653356030089479e-17
vn -0.14009426213329224 -0.9901381710232813 -3.005317818740566e-17
vn -0.22414386804201325 0.9659258262890685 0.12940952255126023
vn -0.6123724356957948 0.7071067811865474 0.3535533905932737
vn -0.8365163037378082 0.25881904510252063 0.48296291314453377
vn -0.836516303737808 -0.2588190451025205 0.482962913144534
vn -0.2685922667517252 -0.9506897105022719 0.15507181751136015
vn -0.12132518993186743 -0.9901381710232812 0.07004713106664605
vn -0.12940952255126034 0.9659258262890683 0.22414386804201317
vn -0.35355339059327395 0.7071067811865476 0.6123724356957946
vn -0.4829629131445341 0.2588190451025208 0.8365163037378079
vn -0.48296291314453427 -0.2588190451025208 0.8365163037378079
vn -0.15507181751136026 -0.950689710502272 0.26859226675172526
vn -0.07004713106664609 -0.9901381710232812 0.12132518993186742
vn 0 0.9659258262890685 0.2588190451025205
vn 0 0.7071067811865475 0.7071067811865476
vn 0 0.25881904510252063 0.9659258262890683
vn 0 -0.2588190451025206 0.9659258262890684
vn 0 -0.950689710502272 0.3101436350227206
vn 0 -0.9901381710232814 0.14009426213329224
usemtl m_7be9c913-aba4-fde6-b1f8-87dda91cc02c
f 3/1/1 8/2/1 2/3/1
f 3/4/2 4/5/2 9/6/2 8/7/2
f 4/8/3 5/9/3 10/10/3 9/11/3
f 5/12/4 6/13/4 11/14/4 10/15/4
f 6/16/5 7/17/5 12/18/5 11/19/5
f 12/20/6 7/21/6 1/22/6
f 8/23/7 13/24/7 2/25/7
f 8/26/8 9/27/8 14/28/8 13/29/8
f 9/30/9 10/31/9 15/32/9 14/33/9
f 10/34/10 11/35/10 16/36/10 15/37/10
f 11/38/11 12/39/11 17/40/11 16/41/11
f 17/42/12 12/43/12 1/44/12
f 13/45/13 18/46/13 2/47/13
f 13/48/14 14/49/14 19/50/14 18/51/14
f 14/52/15 15/53/15 20/54/15 19/55/15
f 15/56/16 16/57/16 21/58/16 20/59/16
f 16/60/17 17/61/17 22/62/17 21/63/17
f 22/64/18 17/65/18 1/66/18
f 18/67/19 23/68/19 2/69/19
f 18/70/20 19/71/20 24/72/20 23/73/20
f 19/74/21 20/75/21 25/76/21 24/77/21
f 20/78/22 21/79/22 26/80/22 25/81/22
f 21/82/23 22/83/23 27/84/23 26/85/23
f 27/86/24 22/87/24 1/88/24
f 23/89/25 28/90/25 2/91/25
f 23/92/26 24/93/26 29/94/26 28/95/26
f 24/96/27 25/97/27 30/98/27 29/99/27
f 25/100/28 26/101/28 31/102/28 30/103/28
f 26/104/29 27/105/29 32/106/29 31/107/29
f 32/108/30 27/109/30 1/110/30
f 28/111/31 33/112/31 2/113/31
f 28/114/32 29/115/32 34/116/32 33/117/32
f 29/118/33 30/119/33 35/120/33 34/121/33
f 30/122/34 31/123/34 36/124/34 35/125/34
f 31/126/35 32/127/35 37/128/35 36/129/35
f 37/130/36 32/131/36 1/132/36
f 33/133/37 38/134/37 2/135/37
f 33/136/38 34/137/38 39/138/38 38/139/38
f 34/140/39 35/141/39 40/142/39 39/143/39
f 35/144/40 36/145/40 41/146/40 40/147/40
f 36/148/41 37/149/41 42/150/41 41/151/41
f 42/152/42 37/153/42 1/154/42
f 38/155/43 43/156/43 2/157/43
f 38/158/44 39/159/44 44/160/44 43/161/44
f 39/162/45 40/163/45 45/164/45 44/165/45
f 40/166/46 41/167/46 46/168/46 45/169/46
f 41/170/47 42/171/47 47/172/47 46/173/47
f 47/174/48 42/175/48 1/176/48
f 43/177/49 48/178/49 2/179/49
f 43/180/50 44/181/50 49/182/50 48/183/50
f 44/184/51 45/185/51 50/186/51 49/187/51
f 45/188/52 46/189/52 51/190/52 50/191/52
f 46/192/53 47/193/53 52/194/53 51/195/53
f 52/196/54 47/197/54 1/198/54
f 48/199/55 53/200/55 2/201/55
f 48/202/56 49/203/56 54/204/56 53/205/56
f 49/206/57 50/207/57 55/208/57 54/209/57
f 50/210/58 51/211/58 56/212/58 55/213/58
f 51/214/59 52/215/59 57/216/59 56/217/59
f 57/218/60 52/219/60 1/220/60
f 53/221/61 58/222/61 2/223/61
f 53/224/62 54/225/62 59/226/62 58/227/62
f 54/228/63 55/229/63 60/230/63 59/231/63
f 55/232/64 56/233/64 61/234/64 60/235/64
f 56/236/65 57/237/65 62/238/65 61/239/65
f 62/240/66 57/241/66 1/242/66
f 58/243/67 3/244/67 2/245/67
f 58/246/68 59/247/68 4/248/68 3/249/68
f 59/250/69 60/251/69 5/252/69 4/253/69
f 60/254/70 61/255/70 6/256/70 5/257/70
f 61/258/71 62/259/71 7/260/71 6/261/71
f 7/262/72 62/263/72 1/264/72