# Made in Blockbench 4.8.2
mtllib stoneshooter.mtl

o sphere
v 0 -0.2483315970410047 -0.19973461870958695
v 0 0.6386792361372171 0.26201399452544694
v 0.06698729810778065 0.4638236237215182 0.45283541081437284
v 0.11602540378443862 0.21698351323077422 0.5306637986988588
v 0.13397459621556132 -0.03570048706941073 0.4746451044970408
v 0.11602540378443864 -0.22652190335833658 0.299789492081342
v 0.06698729810778065 -0.3043502912428227 0.05294938159059795
v 0.18301270189221924 0.49475491572714775 0.39341695170743235
v 0.31698729810778065 0.2705580825282736 0.4277480086181843
v 0.3660254037844386 0.026162096941848317 0.3558081862831599
v 0.31698729810778065 -0.17294733406083718 0.19687370200066748
v 0.18301270189221924 -0.27341899923719315 -0.0064690775163425
v 0.24999999999999994 0.5483294850246471 0.2905011616267579
v 0.4330127018922193 0.3633519585451622 0.249492631297363
v 0.49999999999999994 0.13331123553684715 0.14997660612181088
v 0.43301270189221935 -0.08015345804394854 0.01861832467984609
v 0.24999999999999994 -0.21984442993969378 -0.109384867597017
v 0.24999999999999994 0.6101920690359062 0.17166424341287695
v 0.4330127018922193 0.4705010971401611 0.0436610511360139
v 0.49999999999999994 0.2570364035593653 -0.08769723030595095
v 0.43301270189221935 0.02699568055105029 -0.187213255481503
v 0.24999999999999994 -0.1579818459284347 -0.22822178581089791
v 0.18301270189221927 0.6637666383334055 0.06874845333220253
v 0.31698729810778065 0.5632949731570496 -0.13459432618480735
v 0.36602540378443865 0.36418554215436405 -0.29352881046729995
v 0.3169872981077807 0.11978955656793883 -0.3654686328023243
v 0.18301270189221927 -0.10440727663093535 -0.33113757589157233
v 0.06698729810778072 0.694697930339035 0.009329994225262095
v 0.11602540378443875 0.616869542454549 -0.23751011626548182
v 0.1339745962155615 0.42604812616562315 -0.4123657286811807
v 0.11602540378443876 0.17336412586543826 -0.4683844228829988
v 0.06698729810778072 -0.07347598462530583 -0.39055603499851277
v -0.06698729810778055 0.6946979303390352 0.009329994225261984
v -0.11602540378443846 0.6168695424545491 -0.237510116265482
v -0.13397459621556113 0.42604812616562315 -0.4123657286811808
v -0.11602540378443847 0.1733641258654383 -0.4683844228829989
v -0.06698729810778055 -0.07347598462530577 -0.3905560349985129
v -0.18301270189221924 0.6637666383334055 0.06874845333220247
v -0.31698729810778065 0.5632949731570497 -0.1345943261848074
v -0.3660254037844386 0.3641855421543641 -0.29352881046729995
v -0.31698729810778065 0.11978955656793894 -0.36546863280232444
v -0.18301270189221924 -0.10440727663093533 -0.3311375758915724
v -0.24999999999999994 0.6101920690359062 0.17166424341287706
v -0.4330127018922193 0.470501097140161 0.04366105113601401
v -0.49999999999999994 0.25703640355936525 -0.08769723030595086
v -0.43301270189221935 0.026995680551050234 -0.1872132554815029
v -0.24999999999999994 -0.15798184592843476 -0.2282217858108978
v -0.24999999999999997 0.5483294850246472 0.29050116162675776
v -0.43301270189221935 0.36335195854516233 0.24949263129736282
v -0.5 0.13331123553684723 0.14997660612181068
v -0.4330127018922194 -0.08015345804394844 0.018618324679845918
v -0.24999999999999997 -0.21984442993969372 -0.1093848675970171
v -0.1830127018922193 0.49475491572714775 0.3934169517074323
v -0.3169872981077807 0.2705580825282736 0.4277480086181843
v -0.3660254037844387 0.026162096941848373 0.3558081862831599
v -0.31698729810778076 -0.17294733406083712 0.1968737020006674
v -0.1830127018922193 -0.27341899923719315 -0.006469077516342556
v -0.06698729810778063 0.4638236237215182 0.45283541081437284
v -0.1160254037844386 0.21698351323077422 0.5306637986988588
v -0.1339745962155613 -0.03570048706941073 0.4746451044970408
v -0.11602540378443861 -0.22652190335833658 0.299789492081342
v -0.06698729810778063 -0.3043502912428227 0.05294938159059795
vt 0.14939164831635698 0.8692172631592514
vt 0.17867977508097477 0.8854664760534866
vt 0.132644773316357 0.9339219506592514
vt 0.14939164831635698 0.8692172631592514
vt 0.161651023316357 0.8045125756592515
vt 0.2156428394235358 0.8257336489049332
vt 0.18056404031359585 0.8814693350751757
vt 0.35937032530960256 0.7923215614779073
vt 0.34599375 0.7288558110788994
vt 0.41233992630105853 0.7196086468390442
vt 0.41682742630105857 0.7843133343390443
vt 0.34599375 0.7288558110788994
vt 0.34150625 0.6641511235788994
vt 0.398963350991456 0.6561428964400362
vt 0.4123399263010586 0.7196086468390442
vt 0.34150625 0.6641511235788994
vt 0.34471621876566205 0.5983735821199276
vt 0.3778893069161914 0.59375
vt 0.398963350991456 0.6561428964400362
vt 0.7100975017646178 0.7395335239465135
vt 0.6808093749999999 0.7557827368407487
vt 0.6640625 0.6910780493407487
vt 0.1786797750809748 0.8854664760534866
vt 0.19640718540971197 0.9138842559122138
vt 0.132644773316357 0.9339219506592514
vt 0.18056404031359585 0.8814693350751757
vt 0.2156428394235358 0.8257336489049332
vt 0.2581299285311044 0.8652342490955065
vt 0.2050941319455136 0.9042751653295693
vt 0.36442257369894143 0.9874383343390443
vt 0.3689100736989414 0.9227336468390442
vt 0.43525625 0.9319808110788994
vt 0.42187967469039744 0.9954465614779073
vt 0.3689100736989414 0.9227336468390442
vt 0.382286649008544 0.8592678964400362
vt 0.43974375 0.8672761235788994
vt 0.43525625 0.9319808110788994
vt 0.7585076258684842 0.7841815781494856
vt 0.7100975017646178 0.7395335239465135
vt 0.727824912093355 0.7111157440877862
vt 0.7892122018474614 0.7349608592376166
vt 0.727824912093355 0.7111157440877862
vt 0.7100975017646178 0.7395335239465135
vt 0.6640625 0.6910780493407487
vt 0.196407185409712 0.9138842559122138
vt 0.19812201537083857 0.9473340787408466
vt 0.13264477331635702 0.9339219506592514
vt 0.014503124999999999 0.796875
vt 0.0022437499999999992 0.734375
vt 0.06025625 0.734375
vt 0.04799687500000001 0.796875
vt 0.43974375 0.9966854985788993
vt 0.43525625 0.9319808110788994
vt 0.50224375 0.9319808110788994
vt 0.49775625 0.9966854985788993
vt 0.43525625 0.9319808110788994
vt 0.43974375 0.8672761235788994
vt 0.49775625 0.8672761235788994
vt 0.50224375 0.9319808110788994
vt 0.43974375 0.8672761235788994
vt 0.452003125 0.8025714360788994
vt 0.485496875 0.8025714360788994
vt 0.49775625 0.8672761235788994
vt 0.7295397420544816 0.6776659212591535
vt 0.727824912093355 0.7111157440877862
vt 0.6640625 0.6910780493407487
vt 0.19812201537083857 0.9473340787408466
vt 0.18339362171125542 0.977415729448061
vt 0.13264477331635702 0.9339219506592514
vt 0.6228631413708434 0.4375
vt 0.5698273447852525 0.3984590837659372
vt 0.6123144338928211 0.35895848357536386
vt 0.6473932330027611 0.41469416974560636
vt 0.5156203253096026 0.9954465614779073
vt 0.50224375 0.9319808110788994
vt 0.5685899263010585 0.9227336468390442
vt 0.5730774263010585 0.9874383343390443
vt 0.50224375 0.9319808110788994
vt 0.49775625 0.8672761235788994
vt 0.5552133509914561 0.8592678964400362
vt 0.5685899263010585 0.9227336468390442
vt 0.49775625 0.8672761235788994
vt 0.500966218765662 0.8014985821199276
vt 0.5341393069161914 0.796875
vt 0.5552133509914561 0.8592678964400362
vt 0.7148113483948986 0.6475842705519391
vt 0.7295397420544816 0.6776659212591535
vt 0.6640625 0.6910780493407486
vt 0.18339362171125542 0.977415729448061
vt 0.1559207287956335 0.9965748380888426
vt 0.132644773316357 0.9339219506592514
vt 0.6473932330027611 0.41469416974560636
vt 0.6123144338928211 0.35895848357536386
vt 0.66630625 0.3377374103296821
vt 0.6785656250000001 0.4024420978296821
vt 0.005047573698941446 0.5968133343390443
vt 0.009535073698941424 0.5321086468390442
vt 0.07588125 0.5413558110788994
vt 0.06250467469039746 0.6048215614779073
vt 0.009535073698941424 0.5321086468390442
vt 0.022911649008543977 0.4686428964400362
vt 0.08036875 0.4766511235788994
vt 0.07588125 0.5413558110788994
vt 0.022911649008543977 0.4686428964400362
vt 0.043985693083808605 0.40625
vt 0.07715878123433789 0.41087358211992764
vt 0.08036874999999997 0.4766511235788994
vt 0.6873384554792766 0.6284251619111575
vt 0.7148113483948986 0.6475842705519391
vt 0.6640625 0.6910780493407486
vt 0.14268697437289224 1
vt 0.10936881783708047 0.9965748380888426
vt 0.132644773316357 0.9339219506592514
vt 0.6785656250000001 0.4024420978296821
vt 0.66630625 0.3377374103296821
vt 0.72431875 0.3377374103296821
vt 0.7120593749999999 0.4024420978296821
vt 0.08036875 0.6060604985788993
vt 0.07588125 0.5413558110788994
vt 0.14286875 0.5413558110788994
vt 0.13838125 0.6060604985788993
vt 0.07588125 0.5413558110788994
vt 0.08036875 0.4766511235788994
vt 0.13838125 0.4766511235788994
vt 0.14286875 0.5413558110788994
vt 0.08036875 0.4766511235788994
vt 0.09262812499999999 0.41194643607889936
vt 0.126121875 0.41194643607889936
vt 0.13838125 0.4766511235788994
vt 0.6540202989434649 0.625
vt 0.6873384554792766 0.6284251619111575
vt 0.6640625 0.6910780493407487
vt 0.10936881783708045 0.9965748380888426
vt 0.08189592492145856 0.977415729448061
vt 0.132644773316357 0.9339219506592514
vt 0.7120593749999999 0.4024420978296821
vt 0.72431875 0.3377374103296821
vt 0.7783105661071787 0.35895848357536386
vt 0.7432317669972388 0.41469416974560636
vt 0.15624532530960256 0.6048215614779073
vt 0.14286875 0.5413558110788994
vt 0.20921492630105853 0.5321086468390442
vt 0.21370242630105857 0.5968133343390443
vt 0.14286875 0.5413558110788994
vt 0.13838125 0.4766511235788994
vt 0.19583835099145602 0.4686428964400362
vt 0.2092149263010586 0.5321086468390442
vt 0.13838125 0.4766511235788994
vt 0.14159121876566205 0.41087358211992764
vt 0.17476430691619138 0.40625
vt 0.19583835099145602 0.4686428964400362
vt 0.6133136516051014 0.6475842705519391
vt 0.6407865445207234 0.6284251619111575
vt 0.6640625 0.6910780493407486
vt 0.08189592492145856 0.977415729448061
vt 0.06716753126187541 0.9473340787408466
vt 0.13264477331635696 0.9339219506592514
vt 0.7432317669972389 0.41469416974560636
vt 0.7783105661071787 0.35895848357536386
vt 0.8207976552147475 0.3984590837659372
vt 0.7677618586291566 0.4375
vt 0.41129757369894143 0.5968133343390443
vt 0.4157850736989414 0.5321086468390442
vt 0.48213125 0.5413558110788993
vt 0.46875467469039744 0.6048215614779073
vt 0.4157850736989414 0.5321086468390442
vt 0.429161649008544 0.4686428964400362
vt 0.48661875 0.4766511235788994
vt 0.48213125 0.5413558110788993
vt 0.429161649008544 0.4686428964400362
vt 0.4502356930838086 0.40625
vt 0.4834087812343379 0.4108735821199275
vt 0.48661875 0.4766511235788994
vt 0.5985852579455184 0.6776659212591535
vt 0.6133136516051015 0.6475842705519391
vt 0.6640625 0.6910780493407486
vt 0.06716753126187543 0.9473340787408466
vt 0.06888236122300198 0.9138842559122138
vt 0.13264477331635696 0.9339219506592514
vt 0.233253125 1
vt 0.22099375 0.9375
vt 0.27900625 0.9375
vt 0.266746875 1
vt 0.48661875 0.6060604985788993
vt 0.48213125 0.5413558110788994
vt 0.54911875 0.5413558110788994
vt 0.54463125 0.6060604985788993
vt 0.48213125 0.5413558110788994
vt 0.48661875 0.4766511235788994
vt 0.54463125 0.4766511235788994
vt 0.54911875 0.5413558110788994
vt 0.48661875 0.4766511235788994
vt 0.498878125 0.41194643607889936
vt 0.5323718749999999 0.41194643607889936
vt 0.54463125 0.4766511235788994
vt 0.600300087906645 0.7111157440877862
vt 0.5985852579455184 0.6776659212591535
vt 0.6640625 0.6910780493407487
vt 0.068882361223002 0.9138842559122138
vt 0.08660977155173918 0.8854664760534866
vt 0.132644773316357 0.9339219506592514
vt 0.068882361223002 0.9138842559122138
vt 0.007495071468895609 0.8900391407623836
vt 0.0381996474478728 0.8408184218505146
vt 0.0866097715517392 0.8854664760534866
vt 0.5624953253096026 0.6048215614779073
vt 0.54911875 0.5413558110788993
vt 0.6154649263010585 0.5321086468390442
vt 0.6199524263010585 0.5968133343390442
vt 0.54911875 0.5413558110788993
vt 0.54463125 0.4766511235788994
vt 0.6020883509914561 0.4686428964400362
vt 0.6154649263010585 0.5321086468390442
vt 0.5389127981525386 0.7349608592376166
vt 0.600300087906645 0.7111157440877862
vt 0.6180274982353822 0.7395335239465135
vt 0.5696173741315158 0.7841815781494856
vt 0.6180274982353822 0.7395335239465135
vt 0.600300087906645 0.7111157440877862
vt 0.6640625 0.6910780493407487
vt 0.0866097715517392 0.8854664760534866
vt 0.115897898316357 0.8692172631592514
vt 0.132644773316357 0.9339219506592514
vt 0.0866097715517392 0.8854664760534866
vt 0.044498799460007316 0.8348339283262326
vt 0.09522699364347109 0.8066896487807407
vt 0.115897898316357 0.8692172631592514
vt 0.20817257369894143 0.7843133343390443
vt 0.2126600736989414 0.7196086468390442
vt 0.27900625 0.7288558110788994
vt 0.26562967469039744 0.7923215614779073
vt 0.2126600736989414 0.7196086468390442
vt 0.22603664900854398 0.6561428964400362
vt 0.28349375 0.6641511235788994
vt 0.27900625 0.7288558110788994
vt 0.22603664900854398 0.6561428964400362
vt 0.24711069308380862 0.59375
vt 0.2802837812343379 0.5983735821199276
vt 0.28349375 0.6641511235788994
vt 0.6473156250000001 0.7557827368407487
vt 0.6180274982353822 0.7395335239465135
vt 0.6640625 0.6910780493407487
vt 0.115897898316357 0.8692172631592514
vt 0.14939164831635698 0.8692172631592514
vt 0.132644773316357 0.9339219506592514
vt 0.115897898316357 0.8692172631592514
vt 0.10363852331635699 0.8045125756592515
vt 0.161651023316357 0.8045125756592515
vt 0.14939164831635698 0.8692172631592514
vt 0.28349375 0.7935604985788993
vt 0.27900625 0.7288558110788994
vt 0.34599375 0.7288558110788994
vt 0.34150625 0.7935604985788993
vt 0.27900625 0.7288558110788994
vt 0.28349375 0.6641511235788994
vt 0.34150625 0.6641511235788994
vt 0.34599375 0.7288558110788994
vt 0.28349375 0.6641511235788994
vt 0.295753125 0.5994464360788994
vt 0.329246875 0.5994464360788994
vt 0.34150625 0.6641511235788994
vt 0.6808093749999999 0.7557827368407487
vt 0.6473156250000001 0.7557827368407487
vt 0.6640625 0.6910780493407487
vn 0.1294095225512603 0.7532885517314928 0.644832949920617
vn 0.35355339059327384 0.3444492521603569 0.8696865600238806
vn 0.48296291314453405 -0.1566849463606507 0.8615083587005441
vn 0.4829629131445343 -0.6158355400382077 0.6224896883907348
vn 0.35355339059327406 -0.909973498092143 0.21667540877992686
vn 0.12940952255126043 -0.9602847921985649 -0.2471968716331459
vn 0.22414386804201314 0.7970320043875765 0.5608025591962709
vn 0.6123724356957946 0.46395858731526174 0.6401112631851019
vn 0.8365163037378079 0.006567841450338008 0.547902671137419
vn 0.8365163037378078 -0.45258275222721955 0.3088840008276098
vn 0.6123724356957945 -0.7904641629372386 -0.012899888058851616
vn 0.22414386804201336 -0.9165413395424812 -0.3312272623574921
vn 0.25881904510252046 0.8567866719650288 0.44601491077688155
vn 0.7071067811865476 0.62721137512625 0.32650557562197685
vn 0.9659258262890683 0.22957529683877856 0.1195093351549046
vn 0.9659258262890683 -0.22957529683877848 -0.11950933515490454
vn 0.7071067811865477 -0.6272113751262499 -0.3265055756219768
vn 0.25881904510252074 -0.8567866719650288 -0.44601491077688155
vn 0.22414386804201308 0.9165413395424811 0.3312272623574923
vn 0.6123724356957945 0.7904641629372386 0.012899888058851616
vn 0.8365163037378082 0.45258275222721944 -0.30888400082760986
vn 0.8365163037378078 -0.006567841450337619 -0.5479026711374192
vn 0.6123724356957945 -0.4639585873152613 -0.6401112631851023
vn 0.22414386804201328 -0.7970320043875764 -0.560802559196271
vn 0.12940952255126031 0.960284792198565 0.24719687163314613
vn 0.3535533905932739 0.909973498092143 -0.21667540877992686
vn 0.48296291314453416 0.6158355400382081 -0.6224896883907345
vn 0.4829629131445345 0.15668494636065022 -0.861508358700544
vn 0.3535533905932739 -0.3444492521603567 -0.8696865600238807
vn 0.1294095225512604 -0.7532885517314927 -0.6448329499206171
vn 2.1447861848524054e-16 0.9762960071199335 0.21643961393810318
vn 6.932057920814792e-16 0.953716950748227 -0.3007057995042733
vn 4.0022255066204975e-16 0.6755902076156604 -0.7372773368101241
vn 4.621371947209863e-16 0.216439613938103 -0.9762960071199333
vn 6.003338259930746e-16 -0.30070579950427323 -0.953716950748227
vn 2.144786184852407e-16 -0.7372773368101242 -0.6755902076156601
vn -0.12940952255126026 0.960284792198565 0.24719687163314613
vn -0.35355339059327373 0.9099734980921432 -0.21667540877992691
vn -0.4829629131445339 0.6158355400382077 -0.6224896883907353
vn -0.48296291314453377 0.15668494636065083 -0.8615083587005442
vn -0.3535533905932739 -0.3444492521603567 -0.8696865600238807
vn -0.12940952255126037 -0.7532885517314927 -0.6448329499206171
vn -0.2241438680420132 0.9165413395424811 0.33122726235749234
vn -0.6123724356957947 0.7904641629372384 0.01289988805885195
vn -0.836516303737808 0.45258275222721933 -0.3088840008276096
vn -0.836516303737808 -0.006567841450337869 -0.5479026711374189
vn -0.6123724356957947 -0.4639585873152616 -0.6401112631851018
vn -0.22414386804201336 -0.7970320043875765 -0.5608025591962709
vn -0.2588190451025206 0.8567866719650289 0.44601491077688155
vn -0.7071067811865476 0.6272113751262501 0.32650557562197663
vn -0.9659258262890683 0.2295752968387787 0.11950933515490444
vn -0.9659258262890683 -0.22957529683877845 -0.1195093351549048
vn -0.7071067811865476 -0.6272113751262499 -0.326505575621977
vn -0.2588190451025207 -0.8567866719650287 -0.44601491077688155
vn -0.2241438680420132 0.7970320043875765 0.5608025591962708
vn -0.6123724356957948 0.4639585873152615 0.6401112631851018
vn -0.8365163037378082 0.006567841450337952 0.5479026711374186
vn -0.836516303737808 -0.45258275222721916 0.3088840008276097
vn -0.6123724356957948 -0.7904641629372384 -0.012899888058851838
vn -0.22414386804201336 -0.9165413395424811 -0.3312272623574922
vn -0.12940952255126034 0.7532885517314928 0.644832949920617
vn -0.35355339059327395 0.3444492521603569 0.8696865600238807
vn -0.4829629131445341 -0.15668494636065053 0.8615083587005441
vn -0.48296291314453427 -0.615835540038208 0.6224896883907347
vn -0.353553390593274 -0.9099734980921432 0.21667540877992691
vn -0.12940952255126045 -0.9602847921985649 -0.2471968716331459
vn 0 0.7372773368101243 0.6755902076156599
vn 0 0.3007057995042732 0.953716950748227
vn 0 -0.216439613938103 0.9762960071199334
vn 0 -0.6755902076156601 0.7372773368101243
vn 0 -0.9537169507482268 0.30070579950427334
vn 0 -0.9762960071199334 -0.21643961393810293
usemtl m_3723953f-ffb2-0982-978d-80781d97d295
f 3/1/1 8/2/1 2/3/1
f 3/4/2 4/5/2 9/6/2 8/7/2
f 4/8/3 5/9/3 10/10/3 9/11/3
f 5/12/4 6/13/4 11/14/4 10/15/4
f 6/16/5 7/17/5 12/18/5 11/19/5
f 12/20/6 7/21/6 1/22/6
f 8/23/7 13/24/7 2/25/7
f 8/26/8 9/27/8 14/28/8 13/29/8
f 9/30/9 10/31/9 15/32/9 14/33/9
f 10/34/10 11/35/10 16/36/10 15/37/10
f 11/38/11 12/39/11 17/40/11 16/41/11
f 17/42/12 12/43/12 1/44/12
f 13/45/13 18/46/13 2/47/13
f 13/48/14 14/49/14 19/50/14 18/51/14
f 14/52/15 15/53/15 20/54/15 19/55/15
f 15/56/16 16/57/16 21/58/16 20/59/16
f 16/60/17 17/61/17 22/62/17 21/63/17
f 22/64/18 17/65/18 1/66/18
f 18/67/19 23/68/19 2/69/19
f 18/70/20 19/71/20 24/72/20 23/73/20
f 19/74/21 20/75/21 25/76/21 24/77/21
f 20/78/22 21/79/22 26/80/22 25/81/22
f 21/82/23 22/83/23 27/84/23 26/85/23
f 27/86/24 22/87/24 1/88/24
f 23/89/25 28/90/25 2/91/25
f 23/92/26 24/93/26 29/94/26 28/95/26
f 24/96/27 25/97/27 30/98/27 29/99/27
f 25/100/28 26/101/28 31/102/28 30/103/28
f 26/104/29 27/105/29 32/106/29 31/107/29
f 32/108/30 27/109/30 1/110/30
f 28/111/31 33/112/31 2/113/31
f 28/114/32 29/115/32 34/116/32 33/117/32
f 29/118/33 30/119/33 35/120/33 34/121/33
f 30/122/34 31/123/34 36/124/34 35/125/34
f 31/126/35 32/127/35 37/128/35 36/129/35
f 37/130/36 32/131/36 1/132/36
f 33/133/37 38/134/37 2/135/37
f 33/136/38 34/137/38 39/138/38 38/139/38
f 34/140/39 35/141/39 40/142/39 39/143/39
f 35/144/40 36/145/40 41/146/40 40/147/40
f 36/148/41 37/149/41 42/150/41 41/151/41
f 42/152/42 37/153/42 1/154/42
f 38/155/43 43/156/43 2/157/43
f 38/158/44 39/159/44 44/160/44 43/161/44
f 39/162/45 40/163/45 45/164/45 44/165/45
f 40/166/46 41/167/46 46/168/46 45/169/46
f 41/170/47 42/171/47 47/172/47 46/173/47
f 47/174/48 42/175/48 1/176/48
f 43/177/49 48/178/49 2/179/49
f 43/180/50 44/181/50 49/182/50 48/183/50
f 44/184/51 45/185/51 50/186/51 49/187/51
f 45/188/52 46/189/52 51/190/52 50/191/52
f 46/192/53 47/193/53 52/194/53 51/195/53
f 52/196/54 47/197/54 1/198/54
f 48/199/55 53/200/55 2/201/55
f 48/202/56 49/203/56 54/204/56 53/205/56
f 49/206/57 50/207/57 55/208/57 54/209/57
f 50/210/58 51/211/58 56/212/58 55/213/58
f 51/214/59 52/215/59 57/216/59 56/217/59
f 57/218/60 52/219/60 1/220/60
f 53/221/61 58/222/61 2/223/61
f 53/224/62 54/225/62 59/226/62 58/227/62
f 54/228/63 55/229/63 60/230/63 59/231/63
f 55/232/64 56/233/64 61/234/64 60/235/64
f 56/236/65 57/237/65 62/238/65 61/239/65
f 62/240/66 57/241/66 1/242/66
f 58/243/67 3/244/67 2/245/67
f 58/246/68 59/247/68 4/248/68 3/249/68
f 59/250/69 60/251/69 5/252/69 4/253/69
f 60/254/70 61/255/70 6/256/70 5/257/70
f 61/258/71 62/259/71 7/260/71 6/261/71
f 7/262/72 62/263/72 1/264/72