# Made in Blockbench 4.8.1
mtllib tree.mtl

o cuboid
v 0.0625 0.75 0.0625
v 0.0625 0.75 -0.0625
v 0.0625 0 0.0625
v 0.0625 0 -0.0625
v -0.0625 0.75 0.0625
v -0.0625 0.75 -0.0625
v -0.0625 0 0.0625
v -0.0625 0 -0.0625
vt 0.015625 0.6796875
vt 0 0.6796875
vt 0 0.5859375
vt 0.015625 0.5859375
vt 0.28125 0.5234375
vt 0.28125 0.6171875
vt 0.265625 0.6171875
vt 0.265625 0.5234375
vt 0.125 0.984375
vt 0.140625 0.984375
vt 0.140625 1
vt 0.125 1
vt 0.140625 0.9609375
vt 0.140625 0.9765625
vt 0.125 0.9765625
vt 0.125 0.9609375
vt 0.3046875 0.5234375
vt 0.3046875 0.6171875
vt 0.2890625 0.6171875
vt 0.2890625 0.5234375
vt 0.328125 0.6171875
vt 0.3125 0.6171875
vt 0.3125 0.5234375
vt 0.328125 0.5234375
vn 1 0 0
vn -1 0 0
vn 0 1 0
vn 0 -1 0
vn 0 0 1
vn 0 0 -1
usemtl m_7bea0bc8-710e-ced1-2a4d-2822a5fd8ccb
f 2/1/1 1/2/1 3/3/1 4/4/1
f 7/5/2 5/6/2 6/7/2 8/8/2
f 5/9/3 1/10/3 2/11/3 6/12/3
f 4/13/4 3/14/4 7/15/4 8/16/4
f 3/17/5 1/18/5 5/19/5 7/20/5
f 6/21/6 2/22/6 4/23/6 8/24/6
o sphere
v 2.775557561562891e-17 0.4375 2.775557561562891e-17
v 2.775557561562891e-17 3.1875 2.775557561562891e-17
v 0.08373412263472585 3.0032849302036033 0.3124999999999999
v 0.14503175473054827 2.5 0.5412658773652741
v 0.1674682452694517 1.8125 0.625
v 0.1450317547305483 1.1250000000000002 0.5412658773652743
v 0.08373412263472585 0.6217150697963967 0.3124999999999999
v 0.22876587736527404 3.0032849302036033 0.2287658773652741
v 0.3962341226347258 2.5 0.3962341226347258
v 0.4575317547305482 1.8125 0.4575317547305483
v 0.3962341226347258 1.1250000000000002 0.3962341226347258
v 0.22876587736527404 0.6217150697963967 0.2287658773652741
v 0.3124999999999999 3.0032849302036033 0.08373412263472585
v 0.5412658773652741 2.5 0.14503175473054827
v 0.625 1.8125 0.1674682452694517
v 0.5412658773652743 1.1250000000000002 0.1450317547305483
v 0.3124999999999999 0.6217150697963967 0.08373412263472585
v 0.3124999999999999 3.0032849302036033 -0.08373412263472581
v 0.5412658773652741 2.5 -0.14503175473054827
v 0.625 1.8125 -0.1674682452694517
v 0.5412658773652743 1.1250000000000002 -0.1450317547305483
v 0.3124999999999999 0.6217150697963967 -0.08373412263472581
v 0.2287658773652741 3.0032849302036033 -0.22876587736527398
v 0.3962341226347258 2.5 -0.3962341226347257
v 0.4575317547305483 1.8125 -0.4575317547305482
v 0.3962341226347258 1.1250000000000002 -0.3962341226347257
v 0.2287658773652741 0.6217150697963967 -0.22876587736527398
v 0.08373412263472593 3.0032849302036033 -0.3124999999999998
v 0.14503175473054847 2.5 -0.541265877365274
v 0.16746824526945187 1.8125 -0.6249999999999998
v 0.14503175473054847 1.1250000000000002 -0.5412658773652741
v 0.08373412263472593 0.6217150697963967 -0.3124999999999998
v -0.08373412263472566 3.0032849302036033 -0.3124999999999999
v -0.145031754730548 2.5 -0.5412658773652741
v -0.16746824526945134 1.8125 -0.625
v -0.14503175473054802 1.1250000000000002 -0.5412658773652743
v -0.08373412263472566 0.6217150697963967 -0.3124999999999999
v -0.22876587736527398 3.0032849302036033 -0.22876587736527404
v -0.3962341226347257 2.5 -0.3962341226347258
v -0.4575317547305482 1.8125 -0.4575317547305483
v -0.3962341226347257 1.1250000000000002 -0.3962341226347258
v -0.22876587736527398 0.6217150697963967 -0.22876587736527404
v -0.3124999999999999 3.0032849302036033 -0.08373412263472572
v -0.5412658773652741 2.5 -0.1450317547305482
v -0.6249999999999998 1.8125 -0.1674682452694515
v -0.5412658773652741 1.1250000000000002 -0.1450317547305482
v -0.3124999999999999 0.6217150697963967 -0.08373412263472572
v -0.3124999999999999 3.0032849302036033 0.08373412263472571
v -0.5412658773652741 2.5 0.14503175473054805
v -0.625 1.8125 0.16746824526945142
v -0.5412658773652743 1.1250000000000002 0.14503175473054805
v -0.3124999999999999 0.6217150697963967 0.08373412263472571
v -0.22876587736527404 3.0032849302036033 0.228765877365274
v -0.3962341226347258 2.5 0.3962341226347257
v -0.4575317547305483 1.8125 0.4575317547305482
v -0.3962341226347258 1.1250000000000002 0.3962341226347257
v -0.22876587736527404 0.6217150697963967 0.228765877365274
v -0.08373412263472575 3.0032849302036033 0.3124999999999999
v -0.1450317547305482 2.5 0.5412658773652741
v -0.1674682452694516 1.8125 0.625
v -0.1450317547305482 1.1250000000000002 0.5412658773652743
v -0.08373412263472575 0.6217150697963967 0.3124999999999999
vt 0.22921640625 0.6257333178940787
vt 0.24803154019825335 0.6349079227176905
vt 0.21875 0.6710778491440788
vt 0.38911138927499384 0.9917434172756255
vt 0.3769920932715406 0.9232795990567785
vt 0.41317387603470734 0.9209327792161932
vt 0.4100003073391242 0.9903885219770123
vt 0.3769920932715406 0.9232795990567785
vt 0.36858984375000003 0.8370707943094323
vt 0.410369239101823 0.8343609025779744
vt 0.41317387603470734 0.9209327792161932
vt 0.36858984375000003 0.8370707943094323
vt 0.36578515624999997 0.7504981380594322
vt 0.40196693901316677 0.7481513182188471
vt 0.41036923910182305 0.8343609025779744
vt 0.36578515624999997 0.7504981380594322
vt 0.3689587249455832 0.6810423952986132
vt 0.38984764300971353 0.6796875
vt 0.40196693901316677 0.7481513182188471
vt 0.34959397091588407 0.661967370685421
vt 0.33077890625 0.6711421175908543
vt 0.3203125 0.6257983675908543
vt 0.24803154019825335 0.6349079227176905
vt 0.2609221105323294 0.6514008253009956
vt 0.21875 0.6710778491440788
vt 0.035312192660875846 0.6700760219770123
vt 0.032138623965292656 0.6006202792161932
vt 0.06832040672845943 0.6029670990567785
vt 0.05620111072500621 0.6714309172756255
vt 0.032138623965292656 0.6006202792161932
vt 0.03494326089817695 0.5140484025779744
vt 0.07672265625 0.5167582943094323
vt 0.06832040672845942 0.6029670990567785
vt 0.03494326089817695 0.5140484025779744
vt 0.04334556098683323 0.42783881821884706
vt 0.07952734375 0.4301856380594322
vt 0.07672265625 0.5167582943094323
vt 0.04334556098683323 0.42783881821884706
vt 0.05546485699028644 0.359375
vt 0.07635377505441682 0.3607298952986132
vt 0.07952734375 0.4301856380594322
vt 0.36248429215688505 0.6454742734182624
vt 0.34959397091588407 0.661967370685421
vt 0.32031250000000006 0.6257983675908543
vt 0.2609221105323294 0.6514008253009956
vt 0.2652799551319918 0.671875
vt 0.21875 0.6710778491440788
vt 0.08718984375 0.6724348568094323
vt 0.07952734375 0.6033301693094323
vt 0.11578515625 0.6033301693094323
vt 0.10812265625 0.6724348568094323
vt 0.07952734375 0.6033301693094323
vt 0.07672265625 0.5167582943094323
vt 0.11858984375 0.5167582943094323
vt 0.11578515625 0.6033301693094323
vt 0.07672265625 0.5167582943094323
vt 0.07952734375 0.4301856380594322
vt 0.11578515625 0.4301856380594322
vt 0.11858984375 0.5167582943094323
vt 0.07952734375 0.4301856380594322
vt 0.08718984375 0.36108095055943235
vt 0.10812265625 0.36108095055943235
vt 0.11578515625 0.4301856380594322
vt 0.3668416729245472 0.625
vt 0.36248429215688505 0.6454742734182624
vt 0.32031250000000006 0.6257983675908543
vt 0.3679841394676706 0.613135476156917
vt 0.38087470980174665 0.5966425735736117
vt 0.41015625 0.6328125
vt 0.13911138927499384 0.6714309172756255
vt 0.1269920932715406 0.6029670990567785
vt 0.16317387603470734 0.6006202792161932
vt 0.16000030733912418 0.6700760219770123
vt 0.1269920932715406 0.6029670990567785
vt 0.11858984375 0.5167582943094323
vt 0.16036923910182302 0.5140484025779744
vt 0.16317387603470734 0.6006202792161932
vt 0.11858984375 0.5167582943094323
vt 0.11578515625 0.4301856380594322
vt 0.15196693901316677 0.42783881821884706
vt 0.16036923910182305 0.5140484025779744
vt 0.11578515625 0.4301856380594322
vt 0.11895872494558318 0.3607298952986132
vt 0.13984764300971353 0.359375
vt 0.15196693901316677 0.42783881821884706
vt 0.18556227908411593 0.6064815030945667
vt 0.17267195784311495 0.5899884058274081
vt 0.21484374999999994 0.5703125
vt 0.38087470980174665 0.5966425735736117
vt 0.39968984375 0.58746796875
vt 0.41015625 0.6328125
vt 0.024214898351179362 1
vt 0.012095562357629971 0.931536188860113
vt 0.04827734375000001 0.9291893478855471
vt 0.04510381562390425 0.9986450925000534
vt 0.012095562357629971 0.931536188860113
vt 0.0036932624810469827 0.8453273890205824
vt 0.04547265625 0.842617472885547
vt 0.04827734375 0.9291893478855471
vt 0.0036932624810469827 0.8453273890205824
vt 0.0008885244134758941 0.7587547344088308
vt 0.03707030580584593 0.7564078934342647
vt 0.045472656250000014 0.842617472885547
vt 0.0008885244134758941 0.7587547344088308
vt 0.004062052539571655 0.6892989897943244
vt 0.024950969812296553 0.6879440822943778
vt 0.03707030580584593 0.7564078934342647
vt 0.20437734375 0.61565625
vt 0.18556227908411593 0.6064815030945667
vt 0.21484375 0.5703125
vt 0.39968984375 0.58746796875
vt 0.42062265625 0.58746796875
vt 0.41015625 0.6328125
vt 0.05593984375 0.998294035385547
vt 0.04827734375 0.9291893478855471
vt 0.08453515625 0.9291893478855471
vt 0.07687265625 0.998294035385547
vt 0.04827734375 0.9291893478855471
vt 0.04547265625 0.842617472885547
vt 0.08733984375 0.842617472885547
vt 0.08453515625 0.9291893478855471
vt 0.04547265625 0.842617472885547
vt 0.04827734375 0.756044816635547
vt 0.08453515625 0.756044816635547
vt 0.08733984375 0.842617472885547
vt 0.04827734375 0.756044816635547
vt 0.05593984375 0.686940129135547
vt 0.07687265625 0.686940129135547
vt 0.08453515625 0.756044816635547
vt 0.22531015625 0.61565625
vt 0.20437734375 0.61565625
vt 0.21484375 0.5703125
vt 0.42062265625 0.58746796875
vt 0.43943779019825335 0.5966425735736117
vt 0.41015625 0.6328125
vt 0.08770868437609576 0.9986450925000534
vt 0.08453515625 0.9291893478855471
vt 0.12071693764237004 0.931536188860113
vt 0.10859760164882065 1
vt 0.08453515625 0.9291893478855471
vt 0.08733984375 0.842617472885547
vt 0.12911923751895302 0.8453273890205824
vt 0.12071693764237003 0.931536188860113
vt 0.08733984375 0.842617472885547
vt 0.09574219419415406 0.7564078934342647
vt 0.1319239755865241 0.7587547344088308
vt 0.12911923751895302 0.8453273890205824
vt 0.09574219419415406 0.7564078934342647
vt 0.10786153018770345 0.6879440822943778
vt 0.12875044746042832 0.6892989897943244
vt 0.1319239755865241 0.7587547344088308
vt 0.24412522091588407 0.6064815030945667
vt 0.22531015625 0.61565625
vt 0.21484375 0.5703125
vt 0.43943779019825335 0.5966425735736117
vt 0.4523283605323294 0.613135476156917
vt 0.41015625 0.6328125
vt 0.16483989835117935 1
vt 0.15272056235762999 0.931536188860113
vt 0.18890234375 0.9291893478855471
vt 0.18572881562390425 0.9986450925000534
vt 0.15272056235762999 0.931536188860113
vt 0.14431826248104698 0.8453273890205824
vt 0.18609765625 0.842617472885547
vt 0.18890234375 0.9291893478855471
vt 0.14431826248104698 0.8453273890205824
vt 0.1415135244134759 0.7587547344088308
vt 0.17769530580584592 0.7564078934342647
vt 0.18609765625000002 0.842617472885547
vt 0.1415135244134759 0.7587547344088308
vt 0.14468705253957165 0.6892989897943244
vt 0.16557596981229655 0.6879440822943778
vt 0.17769530580584592 0.7564078934342647
vt 0.25701554215688505 0.5899884058274081
vt 0.24412522091588407 0.6064815030945667
vt 0.21484375000000006 0.5703125
vt 0.17222004486800818 0.671875
vt 0.1765778894676706 0.6514008253009956
vt 0.21875 0.6710778491440788
vt 0.19656484375 0.998294035385547
vt 0.18890234375 0.9291893478855471
vt 0.22516015625 0.9291893478855471
vt 0.21749765625 0.998294035385547
vt 0.18890234375 0.9291893478855471
vt 0.18609765625 0.842617472885547
vt 0.22796484375 0.842617472885547
vt 0.22516015625 0.9291893478855471
vt 0.18609765625 0.842617472885547
vt 0.18890234375 0.756044816635547
vt 0.22516015625 0.756044816635547
vt 0.22796484375 0.842617472885547
vt 0.18890234375 0.756044816635547
vt 0.19656484375 0.686940129135547
vt 0.21749765625 0.686940129135547
vt 0.22516015625 0.756044816635547
vt 0.27814070784311495 0.6454742734182624
vt 0.2737833270754528 0.625
vt 0.32031249999999994 0.6257983675908543
vt 0.1765778894676706 0.6514008253009956
vt 0.18946845980174665 0.6349079227176905
vt 0.21875 0.6710778491440788
vt 0.22833368437609575 0.9986450925000534
vt 0.22516015625 0.9291893478855471
vt 0.26134193764237 0.931536188860113
vt 0.24922260164882065 1
vt 0.22516015625 0.9291893478855471
vt 0.22796484375 0.842617472885547
vt 0.26974423751895305 0.8453273890205824
vt 0.26134193764237 0.931536188860113
vt 0.22796484375 0.842617472885547
vt 0.23636719419415406 0.7564078934342647
vt 0.27254897558652413 0.7587547344088308
vt 0.26974423751895305 0.8453273890205824
vt 0.23636719419415406 0.7564078934342647
vt 0.24848653018770345 0.6879440822943778
vt 0.2693754474604283 0.6892989897943244
vt 0.27254897558652413 0.7587547344088308
vt 0.29103102908411593 0.661967370685421
vt 0.27814070784311495 0.6454742734182624
vt 0.32031249999999994 0.6257983675908543
vt 0.18946845980174665 0.6349079227176905
vt 0.20828359375 0.6257333178940787
vt 0.21875 0.6710778491440788
vt 0.2853121926608758 0.9903885219770123
vt 0.28213862396529266 0.9209327792161932
vt 0.3183204067284594 0.9232795990567785
vt 0.3062011107250062 0.9917434172756255
vt 0.28213862396529266 0.9209327792161932
vt 0.28494326089817695 0.8343609025779744
vt 0.32672265624999997 0.8370707943094323
vt 0.3183204067284594 0.9232795990567785
vt 0.28494326089817695 0.8343609025779744
vt 0.29334556098683323 0.7481513182188471
vt 0.32952734375 0.7504981380594322
vt 0.32672265625 0.8370707943094323
vt 0.29334556098683323 0.7481513182188471
vt 0.30546485699028647 0.6796875
vt 0.3263537750544168 0.6810423952986132
vt 0.32952734375 0.7504981380594322
vt 0.30984609375 0.6711421175908543
vt 0.29103102908411593 0.661967370685421
vt 0.3203125 0.6257983675908543
vt 0.20828359375 0.6257333178940787
vt 0.22921640625 0.6257333178940787
vt 0.21875 0.6710778491440788
vt 0.33718984375 0.9927473568094323
vt 0.32952734375 0.9236426693094323
vt 0.36578515624999997 0.9236426693094323
vt 0.35812265625 0.9927473568094323
vt 0.32952734375 0.9236426693094323
vt 0.32672265625 0.8370707943094323
vt 0.36858984375000003 0.8370707943094323
vt 0.36578515624999997 0.9236426693094323
vt 0.32672265625 0.8370707943094323
vt 0.32952734375 0.7504981380594322
vt 0.36578515624999997 0.7504981380594322
vt 0.36858984375000003 0.8370707943094323
vt 0.32952734375 0.7504981380594322
vt 0.33718984375 0.6813934505594323
vt 0.35812265625 0.6813934505594323
vt 0.36578515624999997 0.7504981380594322
vt 0.33077890625 0.6711421175908543
vt 0.30984609375 0.6711421175908543
vt 0.3203125 0.6257983675908543
vn 0.2539108950505755 0.8614621462945793 0.43978657082288564
vn 0.4551832387313024 0.4138029443011839 0.7884004962363694
vn 0.4963322448243994 0.12090165834384015 0.8596726654705742
vn 0.49633224482439986 -0.12090165834383988 0.8596726654705741
vn 0.45518323873130256 -0.41380294430118414 0.7884004962363693
vn 0.2539108950505755 -0.8614621462945793 0.43978657082288564
vn 0.43978657082288564 0.8614621462945793 0.25391089505057557
vn 0.7884004962363694 0.413802944301184 0.4551832387313024
vn 0.8596726654705742 0.12090165834384001 0.49633224482439947
vn 0.8596726654705741 -0.12090165834384005 0.49633224482439986
vn 0.7884004962363693 -0.4138029443011839 0.4551832387313027
vn 0.43978657082288564 -0.8614621462945793 0.25391089505057557
vn 0.5078217901011508 0.8614621462945791 0
vn 0.9103664774626048 0.4138029443011839 0
vn 0.9926644896487984 0.12090165834384015 0
vn 0.9926644896487986 -0.12090165834383987 0
vn 0.9103664774626047 -0.4138029443011841 0
vn 0.5078217901011508 -0.8614621462945791 0
vn 0.4397865708228856 0.8614621462945793 -0.25391089505057546
vn 0.7884004962363693 0.413802944301184 -0.45518323873130256
vn 0.8596726654705742 0.12090165834384015 -0.4963322448243994
vn 0.8596726654705741 -0.12090165834383988 -0.4963322448244001
vn 0.7884004962363693 -0.41380294430118414 -0.45518323873130256
vn 0.43978657082288564 -0.8614621462945793 -0.2539108950505755
vn 0.25391089505057557 0.8614621462945792 -0.4397865708228857
vn 0.45518323873130273 0.413802944301184 -0.7884004962363693
vn 0.49633224482439925 0.12090165834384013 -0.8596726654705743
vn 0.49633224482439975 -0.1209016583438402 -0.8596726654705741
vn 0.4551832387313026 -0.4138029443011838 -0.7884004962363693
vn 0.25391089505057557 -0.8614621462945792 -0.4397865708228857
vn 3.3665811860005487e-16 0.8614621462945791 -0.5078217901011509
vn 3.46170031565733e-16 0.413802944301184 -0.9103664774626048
vn 6.580823548743005e-16 0.12090165834384002 -0.9926644896487984
vn 7.598880494712407e-16 -0.12090165834383988 -0.9926644896487986
vn 5.995840827295714e-16 -0.41380294430118403 -0.9103664774626048
vn 3.3665811860005487e-16 -0.8614621462945791 -0.5078217901011509
vn -0.2539108950505754 0.861462146294579 -0.4397865708228857
vn -0.45518323873130223 0.4138029443011839 -0.7884004962363694
vn -0.4963322448243988 0.12090165834384009 -0.8596726654705745
vn -0.49633224482439964 -0.12090165834383983 -0.8596726654705742
vn -0.45518323873130245 -0.41380294430118403 -0.7884004962363695
vn -0.2539108950505754 -0.8614621462945791 -0.43978657082288564
vn -0.4397865708228855 0.8614621462945791 -0.25391089505057557
vn -0.7884004962363694 0.413802944301184 -0.45518323873130256
vn -0.8596726654705745 0.12090165834384012 -0.4963322448243988
vn -0.8596726654705744 -0.12090165834384022 -0.49633224482439947
vn -0.7884004962363693 -0.41380294430118375 -0.4551832387313027
vn -0.4397865708228855 -0.8614621462945791 -0.25391089505057557
vn -0.5078217901011508 0.8614621462945791 0
vn -0.9103664774626049 0.413802944301184 0
vn -0.9926644896487986 0.12090165834383988 -6.580823548743011e-16
vn -0.9926644896487986 -0.12090165834383988 -7.598880494712413e-16
vn -0.910366477462605 -0.41380294430118386 0
vn -0.5078217901011508 -0.8614621462945791 0
vn -0.43978657082288575 0.8614621462945792 0.2539108950505755
vn -0.7884004962363694 0.4138029443011839 0.45518323873130223
vn -0.8596726654705744 0.12090165834384012 0.496332244824399
vn -0.8596726654705743 -0.12090165834383987 0.4963322448243997
vn -0.7884004962363694 -0.4138029443011841 0.4551832387313026
vn -0.43978657082288564 -0.8614621462945791 0.25391089505057546
vn -0.25391089505057557 0.8614621462945792 0.4397865708228857
vn -0.4551832387313026 0.4138029443011839 0.7884004962363694
vn -0.4963322448243994 0.12090165834384016 0.8596726654705744
vn -0.49633224482439997 -0.12090165834384019 0.8596726654705739
vn -0.45518323873130256 -0.4138029443011837 0.7884004962363694
vn -0.2539108950505755 -0.8614621462945793 0.43978657082288564
vn 0 0.8614621462945791 0.5078217901011508
vn 0 0.413802944301184 0.9103664774626048
vn 0 0.12090165834384012 0.9926644896487984
vn 0 -0.12090165834383987 0.9926644896487986
vn 0 -0.4138029443011841 0.9103664774626047
vn 0 -0.8614621462945791 0.5078217901011508
usemtl m_7bea0bc8-710e-ced1-2a4d-2822a5fd8ccb
f 11/25/7 16/26/7 10/27/7
f 11/28/8 12/29/8 17/30/8 16/31/8
f 12/32/9 13/33/9 18/34/9 17/35/9
f 13/36/10 14/37/10 19/38/10 18/39/10
f 14/40/11 15/41/11 20/42/11 19/43/11
f 20/44/12 15/45/12 9/46/12
f 16/47/13 21/48/13 10/49/13
f 16/50/14 17/51/14 22/52/14 21/53/14
f 17/54/15 18/55/15 23/56/15 22/57/15
f 18/58/16 19/59/16 24/60/16 23/61/16
f 19/62/17 20/63/17 25/64/17 24/65/17
f 25/66/18 20/67/18 9/68/18
f 21/69/19 26/70/19 10/71/19
f 21/72/20 22/73/20 27/74/20 26/75/20
f 22/76/21 23/77/21 28/78/21 27/79/21
f 23/80/22 24/81/22 29/82/22 28/83/22
f 24/84/23 25/85/23 30/86/23 29/87/23
f 30/88/24 25/89/24 9/90/24
f 26/91/25 31/92/25 10/93/25
f 26/94/26 27/95/26 32/96/26 31/97/26
f 27/98/27 28/99/27 33/100/27 32/101/27
f 28/102/28 29/103/28 34/104/28 33/105/28
f 29/106/29 30/107/29 35/108/29 34/109/29
f 35/110/30 30/111/30 9/112/30
f 31/113/31 36/114/31 10/115/31
f 31/116/32 32/117/32 37/118/32 36/119/32
f 32/120/33 33/121/33 38/122/33 37/123/33
f 33/124/34 34/125/34 39/126/34 38/127/34
f 34/128/35 35/129/35 40/130/35 39/131/35
f 40/132/36 35/133/36 9/134/36
f 36/135/37 41/136/37 10/137/37
f 36/138/38 37/139/38 42/140/38 41/141/38
f 37/142/39 38/143/39 43/144/39 42/145/39
f 38/146/40 39/147/40 44/148/40 43/149/40
f 39/150/41 40/151/41 45/152/41 44/153/41
f 45/154/42 40/155/42 9/156/42
f 41/157/43 46/158/43 10/159/43
f 41/160/44 42/161/44 47/162/44 46/163/44
f 42/164/45 43/165/45 48/166/45 47/167/45
f 43/168/46 44/169/46 49/170/46 48/171/46
f 44/172/47 45/173/47 50/174/47 49/175/47
f 50/176/48 45/177/48 9/178/48
f 46/179/49 51/180/49 10/181/49
f 46/182/50 47/183/50 52/184/50 51/185/50
f 47/186/51 48/187/51 53/188/51 52/189/51
f 48/190/52 49/191/52 54/192/52 53/193/52
f 49/194/53 50/195/53 55/196/53 54/197/53
f 55/198/54 50/199/54 9/200/54
f 51/201/55 56/202/55 10/203/55
f 51/204/56 52/205/56 57/206/56 56/207/56
f 52/208/57 53/209/57 58/210/57 57/211/57
f 53/212/58 54/213/58 59/214/58 58/215/58
f 54/216/59 55/217/59 60/218/59 59/219/59
f 60/220/60 55/221/60 9/222/60
f 56/223/61 61/224/61 10/225/61
f 56/226/62 57/227/62 62/228/62 61/229/62
f 57/230/63 58/231/63 63/232/63 62/233/63
f 58/234/64 59/235/64 64/236/64 63/237/64
f 59/238/65 60/239/65 65/240/65 64/241/65
f 65/242/66 60/243/66 9/244/66
f 61/245/67 66/246/67 10/247/67
f 61/248/68 62/249/68 67/250/68 66/251/68
f 62/252/69 63/253/69 68/254/69 67/255/69
f 63/256/70 64/257/70 69/258/70 68/259/70
f 64/260/71 65/261/71 70/262/71 69/263/71
f 70/264/72 65/265/72 9/266/72
f 66/267/73 11/268/73 10/269/73
f 66/270/74 67/271/74 12/272/74 11/273/74
f 67/274/75 68/275/75 13/276/75 12/277/75
f 68/278/76 69/279/76 14/280/76 13/281/76
f 69/282/77 70/283/77 15/284/77 14/285/77
f 15/286/78 70/287/78 9/288/78