{"asset":{"version":"2.0","generator":"Blockbench 4.8.1 glTF exporter"},"scenes":[{"nodes":[11],"name":"blockbench_export"}],"scene":0,"nodes":[{"translation":[0,0.3125,0],"name":"sphere","mesh":0},{"translation":[0,0.3125,0],"name":"cube","mesh":1},{"rotation":[0,0,0.25881904510252074,0.9659258262890683],"translation":[0.171875,0.9375,0],"name":"cube","mesh":2},{"name":"left_arm","children":[2]},{"rotation":[0,0,0.25881904510252074,0.9659258262890683],"translation":[0.171875,0.9375,0],"name":"cube","mesh":3},{"translation":[0,-0.75,0],"name":"left_leg","children":[4]},{"rotation":[0,0,-0.25881904510252074,0.9659258262890683],"translation":[-0.171875,0.9375,0],"name":"cube","mesh":4},{"translation":[0.25,-0.75,0],"name":"right_leg","children":[6]},{"rotation":[0,0,-0.25881904510252074,0.9659258262890683],"translation":[-0.171875,0.9375,0],"name":"cube","mesh":5},{"translation":[0.25,0,0],"name":"right_arm","children":[8]},{"translation":[-0.125,0.4375,0],"name":"root","children":[3,5,7,9]},{"children":[0,1,10]}],"bufferViews":[{"buffer":0,"byteOffset":0,"byteLength":5760,"target":34962,"byteStride":12},{"buffer":0,"byteOffset":5760,"byteLength":5760,"target":34962,"byteStride":12},{"buffer":0,"byteOffset":11520,"byteLength":3840,"target":34962,"byteStride":8},{"buffer":0,"byteOffset":15360,"byteLength":1344,"target":34963},{"buffer":0,"byteOffset":16704,"byteLength":288,"target":34962,"byteStride":12},{"buffer":0,"byteOffset":16992,"byteLength":288,"target":34962,"byteStride":12},{"buffer":0,"byteOffset":17280,"byteLength":192,"target":34962,"byteStride":8},{"buffer":0,"byteOffset":17472,"byteLength":72,"target":34963},{"buffer":0,"byteOffset":17544,"byteLength":288,"target":34962,"byteStride":12},{"buffer":0,"byteOffset":17832,"byteLength":288,"target":34962,"byteStride":12},{"buffer":0,"byteOffset":18120,"byteLength":192,"target":34962,"byteStride":8},{"buffer":0,"byteOffset":18312,"byteLength":72,"target":34963},{"buffer":0,"byteOffset":18384,"byteLength":288,"target":34962,"byteStride":12},{"buffer":0,"byteOffset":18672,"byteLength":288,"target":34962,"byteStride":12},{"buffer":0,"byteOffset":18960,"byteLength":192,"target":34962,"byteStride":8},{"buffer":0,"byteOffset":19152,"byteLength":72,"target":34963},{"buffer":0,"byteOffset":19224,"byteLength":288,"target":34962,"byteStride":12},{"buffer":0,"byteOffset":19512,"byteLength":288,"target":34962,"byteStride":12},{"buffer":0,"byteOffset":19800,"byteLength":192,"target":34962,"byteStride":8},{"buffer":0,"byteOffset":19992,"byteLength":72,"target":34963},{"buffer":0,"byteOffset":20064,"byteLength":288,"target":34962,"byteStride":12},{"buffer":0,"byteOffset":20352,"byteLength":288,"target":34962,"byteStride":12},{"buffer":0,"byteOffset":20640,"byteLength":192,"target":34962,"byteStride":8},{"buffer":0,"byteOffset":20832,"byteLength":72,"target":34963}],"buffers":[{"byteLength":20904,"uri":"data:application/octet-stream;base64,"}],"accessors":[{"bufferView":0,"componentType":5126,"count":480,"max":[0.3125,1.75,0.3125],"min":[-0.3125,1.125,-0.3125],"type":"VEC3"},{"bufferView":1,"componentType":5126,"count":480,"max":[0.9807852506637573,0.9807853102684021,0.9807852506637573],"min":[-0.9807852506637573,-0.9807853102684021,-0.9807852506637573],"type":"VEC3"},{"bufferView":2,"componentType":5126,"count":480,"max":[0.5625,0.421875],"min":[0,0],"type":"VEC2"},{"bufferView":3,"componentType":5123,"count":672,"max":[479],"min":[0],"type":"SCALAR"},{"bufferView":4,"componentType":5126,"count":24,"max":[0.03125,1.1875,0.03125],"min":[-0.03125,0.3125,-0.03125],"type":"VEC3"},{"bufferView":5,"componentType":5126,"count":24,"max":[1,1,1],"min":[-1,-1,-1],"type":"VEC3"},{"bufferView":6,"componentType":5126,"count":24,"max":[0.296875,0.609375],"min":[0.078125,0.046875],"type":"VEC2"},{"bufferView":7,"componentType":5123,"count":36,"max":[23],"min":[0],"type":"SCALAR"},{"bufferView":8,"componentType":5126,"count":24,"max":[0.03125,0,0.03125],"min":[-0.03125,-0.6875,-0.03125],"type":"VEC3"},{"bufferView":9,"componentType":5126,"count":24,"max":[1,1,1],"min":[-1,-1,-1],"type":"VEC3"},{"bufferView":10,"componentType":5126,"count":24,"max":[0.453125,0.609375],"min":[0.03125,0],"type":"VEC2"},{"bufferView":11,"componentType":5123,"count":36,"max":[23],"min":[0],"type":"SCALAR"},{"bufferView":12,"componentType":5126,"count":24,"max":[0.03125,0.0625,0.03125],"min":[-0.03125,-0.75,-0.03125],"type":"VEC3"},{"bufferView":13,"componentType":5126,"count":24,"max":[1,1,1],"min":[-1,-1,-1],"type":"VEC3"},{"bufferView":14,"componentType":5126,"count":24,"max":[0.453125,0.640625],"min":[0,0.25],"type":"VEC2"},{"bufferView":15,"componentType":5123,"count":36,"max":[23],"min":[0],"type":"SCALAR"},{"bufferView":16,"componentType":5126,"count":24,"max":[0.03125,0.0625,0.03125],"min":[-0.03125,-0.75,-0.03125],"type":"VEC3"},{"bufferView":17,"componentType":5126,"count":24,"max":[1,1,1],"min":[-1,-1,-1],"type":"VEC3"},{"bufferView":18,"componentType":5126,"count":24,"max":[0.421875,0.59375],"min":[0,0.046875],"type":"VEC2"},{"bufferView":19,"componentType":5123,"count":36,"max":[23],"min":[0],"type":"SCALAR"},{"bufferView":20,"componentType":5126,"count":24,"max":[0.03125,0,0.03125],"min":[-0.03125,-0.6875,-0.03125],"type":"VEC3"},{"bufferView":21,"componentType":5126,"count":24,"max":[1,1,1],"min":[-1,-1,-1],"type":"VEC3"},{"bufferView":22,"componentType":5126,"count":24,"max":[0.515625,0.609375],"min":[0,0.0625],"type":"VEC2"},{"bufferView":23,"componentType":5123,"count":36,"max":[23],"min":[0],"type":"SCALAR"}],"materials":[{"pbrMetallicRoughness":{"metallicFactor":0,"roughnessFactor":1,"baseColorTexture":{"index":0}},"alphaMode":"MASK","alphaCutoff":0.05,"doubleSided":true}],"textures":[{"sampler":0,"source":0,"name":"stickman.png"}],"samplers":[{"magFilter":9728,"minFilter":9728,"wrapS":33071,"wrapT":33071}],"images":[{"mimeType":"image/png","uri":"file:///D:/MyProject/MyGame/bbmodels/stickman.png?1"}],"meshes":[{"primitives":[{"mode":4,"attributes":{"POSITION":0,"NORMAL":1,"TEXCOORD_0":2},"indices":3,"material":0}]},{"primitives":[{"mode":4,"attributes":{"POSITION":4,"NORMAL":5,"TEXCOORD_0":6},"indices":7,"material":0}]},{"primitives":[{"mode":4,"attributes":{"POSITION":8,"NORMAL":9,"TEXCOORD_0":10},"indices":11,"material":0}]},{"primitives":[{"mode":4,"attributes":{"POSITION":12,"NORMAL":13,"TEXCOORD_0":14},"indices":15,"material":0}]},{"primitives":[{"mode":4,"attributes":{"POSITION":16,"NORMAL":17,"TEXCOORD_0":18},"indices":19,"material":0}]},{"primitives":[{"mode":4,"attributes":{"POSITION":20,"NORMAL":21,"TEXCOORD_0":22},"indices":23,"material":0}]}]}