# Made in Blockbench 4.8.1
mtllib hoe.mtl

o cuboid
v 0.03125 0.75 0.03125
v 0.03125 0.75 -0.03125
v 0.03125 0 0.03125
v 0.03125 0 -0.03125
v -0.03125 0.75 0.03125
v -0.03125 0.75 -0.03125
v -0.03125 0 0.03125
v -0.03125 0 -0.03125
vt 0.25 0.84375
vt 0.21875 0.84375
vt 0.21875 0.46875
vt 0.25 0.46875
vt 0.3125 0.625
vt 0.3125 1
vt 0.28125 1
vt 0.28125 0.625
vt 0.125 0.65625
vt 0.15625 0.65625
vt 0.15625 0.6875
vt 0.125 0.6875
vt 0.375 0.78125
vt 0.375 0.8125
vt 0.34375 0.8125
vt 0.34375 0.78125
vt 0.03125 0.3125
vt 0.03125 0.6875
vt 0 0.6875
vt 0 0.3125
vt 0.09375 0.6875
vt 0.0625 0.6875
vt 0.0625 0.3125
vt 0.09375 0.3125
vn 1 0 0
vn -1 0 0
vn 0 1 0
vn 0 -1 0
vn 0 0 1
vn 0 0 -1
usemtl m_5a8f08da-75d0-e75e-219c-447e7a83c58e
f 2/1/1 1/2/1 3/3/1 4/4/1
f 7/5/2 5/6/2 6/7/2 8/8/2
f 5/9/3 1/10/3 2/11/3 6/12/3
f 4/13/4 3/14/4 7/15/4 8/16/4
f 3/17/5 1/18/5 5/19/5 7/20/5
f 6/21/6 2/22/6 4/23/6 8/24/6
o cuboid
v 0.1875 0.8125 0.125
v 0.1875 0.8125 -0.125
v 0.3125 0.75 0.125
v 0.3125 0.75 -0.125
v -0.0625 0.8125 0.125
v -0.0625 0.8125 -0.125
v -0.0625 0.75 0.125
v -0.0625 0.75 -0.125
vt 0.46875 0.84375
vt 0.46875 0.875
vt 0.34375 0.875
vt 0.34375 0.84375
vt 0.011935937499999993 0.875
vt 0.1369359375 0.875
vt 0.1369359375 1
vt 0.011935937499999993 1
vt 0.1875 0.71875
vt 0.1875 0.84375
vt 0 0.84375
vt 0 0.71875
vt 0.53125 0.96875
vt 0.46875 1
vt 0.34375 1
vt 0.34375 0.96875
vt 0.53125 0.9375
vt 0.40625 0.9375
vt 0.34375 0.90625
vt 0.53125 0.90625
vt 0.1369359375 1
vt 0.1369359375 0.875
vt 0.2068140625 0.875
vt 0.2068140625 1
vn -1 0 0
vn 0 1 0
vn 0 -1 0
vn 0 0 1
vn 0 0 -1
vn 0.44721359549995804 0.8944271909999161 0
usemtl m_5a8f08da-75d0-e75e-219c-447e7a83c58e
f 15/25/7 13/26/7 14/27/7 16/28/7
f 13/29/8 9/30/8 10/31/8 14/32/8
f 12/33/9 11/34/9 15/35/9 16/36/9
f 11/37/10 9/38/10 13/39/10 15/40/10
f 14/41/11 10/42/11 12/43/11 16/44/11
f 10/45/12 9/46/12 11/47/12 12/48/12