# Made in Blockbench 4.8.1
mtllib fence.mtl

o 0
v 0.125 0.75 0.125
v 0.125 0.75 -0.125
v 0.125 0 0.125
v 0.125 0 -0.125
v -0.125 0.75 0.125
v -0.125 0.75 -0.125
v -0.125 0 0.125
v -0.125 0 -0.125
v 0.0625 0.75 -0.125
v 0.0625 0 -0.125
v 0.0625 0 0.125
v 0.0625 0.75 0.125
v -0.0625 0.75 0.125
v -0.0625 0 0.125
v -0.0625 0 -0.125
v -0.0625 0.75 -0.125
v 0.0625 0.875 0.0625
v 0.125 0.75 0.0625
v 0.125 0 0.0625
v 0.0625 0 0.0625
v -0.0625 0 0.0625
v -0.125 0 0.0625
v -0.125 0.75 0.0625
v -0.0625 0.875 0.0625
v 0.0625 0.875 -0.0625
v 0.125 0.75 -0.0625
v 0.125 0 -0.0625
v 0.0625 0 -0.0625
v -0.0625 0 -0.0625
v -0.125 0 -0.0625
v -0.125 0.75 -0.0625
v -0.0625 0.875 -0.0625
vt 0 0.7775609375
vt 0.015625 0.7775609375
vt 0.015625 0.9650609375
vt 0 0.9650609375
vt 0.140625 0.9650609375
vt 0.125 0.9650609375
vt 0.125 0.7775609375
vt 0.140625 0.7775609375
vt 0.5625 0.8125
vt 0.5625 0.796875
vt 0.578125 0.796875
vt 0.578125 0.8125
vt 0.21875 0.9650609375
vt 0.203125 0.9650609375
vt 0.203125 0.7775609375
vt 0.21875 0.7775609375
vt 0.21875 0.5588109375
vt 0.234375 0.5588109375
vt 0.234375 0.7463109375
vt 0.21875 0.7463109375
vt 0 0.9650609375
vt 0.015625 0.9650609375
vt 0.015625 1
vt 0 0.9720484375
vt 0.28125 0.7463109375
vt 0.265625 0.7463109375
vt 0.265625 0.5588109375
vt 0.28125 0.5588109375
vt 0.515625 0.8125
vt 0.515625 0.796875
vt 0.53125 0.796875
vt 0.53125 0.8125
vt 0.15625 0.7775609375
vt 0.171875 0.7775609375
vt 0.171875 0.9650609375
vt 0.15625 0.9650609375
vt 0.53125 0.515625
vt 0.53125 0.546875
vt 0.515625 0.5189244183311867
vt 0.5249418605562711 0.515625
vt 0.203125 0.9650609375
vt 0.171875 0.9650609375
vt 0.171875 0.7775609375
vt 0.203125 0.7775609375
vt 0.53125 0.8125
vt 0.53125 0.796875
vt 0.5625 0.796875
vt 0.5625 0.8125
vt 0.234375 0.5588109375
vt 0.265625 0.5588109375
vt 0.265625 0.7463109375
vt 0.234375 0.7463109375
vt 0.203125 0.9650609375
vt 0.203125 1
vt 0.171875 1
vt 0.171875 0.9650609375
vt 0.015625 0.9650609375
vt 0.046875 0.9650609375
vt 0.046875 1
vt 0.015625 1
vt 0.015625 0.7775609375
vt 0.046875 0.7775609375
vt 0.046875 0.9650609375
vt 0.015625 0.9650609375
vt 0.5625 0.796875
vt 0.5625 0.765625
vt 0.578125 0.765625
vt 0.578125 0.796875
vt 0.53125 0.796875
vt 0.53125 0.765625
vt 0.5625 0.765625
vt 0.5625 0.796875
vt 0.515625 0.796875
vt 0.515625 0.765625
vt 0.53125 0.765625
vt 0.53125 0.796875
vt 0.125 0.9650609375
vt 0.09375 0.9650609375
vt 0.09375 0.7775609375
vt 0.125 0.7775609375
vt 0.125 1
vt 0.09375 1
vt 0.09375 0.9650609375
vt 0.125 0.9650609375
vt 0.53125 0.40625
vt 0.53125 0.4375
vt 0.5 0.4375
vt 0.5 0.40625
vt 0.59375 0.703125
vt 0.59375 0.734375
vt 0.578125 0.7064244183311867
vt 0.5874418605562711 0.703125
vt 0.0625 0.9650609375
vt 0.046875 0.9650609375
vt 0.046875 0.7775609375
vt 0.0625 0.7775609375
vt 0.578125 0.75
vt 0.578125 0.765625
vt 0.5625 0.765625
vt 0.5625 0.75
vt 0.5625 0.75
vt 0.5625 0.765625
vt 0.53125 0.765625
vt 0.53125 0.75
vt 0.53125 0.75
vt 0.53125 0.765625
vt 0.515625 0.765625
vt 0.515625 0.75
vt 0.078125 0.7775609375
vt 0.09375 0.7775609375
vt 0.09375 0.9650609375
vt 0.078125 0.9650609375
vt 0.078125 0.9650609375
vt 0.09375 0.9650609375
vt 0.09375 1
vt 0.078125 0.9720484375
vt 0.265625 0.7463109375
vt 0.265625 0.78125
vt 0.234375 0.78125
vt 0.234375 0.7463109375
vn 1 0 0
vn -1 0 0
vn 0 -1 0
vn 0 0 1
vn 0 0 -1
vn 0.8944271909999161 0.44721359549995804 0
vn 0 0 -1
vn 0 -1 0
vn 0 0 1
vn -0.6666666666666666 0.3333333333333333 0.6666666666666666
vn 0 0 1
vn 0 -1 0
vn 0 0 -1
vn 0 0.44721359549995804 0.8944271909999161
vn 0.8944271909999161 0.44721359549995804 0
vn 1 0 0
vn 0 -1 0
vn 0 -1 0
vn 0 -1 0
vn -1 0 0
vn -0.8944271909999161 0.44721359549995804 0
vn 0 1 0
vn 0.6666666666666666 0.3333333333333333 -0.6666666666666666
vn 1 0 0
vn 0 -1 0
vn 0 -1 0
vn 0 -1 0
vn -1 0 0
vn -0.8944271909999161 0.44721359549995804 0
vn 0 0.44721359549995804 -0.8944271909999161
usemtl m_6fc005c5-933b-8f20-a017-b76e10c3918d
f 3/1/1 19/2/1 18/3/1 1/4/1
f 5/5/2 23/6/2 22/7/2 7/8/2
f 11/9/3 20/10/3 19/11/3 3/12/3
f 1/13/4 12/14/4 11/15/4 3/16/4
f 4/17/5 10/18/5 9/19/5 2/20/5
f 1/21/6 18/22/6 17/23/6 12/24/6
f 6/25/7 16/26/7 15/27/7 8/28/7
f 7/29/8 22/30/8 21/31/8 14/32/8
f 7/33/9 14/34/9 13/35/9 5/36/9
f 13/37/10 24/38/10 23/39/10 5/40/10
f 12/41/11 13/42/11 14/43/11 11/44/11
f 14/45/12 21/46/12 20/47/12 11/48/12
f 10/49/13 15/50/13 16/51/13 9/52/13
f 12/53/14 17/54/14 24/55/14 13/56/14
f 18/57/15 26/58/15 25/59/15 17/60/15
f 19/61/16 27/62/16 26/63/16 18/64/16
f 20/65/17 28/66/17 27/67/17 19/68/17
f 21/69/18 29/70/18 28/71/18 20/72/18
f 22/73/19 30/74/19 29/75/19 21/76/19
f 23/77/20 31/78/20 30/79/20 22/80/20
f 24/81/21 32/82/21 31/83/21 23/84/21
f 17/85/22 25/86/22 32/87/22 24/88/22
f 9/89/23 25/90/23 26/91/23 2/92/23
f 2/93/24 26/94/24 27/95/24 4/96/24
f 4/97/25 27/98/25 28/99/25 10/100/25
f 10/101/26 28/102/26 29/103/26 15/104/26
f 15/105/27 29/106/27 30/107/27 8/108/27
f 8/109/28 30/110/28 31/111/28 6/112/28
f 6/113/29 31/114/29 32/115/29 16/116/29
f 16/117/30 32/118/30 25/119/30 9/120/30
o 1
v -0.125 0.578125 0.078125
v -0.125 0.578125 -0.078125
v -0.125 0.421875 0.078125
v -0.125 0.421875 -0.078125
v -0.5 0.578125 0.078125
v -0.5 0.578125 -0.078125
v -0.5 0.421875 0.078125
v -0.5 0.421875 -0.078125
v -0.125 0.328125 0.078125
v -0.125 0.328125 -0.078125
v -0.125 0.171875 0.078125
v -0.125 0.171875 -0.078125
v -0.5 0.328125 0.078125
v -0.5 0.328125 -0.078125
v -0.5 0.171875 0.078125
v -0.5 0.171875 -0.078125
vt 0.59375 0.484375
vt 0.546875 0.484375
vt 0.546875 0.4375
vt 0.59375 0.4375
vt 0.046875 0.390625
vt 0.046875 0.4375
vt 0 0.4375
vt 0 0.390625
vt 0.109375 0.640625
vt 0.203125 0.640625
vt 0.203125 0.6875
vt 0.109375 0.6875
vt 0.390625 0.640625
vt 0.390625 0.6875
vt 0.296875 0.6875
vt 0.296875 0.640625
vt 0.4375 0.953125
vt 0.4375 1
vt 0.34375 1
vt 0.34375 0.953125
vt 0.4375 0.9375
vt 0.34375 0.9375
vt 0.34375 0.890625
vt 0.4375 0.890625
vt 0.609375 1
vt 0.5625 1
vt 0.5625 0.953125
vt 0.609375 0.953125
vt 0.109375 0.390625
vt 0.109375 0.4375
vt 0.0625 0.4375
vt 0.0625 0.390625
vt 0.34375 0.828125
vt 0.4375 0.828125
vt 0.4375 0.875
vt 0.34375 0.875
vt 0.09375 0.578125
vt 0.09375 0.625
vt 0 0.625
vt 0 0.578125
vt 0.203125 0.578125
vt 0.203125 0.625
vt 0.109375 0.625
vt 0.109375 0.578125
vt 0.390625 0.625
vt 0.296875 0.625
vt 0.296875 0.578125
vt 0.390625 0.578125
vn 1 0 0
vn -1 0 0
vn 0 1 0
vn 0 -1 0
vn 0 0 1
vn 0 0 -1
vn 1 0 0
vn -1 0 0
vn 0 1 0
vn 0 -1 0
vn 0 0 1
vn 0 0 -1
usemtl m_6fc005c5-933b-8f20-a017-b76e10c3918d
f 34/121/31 33/122/31 35/123/31 36/124/31
f 39/125/32 37/126/32 38/127/32 40/128/32
f 37/129/33 33/130/33 34/131/33 38/132/33
f 36/133/34 35/134/34 39/135/34 40/136/34
f 35/137/35 33/138/35 37/139/35 39/140/35
f 38/141/36 34/142/36 36/143/36 40/144/36
f 42/145/37 41/146/37 43/147/37 44/148/37
f 47/149/38 45/150/38 46/151/38 48/152/38
f 45/153/39 41/154/39 42/155/39 46/156/39
f 44/157/40 43/158/40 47/159/40 48/160/40
f 43/161/41 41/162/41 45/163/41 47/164/41
f 46/165/42 42/166/42 44/167/42 48/168/42
o 4
v -0.07812500000000003 0.578125 -0.12499999999999999
v 0.07812499999999997 0.578125 -0.12500000000000003
v -0.07812500000000003 0.421875 -0.12499999999999999
v 0.07812499999999997 0.421875 -0.12500000000000003
v -0.07812500000000011 0.578125 -0.5
v 0.07812499999999989 0.578125 -0.5
v -0.07812500000000011 0.421875 -0.5
v 0.07812499999999989 0.421875 -0.5
v -0.07812500000000003 0.328125 -0.12499999999999999
v 0.07812499999999997 0.328125 -0.12500000000000003
v -0.07812500000000003 0.171875 -0.12499999999999999
v 0.07812499999999997 0.171875 -0.12500000000000003
v -0.07812500000000011 0.328125 -0.5
v 0.07812499999999989 0.328125 -0.5
v -0.07812500000000011 0.171875 -0.5
v 0.07812499999999989 0.171875 -0.5
vt 0.609375 0.9375
vt 0.5625 0.9375
vt 0.5625 0.890625
vt 0.609375 0.890625
vt 0.171875 0.390625
vt 0.171875 0.4375
vt 0.125 0.4375
vt 0.125 0.390625
vt 0.40625 0.765625
vt 0.5 0.765625
vt 0.5 0.8125
vt 0.40625 0.8125
vt 0.5 0.703125
vt 0.5 0.75
vt 0.40625 0.75
vt 0.40625 0.703125
vt 0.5 0.640625
vt 0.5 0.6875
vt 0.40625 0.6875
vt 0.40625 0.640625
vt 0.5 0.625
vt 0.40625 0.625
vt 0.40625 0.578125
vt 0.5 0.578125
vt 0.609375 0.875
vt 0.5625 0.875
vt 0.5625 0.828125
vt 0.609375 0.828125
vt 0.234375 0.390625
vt 0.234375 0.4375
vt 0.1875 0.4375
vt 0.1875 0.390625
vt 0 0.515625
vt 0.09375 0.515625
vt 0.09375 0.5625
vt 0 0.5625
vt 0.203125 0.515625
vt 0.203125 0.5625
vt 0.109375 0.5625
vt 0.109375 0.515625
vt 0.390625 0.515625
vt 0.390625 0.5625
vt 0.296875 0.5625
vt 0.296875 0.515625
vt 0.5 0.5625
vt 0.40625 0.5625
vt 0.40625 0.515625
vt 0.5 0.515625
vn 2.220446049250313e-16 0 1
vn -2.220446049250313e-16 0 -1
vn 0 1 0
vn 0 -1 0
vn -1 0 2.220446049250313e-16
vn 1 0 -2.220446049250313e-16
vn 2.220446049250313e-16 0 1
vn -2.220446049250313e-16 0 -1
vn 0 1 0
vn 0 -1 0
vn -1 0 2.220446049250313e-16
vn 1 0 -2.220446049250313e-16
usemtl m_6fc005c5-933b-8f20-a017-b76e10c3918d
f 50/169/43 49/170/43 51/171/43 52/172/43
f 55/173/44 53/174/44 54/175/44 56/176/44
f 53/177/45 49/178/45 50/179/45 54/180/45
f 52/181/46 51/182/46 55/183/46 56/184/46
f 51/185/47 49/186/47 53/187/47 55/188/47
f 54/189/48 50/190/48 52/191/48 56/192/48
f 58/193/49 57/194/49 59/195/49 60/196/49
f 63/197/50 61/198/50 62/199/50 64/200/50
f 61/201/51 57/202/51 58/203/51 62/204/51
f 60/205/52 59/206/52 63/207/52 64/208/52
f 59/209/53 57/210/53 61/211/53 63/212/53
f 62/213/54 58/214/54 60/215/54 64/216/54
o 2
v 0.12499999999999999 0.578125 -0.07812500000000001
v 0.125 0.578125 0.07812499999999999
v 0.12499999999999999 0.421875 -0.07812500000000001
v 0.125 0.421875 0.07812499999999999
v 0.5 0.578125 -0.07812500000000006
v 0.5 0.578125 0.07812499999999994
v 0.5 0.421875 -0.07812500000000006
v 0.5 0.421875 0.07812499999999994
v 0.12499999999999999 0.328125 -0.07812500000000001
v 0.125 0.328125 0.07812499999999999
v 0.12499999999999999 0.171875 -0.07812500000000001
v 0.125 0.171875 0.07812499999999999
v 0.5 0.328125 -0.07812500000000006
v 0.5 0.328125 0.07812499999999994
v 0.5 0.171875 -0.07812500000000006
v 0.5 0.171875 0.07812499999999994
vt 0.296875 0.4375
vt 0.25 0.4375
vt 0.25 0.390625
vt 0.296875 0.390625
vt 0.359375 0.390625
vt 0.359375 0.4375
vt 0.3125 0.4375
vt 0.3125 0.390625
vt 0.453125 0.953125
vt 0.546875 0.953125
vt 0.546875 1
vt 0.453125 1
vt 0.546875 0.890625
vt 0.546875 0.9375
vt 0.453125 0.9375
vt 0.453125 0.890625
vt 0.546875 0.828125
vt 0.546875 0.875
vt 0.453125 0.875
vt 0.453125 0.828125
vt 0.09375 0.5
vt 0 0.5
vt 0 0.453125
vt 0.09375 0.453125
vt 0.421875 0.4375
vt 0.375 0.4375
vt 0.375 0.390625
vt 0.421875 0.390625
vt 0.484375 0.390625
vt 0.484375 0.4375
vt 0.4375 0.4375
vt 0.4375 0.390625
vt 0.109375 0.453125
vt 0.203125 0.453125
vt 0.203125 0.5
vt 0.109375 0.5
vt 0.3125 0.453125
vt 0.3125 0.5
vt 0.21875 0.5
vt 0.21875 0.453125
vt 0.421875 0.453125
vt 0.421875 0.5
vt 0.328125 0.5
vt 0.328125 0.453125
vt 0.53125 0.5
vt 0.4375 0.5
vt 0.4375 0.453125
vt 0.53125 0.453125
vn -1 0 1.2246467991473532e-16
vn 1 0 -1.2246467991473532e-16
vn 0 1 0
vn 0 -1 0
vn -1.2246467991473532e-16 0 -1
vn 1.2246467991473532e-16 0 1
vn -1 0 1.2246467991473532e-16
vn 1 0 -1.2246467991473532e-16
vn 0 1 0
vn 0 -1 0
vn -1.2246467991473532e-16 0 -1
vn 1.2246467991473532e-16 0 1
usemtl m_6fc005c5-933b-8f20-a017-b76e10c3918d
f 66/217/55 65/218/55 67/219/55 68/220/55
f 71/221/56 69/222/56 70/223/56 72/224/56
f 69/225/57 65/226/57 66/227/57 70/228/57
f 68/229/58 67/230/58 71/231/58 72/232/58
f 67/233/59 65/234/59 69/235/59 71/236/59
f 70/237/60 66/238/60 68/239/60 72/240/60
f 74/241/61 73/242/61 75/243/61 76/244/61
f 79/245/62 77/246/62 78/247/62 80/248/62
f 77/249/63 73/250/63 74/251/63 78/252/63
f 76/253/64 75/254/64 79/255/64 80/256/64
f 75/257/65 73/258/65 77/259/65 79/260/65
f 78/261/66 74/262/66 76/263/66 80/264/66
o 3
v 0.07812499999999997 0.578125 0.12500000000000003
v -0.07812500000000003 0.578125 0.12499999999999999
v 0.07812499999999997 0.421875 0.12500000000000003
v -0.07812500000000003 0.421875 0.12499999999999999
v 0.07812499999999989 0.578125 0.5
v -0.07812500000000011 0.578125 0.5
v 0.07812499999999989 0.421875 0.5
v -0.07812500000000011 0.421875 0.5
v 0.07812499999999997 0.328125 0.12500000000000003
v -0.07812500000000003 0.328125 0.12499999999999999
v 0.07812499999999997 0.171875 0.12500000000000003
v -0.07812500000000003 0.171875 0.12499999999999999
v 0.07812499999999989 0.328125 0.5
v -0.07812500000000011 0.328125 0.5
v 0.07812499999999989 0.171875 0.5
v -0.07812500000000011 0.171875 0.5
vt 0.5625 0.734375
vt 0.515625 0.734375
vt 0.515625 0.6875
vt 0.5625 0.6875
vt 0.5625 0.625
vt 0.5625 0.671875
vt 0.515625 0.671875
vt 0.515625 0.625
vt 0.234375 0.953125
vt 0.328125 0.953125
vt 0.328125 1
vt 0.234375 1
vt 0.328125 0.890625
vt 0.328125 0.9375
vt 0.234375 0.9375
vt 0.234375 0.890625
vt 0.328125 0.828125
vt 0.328125 0.875
vt 0.234375 0.875
vt 0.234375 0.828125
vt 0.09375 0.75
vt 0 0.75
vt 0 0.703125
vt 0.09375 0.703125
vt 0.5625 0.609375
vt 0.515625 0.609375
vt 0.515625 0.5625
vt 0.5625 0.5625
vt 0.59375 0.5
vt 0.59375 0.546875
vt 0.546875 0.546875
vt 0.546875 0.5
vt 0.109375 0.703125
vt 0.203125 0.703125
vt 0.203125 0.75
vt 0.109375 0.75
vt 0.390625 0.765625
vt 0.390625 0.8125
vt 0.296875 0.8125
vt 0.296875 0.765625
vt 0.390625 0.703125
vt 0.390625 0.75
vt 0.296875 0.75
vt 0.296875 0.703125
vt 0.09375 0.6875
vt 0 0.6875
vt 0 0.640625
vt 0.09375 0.640625
vn 2.220446049250313e-16 0 -1
vn -2.220446049250313e-16 0 1
vn 0 1 0
vn 0 -1 0
vn 1 0 2.220446049250313e-16
vn -1 0 -2.220446049250313e-16
vn 2.220446049250313e-16 0 -1
vn -2.220446049250313e-16 0 1
vn 0 1 0
vn 0 -1 0
vn 1 0 2.220446049250313e-16
vn -1 0 -2.220446049250313e-16
usemtl m_6fc005c5-933b-8f20-a017-b76e10c3918d
f 82/265/67 81/266/67 83/267/67 84/268/67
f 87/269/68 85/270/68 86/271/68 88/272/68
f 85/273/69 81/274/69 82/275/69 86/276/69
f 84/277/70 83/278/70 87/279/70 88/280/70
f 83/281/71 81/282/71 85/283/71 87/284/71
f 86/285/72 82/286/72 84/287/72 88/288/72
f 90/289/73 89/290/73 91/291/73 92/292/73
f 95/293/74 93/294/74 94/295/74 96/296/74
f 93/297/75 89/298/75 90/299/75 94/300/75
f 92/301/76 91/302/76 95/303/76 96/304/76
f 91/305/77 89/306/77 93/307/77 95/308/77
f 94/309/78 90/310/78 92/311/78 96/312/78