# Made in Blockbench 4.8.1
mtllib potato0.mtl

o sphere
v 0 -0.046875 1.734723475976807e-18
v 0 0.078125 1.734723475976807e-18
v 0.00837341226347258 0.06975158773652743 0.031249999999999993
v 0.014503175473054828 0.046875 0.05412658773652741
v 0.016746824526945165 0.015625 0.0625
v 0.01450317547305483 -0.015624999999999986 0.054126587736527426
v 0.00837341226347258 -0.038501587736527426 0.031249999999999993
v 0.022876587736527405 0.06975158773652743 0.022876587736527412
v 0.03962341226347258 0.046875 0.03962341226347259
v 0.045753175473054825 0.015625 0.04575317547305484
v 0.03962341226347258 -0.015624999999999986 0.03962341226347259
v 0.022876587736527405 -0.038501587736527426 0.022876587736527412
v 0.031249999999999993 0.06975158773652743 0.008373412263472583
v 0.05412658773652741 0.046875 0.01450317547305483
v 0.06249999999999999 0.015625 0.01674682452694517
v 0.05412658773652742 -0.015624999999999986 0.014503175473054832
v 0.031249999999999993 -0.038501587736527426 0.008373412263472583
v 0.031249999999999993 0.06975158773652743 -0.008373412263472583
v 0.05412658773652741 0.046875 -0.014503175473054833
v 0.06249999999999999 0.015625 -0.01674682452694517
v 0.05412658773652742 -0.015624999999999986 -0.014503175473054835
v 0.031249999999999993 -0.038501587736527426 -0.008373412263472583
v 0.02287658773652741 0.06975158773652743 -0.022876587736527405
v 0.03962341226347258 0.046875 -0.039623412263472574
v 0.04575317547305483 0.015625 -0.045753175473054825
v 0.03962341226347259 -0.015624999999999986 -0.039623412263472574
v 0.02287658773652741 -0.038501587736527426 -0.022876587736527405
v 0.00837341226347259 0.06975158773652743 -0.031249999999999986
v 0.014503175473054844 0.046875 -0.0541265877365274
v 0.016746824526945186 0.015625 -0.062499999999999986
v 0.014503175473054845 -0.015624999999999986 -0.05412658773652741
v 0.00837341226347259 -0.038501587736527426 -0.031249999999999986
v -0.008373412263472569 0.06975158773652743 -0.031249999999999993
v -0.014503175473054807 0.046875 -0.05412658773652741
v -0.01674682452694514 0.015625 -0.0625
v -0.014503175473054809 -0.015624999999999986 -0.054126587736527426
v -0.008373412263472569 -0.038501587736527426 -0.031249999999999993
v -0.022876587736527405 0.06975158773652743 -0.022876587736527412
v -0.03962341226347258 0.046875 -0.03962341226347259
v -0.045753175473054825 0.015625 -0.04575317547305484
v -0.03962341226347258 -0.015624999999999986 -0.03962341226347259
v -0.022876587736527405 -0.038501587736527426 -0.022876587736527412
v -0.031249999999999993 0.06975158773652743 -0.008373412263472576
v -0.05412658773652741 0.046875 -0.014503175473054821
v -0.06249999999999999 0.015625 -0.016746824526945155
v -0.05412658773652742 -0.015624999999999986 -0.014503175473054823
v -0.031249999999999993 -0.038501587736527426 -0.008373412263472576
v -0.031249999999999997 0.06975158773652743 0.008373412263472569
v -0.05412658773652742 0.046875 0.014503175473054805
v -0.0625 0.015625 0.01674682452694514
v -0.054126587736527426 -0.015624999999999986 0.014503175473054807
v -0.031249999999999997 -0.038501587736527426 0.008373412263472569
v -0.022876587736527412 0.06975158773652743 0.022876587736527405
v -0.03962341226347259 0.046875 0.039623412263472574
v -0.04575317547305484 0.015625 0.045753175473054825
v -0.039623412263472595 -0.015624999999999986 0.039623412263472574
v -0.022876587736527412 -0.038501587736527426 0.022876587736527405
v -0.008373412263472579 0.06975158773652743 0.031249999999999993
v -0.014503175473054825 0.046875 0.05412658773652741
v -0.01674682452694516 0.015625 0.0625
v -0.014503175473054826 -0.015624999999999986 0.054126587736527426
v -0.008373412263472579 -0.038501587736527426 0.031249999999999993
vt 0.4786347432546089 0.8274042360258154
vt 0.48253183589296444 0.8289364974976521
vt 0.4776239666714633 0.835696990454319
vt 0.4786347432546089 0.8274042360258154
vt 0.4801675557546089 0.8193167360258155
vt 0.4869176691976113 0.8219707501124818
vt 0.48253183589296444 0.8289364974976521
vt 0.11522840959838428 0.8220986444287298
vt 0.1135609375 0.8141651651515315
vt 0.12185309427813258 0.813012591083415
vt 0.12241246927813258 0.8211000910834149
vt 0.1135609375 0.8141651651515315
vt 0.1130015625 0.8060776651515315
vt 0.12018562217974832 0.8050791118062166
vt 0.12185309427813258 0.813012591083415
vt 0.1130015625 0.8060776651515316
vt 0.11340635578532599 0.7978561499136747
vt 0.11755398179603806 0.7972796477668751
vt 0.12018562217974832 0.8050791118062166
vt 0.48231769364403765 0.5768137731544376
vt 0.47865625 0.5788457639741846
vt 0.4765625 0.5707582639741846
vt 0.48253183589296444 0.8289364974976521
vt 0.4855979865350778 0.8317884926746937
vt 0.47855672948403355 0.8362842845352694
vt 0.48253183589296444 0.8289364974976521
vt 0.4869176691976113 0.8219707501124818
vt 0.4922285166904061 0.8269106611616709
vt 0.4855979865350778 0.8317884926746937
vt 0.4557125307218674 0.633600091083415
vt 0.45627190572186743 0.625512591083415
vt 0.4645640625 0.6266651651515315
vt 0.46289659040161574 0.6345986444287298
vt 0.45627190572186743 0.625512591083415
vt 0.4579393778202517 0.6175791118062166
vt 0.4651234375 0.6185776651515316
vt 0.4645640625 0.6266651651515315
vt 0.4883696579407131 0.5823932801722593
vt 0.48231769364403765 0.5768137731544376
vt 0.4845331402988264 0.5732603308276528
vt 0.4922070099450151 0.5762383998435523
vt 0.4845331402988264 0.5732603308276528
vt 0.48231769364403765 0.5768137731544376
vt 0.4765625 0.5707582639741846
vt 0.4855979865350778 0.8317884926746937
vt 0.48689501573209676 0.8357700591393002
vt 0.47855672948403355 0.8362842845352694
vt 0.06821875 0.53125
vt 0.0666859375 0.515625
vt 0.0739390625 0.515625
vt 0.07240625 0.53125
vt 0.467625230579169 0.6365767343764845
vt 0.46488141721026377 0.6289483633290563
vt 0.4729359375 0.6266651651515315
vt 0.47460340959838426 0.6345986444287298
vt 0.4645640625 0.6266651651515315
vt 0.4651234375 0.6185776651515316
vt 0.4723765625 0.6185776651515316
vt 0.4729359375 0.6266651651515315
vt 0.4653253407901365 0.6168782256368754
vt 0.4687104220967361 0.609375
vt 0.472781355785326 0.6103561499136747
vt 0.4723765625 0.6185776651515316
vt 0.4847459572269109 0.5690782422100933
vt 0.4845331402988264 0.5732603308276528
vt 0.4765625 0.5707582639741846
vt 0.48689501573209676 0.8357700591393002
vt 0.48609704386469693 0.8398808251444189
vt 0.47855672948403355 0.8362842845352694
vt 0.014380506719531123 0.90625
vt 0.007749976564202794 0.9013721684869772
vt 0.013060824056997631 0.8964322574377882
vt 0.017446657361644476 0.9033980048229585
vt 0.47460340959838426 0.6345986444287298
vt 0.4729359375 0.6266651651515315
vt 0.48122809427813257 0.625512591083415
vt 0.4817874692781326 0.633600091083415
vt 0.4729359375 0.6266651651515315
vt 0.4723765625 0.6185776651515316
vt 0.4795606221797483 0.6175791118062166
vt 0.48122809427813257 0.625512591083415
vt 0.4723765625 0.6185776651515316
vt 0.472781355785326 0.6103561499136747
vt 0.47692898179603804 0.6097796477668751
vt 0.4795606221797483 0.6175791118062166
vt 0.4829026740055208 0.5653182603995333
vt 0.4847459572269109 0.5690782422100933
vt 0.4765625 0.5707582639741846
vt 0.4816517468483178 0.8421001884177822
vt 0.47780294469788454 0.84375
vt 0.4765409932546089 0.8354917360258154
vt 0.017446657361644476 0.9033980048229585
vt 0.013060824056997631 0.8964322574377882
vt 0.0198109375 0.8937782433511218
vt 0.02134375 0.9018657433511218
vt 0.4557125307218674 0.7898500910834149
vt 0.45627190572186743 0.781762591083415
vt 0.4645640625 0.7829151651515315
vt 0.46289659040161574 0.7908486444287298
vt 0.45627190572186743 0.781762591083415
vt 0.4579393778202517 0.7738291118062166
vt 0.4651234375 0.7748276651515315
vt 0.4645640625 0.7829151651515315
vt 0.4579393778202517 0.7738291118062166
vt 0.46057101820396196 0.7660296477668751
vt 0.464718644214674 0.7666061499136747
vt 0.4651234375 0.7748276651515315
vt 0.47946641701290144 0.5629250838221211
vt 0.4829026740055208 0.5653182603995333
vt 0.4765625 0.5707582639741846
vt 0.47780294469788454 0.84375
vt 0.4736370762417075 0.8433249161778789
vt 0.4765409932546089 0.8354917360258154
vt 0.02134375 0.9018657433511218
vt 0.0198109375 0.8937782433511218
vt 0.0270640625 0.8937782433511218
vt 0.02553125 0.9018657433511218
vt 0.467625230579169 0.7928267343764845
vt 0.46488141721026377 0.7851983633290563
vt 0.4729359375 0.7829151651515315
vt 0.47460340959838426 0.7908486444287298
vt 0.4645640625 0.7829151651515315
vt 0.4651234375 0.7748276651515315
vt 0.4723765625 0.7748276651515315
vt 0.4729359375 0.7829151651515315
vt 0.4653253407901365 0.7731282256368756
vt 0.4687104220967361 0.765625
vt 0.472781355785326 0.7666061499136747
vt 0.4723765625 0.7748276651515316
vt 0.47530054855672443 0.5625
vt 0.47946641701290144 0.5629250838221211
vt 0.4765625 0.5707582639741846
vt 0.4736370762417075 0.8433249161778789
vt 0.47020081924908813 0.8409317396004666
vt 0.4765409932546089 0.8354917360258154
vt 0.02553125 0.9018657433511218
vt 0.0270640625 0.8937782433511218
vt 0.03381417594300237 0.8964322574377882
vt 0.029428342638355524 0.9033980048229585
vt 0.47460340959838426 0.7908486444287298
vt 0.4729359375 0.7829151651515315
vt 0.48122809427813257 0.781762591083415
vt 0.4817874692781326 0.7898500910834149
vt 0.4729359375 0.7829151651515315
vt 0.4723765625 0.7748276651515315
vt 0.4795606221797483 0.7738291118062166
vt 0.48122809427813257 0.781762591083415
vt 0.4723765625 0.7748276651515316
vt 0.472781355785326 0.7666061499136747
vt 0.47692898179603804 0.7660296477668751
vt 0.4795606221797483 0.7738291118062166
vt 0.4702223259944792 0.5653182603995333
vt 0.47365858298709856 0.5629250838221211
vt 0.4765625 0.5707582639741846
vt 0.47020081924908813 0.8409317396004666
vt 0.4683575360276981 0.8371717577899067
vt 0.4765409932546089 0.8354917360258154
vt 0.029428342638355524 0.9033980048229585
vt 0.03381417594300237 0.8964322574377882
vt 0.039125023435797206 0.9013721684869772
vt 0.03249449328046888 0.90625
vt 0.3775875307218674 0.539850091083415
vt 0.37814690572186743 0.531762591083415
vt 0.3864390625 0.5329151651515315
vt 0.38477159040161574 0.5408486444287298
vt 0.37814690572186743 0.531762591083415
vt 0.3798143778202517 0.5238291118062166
vt 0.3869984375 0.5248276651515316
vt 0.3864390625 0.5329151651515315
vt 0.3798143778202517 0.5238291118062166
vt 0.38244601820396196 0.5160296477668751
vt 0.386593644214674 0.5166061499136747
vt 0.3869984375 0.5248276651515316
vt 0.4683790427730891 0.5690782422100933
vt 0.4702223259944792 0.5653182603995333
vt 0.4765625 0.5707582639741846
vt 0.4683575360276981 0.8371717577899067
vt 0.46857035295578253 0.8329896691723472
vt 0.4765409932546089 0.8354917360258154
vt 0.09946875 0.53125
vt 0.0979359375 0.515625
vt 0.1051890625 0.515625
vt 0.10365625 0.53125
vt 0.389500230579169 0.5428267343764845
vt 0.38675641721026377 0.5351983633290563
vt 0.3948109375 0.5329151651515315
vt 0.39647840959838426 0.5408486444287298
vt 0.3864390625 0.5329151651515315
vt 0.3869984375 0.5248276651515316
vt 0.3942515625 0.5248276651515316
vt 0.3948109375 0.5329151651515315
vt 0.3869984375 0.5248276651515316
vt 0.386593644214674 0.5166061499136747
vt 0.3906645779032639 0.515625
vt 0.3940496592098635 0.5231282256368754
vt 0.4685918597011736 0.5732603308276528
vt 0.4683790427730891 0.5690782422100933
vt 0.4765625 0.5707582639741846
vt 0.46857035295578253 0.8329896691723472
vt 0.47078579961057127 0.8294362268455624
vt 0.4765409932546089 0.8354917360258154
vt 0.46857035295578253 0.8329896691723472
vt 0.4608964833095939 0.8300116001564477
vt 0.46473383531389584 0.8238567198277407
vt 0.47078579961057127 0.8294362268455624
vt 0.39647840959838426 0.5408486444287298
vt 0.3948109375 0.5329151651515315
vt 0.40310309427813257 0.531762591083415
vt 0.4036624692781326 0.539850091083415
vt 0.3948109375 0.5329151651515315
vt 0.3942515625 0.5248276651515316
vt 0.4014356221797483 0.5238291118062166
vt 0.40310309427813257 0.531762591083415
vt 0.4609179900549849 0.5762383998435523
vt 0.4685918597011736 0.5732603308276528
vt 0.47080730635596235 0.5768137731544376
vt 0.4647553420592869 0.5823932801722593
vt 0.47080730635596235 0.5768137731544376
vt 0.4685918597011736 0.5732603308276528
vt 0.4765625 0.5707582639741846
vt 0.47078579961057127 0.8294362268455624
vt 0.4744472432546089 0.8274042360258154
vt 0.4765409932546089 0.8354917360258154
vt 0.47078579961057127 0.8294362268455624
vt 0.4655210754695968 0.823108521880127
vt 0.47186302375154565 0.8195889318109979
vt 0.4744472432546089 0.8274042360258154
vt 0.09633753072186742 0.8211000910834149
vt 0.09689690572186742 0.813012591083415
vt 0.1051890625 0.8141651651515315
vt 0.10352159040161572 0.8220986444287298
vt 0.09689690572186742 0.813012591083415
vt 0.09856437782025168 0.8050791118062166
vt 0.1057484375 0.8060776651515315
vt 0.1051890625 0.8141651651515315
vt 0.09856437782025168 0.8050791118062166
vt 0.10119601820396193 0.7972796477668751
vt 0.10534364421467401 0.7978561499136747
vt 0.1057484375 0.8060776651515315
vt 0.47446875 0.5788457639741846
vt 0.47080730635596235 0.5768137731544376
vt 0.4765625 0.5707582639741846
vt 0.4744472432546089 0.8274042360258154
vt 0.4786347432546089 0.8274042360258154
vt 0.4765409932546089 0.8354917360258154
vt 0.4744472432546089 0.8274042360258154
vt 0.4729144307546089 0.8193167360258155
vt 0.4801675557546089 0.8193167360258155
vt 0.4786347432546089 0.8274042360258154
vt 0.108250230579169 0.8240767343764845
vt 0.10550641721026378 0.8164483633290563
vt 0.1135609375 0.8141651651515315
vt 0.11522840959838428 0.8220986444287298
vt 0.1051890625 0.8141651651515315
vt 0.1057484375 0.8060776651515315
vt 0.1130015625 0.8060776651515315
vt 0.1135609375 0.8141651651515315
vt 0.10595034079013646 0.8043782256368756
vt 0.10933542209673608 0.796875
vt 0.11340635578532599 0.7978561499136747
vt 0.1130015625 0.8060776651515316
vt 0.47865625 0.5788457639741846
vt 0.47446875 0.5788457639741846
vt 0.4765625 0.5707582639741846
vn 0.12940952255126023 0.9659258262890683 0.22414386804201314
vn 0.3535533905932737 0.7071067811865475 0.6123724356957947
vn 0.48296291314453405 0.25881904510252085 0.836516303737808
vn 0.4829629131445344 -0.2588190451025205 0.8365163037378078
vn 0.3535533905932739 -0.7071067811865475 0.6123724356957947
vn 0.12940952255126023 -0.9659258262890683 0.22414386804201314
vn 0.2241438680420132 0.9659258262890685 0.12940952255126031
vn 0.6123724356957947 0.7071067811865476 0.35355339059327373
vn 0.836516303737808 0.2588190451025208 0.48296291314453405
vn 0.8365163037378078 -0.2588190451025209 0.48296291314453427
vn 0.6123724356957947 -0.7071067811865474 0.353553390593274
vn 0.2241438680420132 -0.9659258262890685 0.12940952255126031
vn 0.2588190451025205 0.9659258262890685 0
vn 0.7071067811865477 0.7071067811865475 0
vn 0.9659258262890683 0.2588190451025207 0
vn 0.9659258262890683 -0.2588190451025206 0
vn 0.7071067811865478 -0.7071067811865474 0
vn 0.2588190451025205 -0.9659258262890685 0
vn 0.22414386804201317 0.9659258262890685 -0.12940952255126031
vn 0.6123724356957946 0.7071067811865475 -0.3535533905932739
vn 0.8365163037378082 0.2588190451025207 -0.48296291314453416
vn 0.8365163037378078 -0.2588190451025205 -0.4829629131445344
vn 0.6123724356957946 -0.7071067811865474 -0.3535533905932741
vn 0.22414386804201317 -0.9659258262890685 -0.12940952255126031
vn 0.12940952255126031 0.9659258262890685 -0.22414386804201322
vn 0.35355339059327395 0.7071067811865475 -0.6123724356957946
vn 0.48296291314453416 0.25881904510252096 -0.8365163037378078
vn 0.4829629131445345 -0.258819045102521 -0.8365163037378077
vn 0.35355339059327395 -0.7071067811865472 -0.6123724356957947
vn 0.12940952255126031 -0.9659258262890685 -0.22414386804201322
vn 1.0723930924262027e-16 0.9659258262890685 -0.2588190451025205
vn 3.4660289604073953e-16 0.7071067811865474 -0.7071067811865477
vn 4.0022255066204975e-16 0.2588190451025209 -0.9659258262890683
vn 4.621371947209864e-16 -0.25881904510252063 -0.9659258262890684
vn 4.002225506620496e-16 -0.7071067811865474 -0.7071067811865478
vn 1.0723930924262027e-16 -0.9659258262890683 -0.2588190451025205
vn -0.1294095225512602 0.9659258262890683 -0.22414386804201325
vn -0.35355339059327345 0.7071067811865475 -0.6123724356957949
vn -0.48296291314453377 0.25881904510252085 -0.8365163037378082
vn -0.4829629131445342 -0.2588190451025206 -0.8365163037378082
vn -0.3535533905932737 -0.7071067811865474 -0.6123724356957948
vn -0.1294095225512602 -0.9659258262890685 -0.22414386804201328
vn -0.22414386804201322 0.9659258262890685 -0.12940952255126026
vn -0.6123724356957948 0.7071067811865475 -0.3535533905932736
vn -0.8365163037378082 0.2588190451025208 -0.4829629131445339
vn -0.8365163037378078 -0.25881904510252085 -0.48296291314453416
vn -0.6123724356957948 -0.7071067811865472 -0.3535533905932739
vn -0.22414386804201322 -0.9659258262890685 -0.12940952255126026
vn -0.2588190451025205 0.9659258262890683 -5.3619654621310167e-17
vn -0.7071067811865476 0.7071067811865475 -2.310685973604932e-16
vn -0.9659258262890683 0.25881904510252063 -2.0011127533102507e-16
vn -0.9659258262890684 -0.2588190451025206 -2.310685973604934e-16
vn -0.7071067811865478 -0.7071067811865474 -2.00111275331025e-16
vn -0.2588190451025205 -0.9659258262890683 -5.3619654621310167e-17
vn -0.22414386804201328 0.9659258262890685 0.12940952255126023
vn -0.6123724356957948 0.7071067811865474 0.3535533905932737
vn -0.8365163037378083 0.2588190451025207 0.48296291314453377
vn -0.836516303737808 -0.2588190451025205 0.482962913144534
vn -0.6123724356957948 -0.7071067811865474 0.3535533905932739
vn -0.22414386804201328 -0.9659258262890685 0.12940952255126023
vn -0.1294095225512603 0.9659258262890685 0.22414386804201322
vn -0.35355339059327384 0.7071067811865475 0.6123724356957947
vn -0.4829629131445341 0.2588190451025209 0.8365163037378079
vn -0.4829629131445344 -0.25881904510252096 0.8365163037378077
vn -0.35355339059327395 -0.7071067811865472 0.6123724356957947
vn -0.1294095225512603 -0.9659258262890685 0.22414386804201322
vn 0 0.9659258262890685 0.2588190451025205
vn 0 0.7071067811865475 0.7071067811865476
vn 0 0.2588190451025209 0.9659258262890683
vn 0 -0.2588190451025206 0.9659258262890684
vn 0 -0.7071067811865475 0.7071067811865476
vn 0 -0.9659258262890685 0.2588190451025205
usemtl m_a34955fc-31a4-ad80-ade2-952d51c4c7ff
f 3/1/1 8/2/1 2/3/1
f 3/4/2 4/5/2 9/6/2 8/7/2
f 4/8/3 5/9/3 10/10/3 9/11/3
f 5/12/4 6/13/4 11/14/4 10/15/4
f 6/16/5 7/17/5 12/18/5 11/19/5
f 12/20/6 7/21/6 1/22/6
f 8/23/7 13/24/7 2/25/7
f 8/26/8 9/27/8 14/28/8 13/29/8
f 9/30/9 10/31/9 15/32/9 14/33/9
f 10/34/10 11/35/10 16/36/10 15/37/10
f 11/38/11 12/39/11 17/40/11 16/41/11
f 17/42/12 12/43/12 1/44/12
f 13/45/13 18/46/13 2/47/13
f 13/48/14 14/49/14 19/50/14 18/51/14
f 14/52/15 15/53/15 20/54/15 19/55/15
f 15/56/16 16/57/16 21/58/16 20/59/16
f 16/60/17 17/61/17 22/62/17 21/63/17
f 22/64/18 17/65/18 1/66/18
f 18/67/19 23/68/19 2/69/19
f 18/70/20 19/71/20 24/72/20 23/73/20
f 19/74/21 20/75/21 25/76/21 24/77/21
f 20/78/22 21/79/22 26/80/22 25/81/22
f 21/82/23 22/83/23 27/84/23 26/85/23
f 27/86/24 22/87/24 1/88/24
f 23/89/25 28/90/25 2/91/25
f 23/92/26 24/93/26 29/94/26 28/95/26
f 24/96/27 25/97/27 30/98/27 29/99/27
f 25/100/28 26/101/28 31/102/28 30/103/28
f 26/104/29 27/105/29 32/106/29 31/107/29
f 32/108/30 27/109/30 1/110/30
f 28/111/31 33/112/31 2/113/31
f 28/114/32 29/115/32 34/116/32 33/117/32
f 29/118/33 30/119/33 35/120/33 34/121/33
f 30/122/34 31/123/34 36/124/34 35/125/34
f 31/126/35 32/127/35 37/128/35 36/129/35
f 37/130/36 32/131/36 1/132/36
f 33/133/37 38/134/37 2/135/37
f 33/136/38 34/137/38 39/138/38 38/139/38
f 34/140/39 35/141/39 40/142/39 39/143/39
f 35/144/40 36/145/40 41/146/40 40/147/40
f 36/148/41 37/149/41 42/150/41 41/151/41
f 42/152/42 37/153/42 1/154/42
f 38/155/43 43/156/43 2/157/43
f 38/158/44 39/159/44 44/160/44 43/161/44
f 39/162/45 40/163/45 45/164/45 44/165/45
f 40/166/46 41/167/46 46/168/46 45/169/46
f 41/170/47 42/171/47 47/172/47 46/173/47
f 47/174/48 42/175/48 1/176/48
f 43/177/49 48/178/49 2/179/49
f 43/180/50 44/181/50 49/182/50 48/183/50
f 44/184/51 45/185/51 50/186/51 49/187/51
f 45/188/52 46/189/52 51/190/52 50/191/52
f 46/192/53 47/193/53 52/194/53 51/195/53
f 52/196/54 47/197/54 1/198/54
f 48/199/55 53/200/55 2/201/55
f 48/202/56 49/203/56 54/204/56 53/205/56
f 49/206/57 50/207/57 55/208/57 54/209/57
f 50/210/58 51/211/58 56/212/58 55/213/58
f 51/214/59 52/215/59 57/216/59 56/217/59
f 57/218/60 52/219/60 1/220/60
f 53/221/61 58/222/61 2/223/61
f 53/224/62 54/225/62 59/226/62 58/227/62
f 54/228/63 55/229/63 60/230/63 59/231/63
f 55/232/64 56/233/64 61/234/64 60/235/64
f 56/236/65 57/237/65 62/238/65 61/239/65
f 62/240/66 57/241/66 1/242/66
f 58/243/67 3/244/67 2/245/67
f 58/246/68 59/247/68 4/248/68 3/249/68
f 59/250/69 60/251/69 5/252/69 4/253/69
f 60/254/70 61/255/70 6/256/70 5/257/70
f 61/258/71 62/259/71 7/260/71 6/261/71
f 7/262/72 62/263/72 1/264/72